<?xml version="1.0" standalone="no"?>
<!DOCTYPE svg PUBLIC "-//W3C//DTD SVG 1.1//EN" "http://www.w3.org/Graphics/SVG/1.1/DTD/svg11.dtd" >
<svg xmlns="http://www.w3.org/2000/svg" xmlns:xlink="http://www.w3.org/1999/xlink" version="1.1">
<metadata>
Created by FontForge 20200427 at Tue Oct  1 18:26:21 2019
 By www
Copyright (c) 2017, Dare-demo Iie, based on IPA Mincho
</metadata>
<defs>
<font id="OptimaModoki" horiz-adv-x="0" >
  <font-face 
    font-family="OptimaModoki"
    font-weight="400"
    font-stretch="normal"
    units-per-em="2048"
    panose-1="2 0 5 3 0 0 0 0 0 0"
    ascent="1638"
    descent="-410"
    x-height="1008"
    cap-height="1464"
    bbox="-1010 -713 2795 2126"
    underline-thickness="102"
    underline-position="-460"
    unicode-range="U+0020-1D12C"
  />
<missing-glyph horiz-adv-x="748" 
d="M68 0v1365h544v-1365h-544zM136 68h408v1229h-408v-1229z" />
    <glyph glyph-name="uniFB2A" unicode="&#x5e9;&#x5c1;" horiz-adv-x="1151" 
d="M647 903v-268q0 -166 -90.5 -254.5t-255.5 -93.5l17 -160q2 -24 7 -42h284q98 10 153.5 85t75.5 221l71 510q12 86 -24 107h196q-44 -23 -56 -107l-75 -539q-48 -342 -408 -342h-389q38 24 30 107l-82 774q-9 86 -50 107h215q-39 -23 -30 -107l59 -559h1q40 0 78 17.5
t69.5 50.5t51 86.5t19.5 119.5v287q0 86 -39 107h213q-41 -23 -41 -107zM1013 1437q44 0 74 -31q31 -31 31 -74q0 -102 -105 -102q-102 0 -102 102q0 105 102 105z" />
    <glyph glyph-name="uniFB2B" unicode="&#x5e9;&#x5c2;" horiz-adv-x="1151" 
d="M647 903v-268q0 -166 -90.5 -254.5t-255.5 -93.5l17 -160q2 -24 7 -42h284q98 10 153.5 85t75.5 221l71 510q12 86 -24 107h196q-44 -23 -56 -107l-75 -539q-48 -342 -408 -342h-389q38 24 30 107l-82 774q-9 86 -50 107h215q-39 -23 -30 -107l59 -559h1q40 0 78 17.5
t69.5 50.5t51 86.5t19.5 119.5v287q0 86 -39 107h213q-41 -23 -41 -107zM198 1437q44 0 74 -31q31 -31 31 -74q0 -102 -105 -102q-102 0 -102 102q0 105 102 105z" />
    <glyph glyph-name="uniFB2C" unicode="&#xfb49;&#x5c1;" horiz-adv-x="1151" 
d="M635 342q35 0 59 -24q25 -25 25 -60q0 -81 -84 -81q-81 0 -81 81q0 84 81 84zM647 903v-268q0 -166 -90.5 -254.5t-255.5 -93.5l17 -160q2 -24 7 -42h284q98 10 153.5 85t75.5 221l71 510q12 86 -24 107h196q-44 -23 -56 -107l-75 -539q-48 -342 -408 -342h-389
q38 24 30 107l-82 774q-9 86 -50 107h215q-39 -23 -30 -107l59 -559h1q40 0 78 17.5t69.5 50.5t51 86.5t19.5 119.5v287q0 86 -39 107h213q-41 -23 -41 -107zM1013 1437q44 0 74 -31q31 -31 31 -74q0 -102 -105 -102q-102 0 -102 102q0 105 102 105z" />
    <glyph glyph-name="uniFB2D" unicode="&#xfb49;&#x5c2;" horiz-adv-x="1151" 
d="M635 342q35 0 59 -24q25 -25 25 -60q0 -81 -84 -81q-81 0 -81 81q0 84 81 84zM647 903v-268q0 -166 -90.5 -254.5t-255.5 -93.5l17 -160q2 -24 7 -42h284q98 10 153.5 85t75.5 221l71 510q12 86 -24 107h196q-44 -23 -56 -107l-75 -539q-48 -342 -408 -342h-389
q38 24 30 107l-82 774q-9 86 -50 107h215q-39 -23 -30 -107l59 -559h1q40 0 78 17.5t69.5 50.5t51 86.5t19.5 119.5v287q0 86 -39 107h213q-41 -23 -41 -107zM198 1437q44 0 74 -31q31 -31 31 -74q0 -102 -105 -102q-102 0 -102 102q0 105 102 105z" />
    <glyph glyph-name="uniFB2E" unicode="&#x5d0;&#x5b7;" horiz-adv-x="992" 
d="M304 -94h405v-90h-405v90zM73 127l1 135q3 346 284 348l-214 281q-57 75 -94 105q-10 7 -21 12h225q-14 -9 -14 -23q0 -22 49 -86l321 -419q20 -7 45 -7q155 0 154 274l-1 162q-1 87 -39 107h214q-41 -23 -41 -107v-143q0 -347 -285 -348l213 -281q32 -42 64.5 -71
t67.5 -46h-234q8 8 8 18q0 23 -49 87l-321 423q-20 7 -45 7q-155 0 -154 -274l1 -154q0 -86 39 -107h-215q41 23 41 107z" />
    <glyph glyph-name="uniFB2F" unicode="&#x5d0;&#x5b8;" horiz-adv-x="992" 
d="M304 -94h405v-90h-158v-157h-90v157h-157v90zM73 127l1 135q3 346 284 348l-214 281q-57 75 -94 105q-10 7 -21 12h225q-14 -9 -14 -23q0 -22 49 -86l321 -419q20 -7 45 -7q155 0 154 274l-1 162q-1 87 -39 107h214q-41 -23 -41 -107v-143q0 -347 -285 -348l213 -281
q32 -42 64.5 -71t67.5 -46h-234q8 8 8 18q0 23 -49 87l-321 423q-20 7 -45 7q-155 0 -154 -274l1 -154q0 -86 39 -107h-215q41 23 41 107z" />
    <glyph glyph-name="uniFB30" unicode="&#x5d0;&#x5bc;" horiz-adv-x="992" 
d="M408 351q35 0 60 -25q24 -24 24 -59q0 -81 -84 -81q-81 0 -81 81q0 84 81 84zM73 127l1 135q3 346 284 348l-214 281q-57 75 -94 105q-10 7 -21 12h225q-14 -9 -14 -23q0 -22 49 -86l321 -419q20 -7 45 -7q155 0 154 274l-1 162q-1 87 -39 107h214q-41 -23 -41 -107v-143
q0 -347 -285 -348l213 -281q32 -42 64.5 -71t67.5 -46h-234q8 8 8 18q0 23 -49 87l-321 423q-20 7 -45 7q-155 0 -154 -274l1 -154q0 -86 39 -107h-215q41 23 41 107z" />
    <glyph glyph-name="uniFB31" unicode="&#x5d1;&#x5bc;" horiz-adv-x="900" 
d="M333 568q35 0 59 -24q25 -25 25 -60q0 -81 -84 -81q-81 0 -81 81q0 84 81 84zM282 1008h115q175 0 267.5 -82t92.5 -260v-539q0 -24 4 -44h133v-64l-864 1l-9 159q12 -26 28 -41q53 -53 223 -54l344 -1q4 20 4 44v510q0 308 -229 307l-351 1l-9 159q12 -27 28 -41
q60 -55 223 -55z" />
    <glyph glyph-name="uniFB32" unicode="&#x5d2;&#x5bc;" horiz-adv-x="660" 
d="M135 810q35 0 59 -24q25 -25 25 -60q0 -81 -84 -81q-81 0 -81 81q0 84 81 84zM336 799q-27 102 -77 102h-147l-16 156q27 -39 111 -39h17q141 0 181 -178l163 -721q16 -66 62 -94h-190q35 19 41 53q4 21 -4 57l-92 435l-147 -444q-12 -37 -9 -61q3 -28 30 -45h-229l8 6
q30 26 60 111z" />
    <glyph glyph-name="uniFB33" unicode="&#x5d3;&#x5bc;" horiz-adv-x="824" 
d="M316 568q35 0 60 -24q24 -25 24 -60q0 -81 -84 -81q-81 0 -81 81q0 84 81 84zM40 945l-9 159q12 -27 28 -41q55 -55 223 -55h507v-64h-101v-817q0 -80 44 -107h-218q39 23 39 107v818h-513z" />
    <glyph glyph-name="uniFB34" unicode="&#x5d4;&#x5bc;" horiz-adv-x="1100" 
d="M533 568q35 0 59 -24q25 -25 25 -60q0 -81 -84 -81q-81 0 -81 81q0 84 81 84zM282 1008h315q175 0 267.5 -82t92.5 -260v-539q0 -79 43 -107h-221q41 28 41 107v510q0 308 -229 307l-551 1l-9 159q12 -27 28 -41q60 -55 223 -55zM318 608q-41 -23 -41 -107v-374
q0 -86 39 -107h-215q41 23 41 107v374q0 86 -39 107h215z" />
    <glyph glyph-name="uniFB35" unicode="&#x5d5;&#x5bc;" horiz-adv-x="418" 
d="M2 568q36 0 60 -24q24 -25 24 -60q0 -81 -84 -81q-81 0 -81 81q0 84 81 84zM318 1008q-41 -23 -41 -107v-774q0 -86 39 -107h-215q41 23 41 107v774q0 86 -39 107h215z" />
    <glyph glyph-name="uniFB36" unicode="&#x5d6;&#x5bc;" horiz-adv-x="486" 
d="M47 568q35 0 59 -24q25 -25 25 -60q0 -81 -84 -81q-81 0 -81 81q0 84 81 84zM456 942q-144 -28 -144 -286v-529q0 -84 39 -107h-218q44 27 44 107v529q0 172 96 268q11 11 23 21h-256l-9 159q12 -27 28 -41q53 -53 223 -54l174 -1v-66z" />
    <glyph glyph-name="uniFB38" unicode="&#x5d8;&#x5bc;" horiz-adv-x="974" 
d="M517 568q35 0 59 -24q25 -25 25 -60q0 -81 -84 -81q-81 0 -81 81q0 84 81 84zM270 1008q-39 -23 -32 -107l68 -774q1 -17 4 -31q54 -12 128 -12h115q113 0 165 75.5t52 231.5v246q0 291 -204 306q-58 -2 -83 -13.5t-53 -39.5q-16 -15 -28 -41l9 159h136q175 0 267.5 -82
t92.5 -260v-304q0 -342 -360 -342h-408q39 23 32 107l-68 774q-7 86 -48 107h215z" />
    <glyph glyph-name="uniFB39" unicode="&#x5d9;&#x5bc;" horiz-adv-x="418" 
d="M15 892q35 0 59 -24q25 -25 25 -60q0 -81 -84 -81q-81 0 -81 81q0 84 81 84zM318 1008q-41 -23 -41 -107v-281h-176q41 23 41 107v174q0 86 -39 107h215z" />
    <glyph glyph-name="uniFB3A" unicode="&#x5da;&#x5bc;" horiz-adv-x="900" 
d="M333 568q35 0 59 -24q25 -25 25 -60q0 -81 -84 -81q-81 0 -81 81q0 84 81 84zM282 1008h115q175 0 267.5 -82t92.5 -260v-911q0 -79 43 -107h-221q41 28 41 107v882q0 308 -229 307l-351 1l-9 159q12 -27 28 -41q60 -55 223 -55z" />
    <glyph glyph-name="uniFB3B" unicode="&#x5db;&#x5bc;" horiz-adv-x="900" 
d="M333 568q35 0 59 -24q25 -25 25 -60q0 -81 -84 -81q-81 0 -81 81q0 84 81 84zM397 20l-351 1l-9 159q12 -27 28 -41q60 -55 223 -55h115q113 0 165 75.5t52 231.5v246q0 308 -229 307l-351 1l-9 159q12 -27 28 -41q60 -55 223 -55h115q175 0 267.5 -82t92.5 -260v-304
q0 -342 -360 -342z" />
    <glyph glyph-name="uniFB3C" unicode="&#x5dc;&#x5bc;" horiz-adv-x="932" 
d="M333 568q35 0 59 -24q25 -25 25 -60q0 -81 -84 -81q-81 0 -81 81q0 84 81 84zM257 1383q-41 -23 -41 -107v-224q0 -24 3 -44h643q-44 -23 -56 -107l-75 -539q-26 -187 -88.5 -264.5t-195.5 -77.5q-163 0 -223 -55q-16 -14 -28 -41l9 162h223q43 0 76 21t55 63t36 94.5
t24 126.5l71 510q4 24 3 43l-653 1q41 23 41 107v224q0 86 -39 107h215z" />
    <glyph glyph-name="uniFB3E" unicode="&#x5de;&#x5bc;" horiz-adv-x="1100" 
d="M577 568q35 0 59 -24q25 -25 25 -60q0 -81 -84 -81q-81 0 -81 81q0 84 81 84zM348 923q111 111 273 111q336 0 336 -368v-539q0 -79 43 -107l-501 1l-9 159q12 -27 28 -41q28 -26 89 -40.5t134 -14.5h75q4 19 4 43v510q0 309 -228 309q-126 0 -210 -79q37 -85 15 -211
l-93 -529q-14 -80 26 -107h-219q44 23 58 107l93 529q25 147 -3 218.5t-118 71.5q-64 0 -96 -32l-44 68q62 26 146 26q131 0 201 -84v-1z" />
    <glyph glyph-name="uniFB40" unicode="&#x5e0;&#x5bc;" horiz-adv-x="641" 
d="M141 568q35 0 59 -24q25 -25 25 -60q0 -81 -84 -81q-81 0 -81 81q0 84 81 84zM361 127v510q0 204 -20 255.5t-119 51.5l-155 1l-9 159q25 -54 84 -75t167 -21q31 0 56 -5t44 -11.5t33 -24t23.5 -30t16 -42t10 -48.5t5 -61t1.5 -68v-81v-510q0 -79 43 -107h-501l-9 160
q12 -27 28 -42q28 -25 89 -40t134 -15h76q2 15 3 44z" />
    <glyph glyph-name="uniFB41" unicode="&#x5e1;&#x5bc;" horiz-adv-x="1113" 
d="M540 568q35 0 60 -24q24 -25 24 -60q0 -81 -84 -81q-81 0 -81 81q0 84 81 84zM222 518q0 -125 35 -225t112.5 -164t186.5 -64q181 0 268 160q67 123 67 291l-1 47q0 101 -37 189t-101.5 140t-139.5 52h-56q-78 0 -142 -34t-105.5 -92.5t-64 -135.5t-22.5 -164zM618 1008
q83 0 160.5 -34.5t135.5 -93t93.5 -140t35.5 -171.5l1 -47q-2 -255 -149 -399q-138 -135 -339 -135q-203 0 -339 135q-147 147 -147 395q0 119 36.5 204.5t113.5 162.5q35 35 75 60h-255l-9 159q12 -27 28 -41q60 -55 223 -55h336z" />
    <glyph glyph-name="uniFB43" unicode="&#x5e3;&#x5bc;" horiz-adv-x="1000" 
d="M547 568q35 0 59 -24q25 -25 25 -60q0 -81 -84 -81q-81 0 -81 81q0 84 81 84zM77 901q0 86 -39 107h459q360 0 360 -342l1 -912q0 -81 40 -106h-217q40 23 40 106l-1 883q0 308 -229 307l-276 1q-3 -19 -3 -44v-320q0 -25 3 -44q67 2 100.5 14.5t60.5 40.5q16 14 29 41
l-10 -159h-359q41 23 41 107v320z" />
    <glyph glyph-name="uniFB44" unicode="&#x5e4;&#x5bc;" horiz-adv-x="1000" 
d="M530 568q35 0 60 -24q24 -25 24 -60q0 -81 -84 -81q-81 0 -81 81q0 84 81 84zM77 901q0 86 -39 107h459q360 0 360 -342v-304q0 -342 -360 -342l-451 1l-9 159q12 -27 28 -41q60 -55 223 -55h215q113 0 165 75.5t52 231.5v246q0 308 -229 307l-276 1q-3 -19 -3 -44v-320
q0 -25 3 -44q66 2 93.5 14t56.5 41q16 14 29 41l-10 -159h-348q41 23 41 107v320z" />
    <glyph glyph-name="uniFB46" unicode="&#x5e6;&#x5bc;" horiz-adv-x="992" 
d="M233 568q35 0 59 -24q25 -25 25 -60q0 -81 -84 -81q-81 0 -81 81q0 84 81 84zM144 891q-66 86 -94 105q-10 7 -21 12h225q-14 -9 -14 -23q0 -22 49 -86l321 -419q20 -7 45 -7q155 0 154 274l-1 162q-1 87 -39 107h214q-41 -23 -41 -107v-143q0 -347 -285 -348l213 -281
q32 -42 64.5 -71t67.5 -46h-900l-8 165q24 -57 81 -78t167 -21h412q-11 18 -27 39z" />
    <glyph glyph-name="uniFB47" unicode="&#x5e7;&#x5bc;" horiz-adv-x="932" 
d="M450 568q35 0 60 -24q24 -25 24 -60q0 -81 -84 -81q-81 0 -81 81q0 84 81 84zM428 86q43 0 76 21t55 63t36 94.5t24 126.5l71 510q4 24 3 43l-653 1l-9 159q12 -27 28 -41q55 -55 223 -55h580q-44 -23 -56 -107l-75 -539q-26 -187 -88.5 -264.5t-195.5 -77.5
q-88 0 -146 -16v-249q0 -86 39 -107h-215q41 23 41 107v774q0 86 -39 107h215q-41 -23 -41 -107v-443h127z" />
    <glyph glyph-name="uniFB48" unicode="&#x5e8;&#x5bc;" horiz-adv-x="900" 
d="M333 568q35 0 59 -24q25 -25 25 -60q0 -81 -84 -81q-81 0 -81 81q0 84 81 84zM282 1008h115q175 0 267.5 -82t92.5 -260v-539q0 -79 43 -107h-221q41 28 41 107v510q0 308 -229 307l-351 1l-9 159q12 -27 28 -41q60 -55 223 -55z" />
    <glyph glyph-name="uniFB49" unicode="&#x5e9;&#x5bc;" horiz-adv-x="1151" 
d="M635 342q35 0 59 -24q25 -25 25 -60q0 -81 -84 -81q-81 0 -81 81q0 84 81 84zM647 903v-268q0 -166 -90.5 -254.5t-255.5 -93.5l17 -160q2 -24 7 -42h284q98 10 153.5 85t75.5 221l71 510q12 86 -24 107h196q-44 -23 -56 -107l-75 -539q-48 -342 -408 -342h-389
q38 24 30 107l-82 774q-9 86 -50 107h215q-39 -23 -30 -107l59 -559h1q40 0 78 17.5t69.5 50.5t51 86.5t19.5 119.5v287q0 86 -39 107h213q-41 -23 -41 -107z" />
    <glyph glyph-name="uniFB4A" unicode="&#x5ea;&#x5bc;" horiz-adv-x="1100" 
d="M608 568q35 0 60 -24q24 -25 24 -60q0 -81 -84 -81q-81 0 -81 81q0 84 81 84zM282 1008h315q175 0 267.5 -82t92.5 -260v-539q0 -79 43 -107h-221q41 28 41 107v510q0 308 -229 307h-176v-553v-81t-2 -68.5t-5 -61t-9.5 -48.5t-16 -42t-23.5 -29.5t-33 -24t-44 -11.5
t-56 -5h-196v63l109 1q99 0 119 51.5t20 255.5v554h-238l-9 159q12 -27 28 -41q60 -55 223 -55z" />
    <glyph glyph-name="uniFB4B" unicode="&#x5d5;&#x5b9;" horiz-adv-x="418" 
d="M206 1437q44 0 74 -31q31 -31 31 -74q0 -102 -105 -102q-102 0 -102 102q0 105 102 105zM318 1008q-41 -23 -41 -107v-774q0 -86 39 -107h-215q41 23 41 107v774q0 86 -39 107h215z" />
    <glyph glyph-name="uniFB4C" unicode="&#x5d1;&#x5bf;" horiz-adv-x="900" 
d="M146 1366h521v-90h-521v90zM282 1008h115q175 0 267.5 -82t92.5 -260v-539q0 -24 4 -44h133v-64l-864 1l-9 159q12 -26 28 -41q53 -53 223 -54l344 -1q4 20 4 44v510q0 308 -229 307l-351 1l-9 159q12 -27 28 -41q60 -55 223 -55z" />
    <glyph glyph-name="uniFB4D" unicode="&#x5db;&#x5bf;" horiz-adv-x="900" 
d="M125 1366h521v-90h-521v90zM397 20l-351 1l-9 159q12 -27 28 -41q60 -55 223 -55h115q113 0 165 75.5t52 231.5v246q0 308 -229 307l-351 1l-9 159q12 -27 28 -41q60 -55 223 -55h115q175 0 267.5 -82t92.5 -260v-304q0 -342 -360 -342z" />
    <glyph glyph-name="uniFB4E" unicode="&#x5e4;&#x5bf;" horiz-adv-x="1000" 
d="M146 1366h521v-90h-521v90zM77 901q0 86 -39 107h459q360 0 360 -342v-304q0 -342 -360 -342l-451 1l-9 159q12 -27 28 -41q60 -55 223 -55h215q113 0 165 75.5t52 231.5v246q0 308 -229 307l-276 1q-3 -19 -3 -44v-320q0 -25 3 -44q142 5 192 55q16 14 29 41l-10 -159
h-390q41 23 41 107v320z" />
    <glyph glyph-name="Rgrave" unicode="R&#x300;" horiz-adv-x="1313" 
d="M434 1874l280 -260l-47 -53l-334 213zM495 1399q-96 0 -139 -32.5t-43 -123.5v-465h184q473 0 473 311q0 310 -397 310h-78zM172 1321q0 67 -15.5 98t-55.5 45h511q210 0 334 -70q178 -101 178 -291q0 -207 -172 -309q-105 -58 -246 -67v-7q120 -43 232 -219
q48 -78 165 -303q62 -121 197 -121v-57h-293q-131 333 -270 531q-113 155 -279 155h-145v-549q0 -111 68 -137h-276q67 27 67 137v1164z" />
    <glyph glyph-name="rgrave" unicode="r&#x300;" horiz-adv-x="653" 
d="M196 1505l250 -254l-45 -45l-305 201zM271 780q19 46 49.5 90t71 83.5t94.5 63.5t110 24h55l-51 -86h-55q-74 0 -164 -103q-66 -78 -100 -190v-535q0 -84 37 -107h-218q44 27 44 107v772q0 97 -49 115q94 8 176 27v-261z" />
    <glyph glyph-name="glyph001" unicode="&#x410;&#x301;" horiz-adv-x="1323" 
d="M845 1876l98 -100l-331 -213l-47 53zM205 20h-223q73 38 113 139l529 1328h55l542 -1340q37 -91 115 -127h-286q34 18 34 49q0 47 -21 98l-148 359h-578l-141 -369q-23 -60 -23 -90t32 -47zM888 604l-262 657l-260 -657h522z" />
    <glyph glyph-name="glyph003" unicode="&#x418;&#x301;" horiz-adv-x="1397" 
d="M823 1874l97 -100l-332 -213l-47 53zM1226 157q0 -58 16.5 -91t52.5 -46h-276q62 23 62 137v880l-769 -686v-194q0 -58 16.5 -91t52.5 -46h-276q62 23 62 137v1166q0 63 -16.5 95.5t-54.5 45.5h291q-75 -28 -75 -141v-888l769 686v202q0 63 -16.5 95.5t-54.5 45.5h291
q-75 -28 -75 -141v-1166z" />
    <glyph glyph-name="glyph002" unicode="&#x415;&#x301;" horiz-adv-x="1178" 
d="M796 1874l99 -100l-332 -213l-47 53zM172 1325q0 64 -15.5 94.5t-55.5 44.5h1011l10 -158q-73 93 -330 93h-301q-102 0 -141 -29t-39 -125v-442h317q133 0 175 68v-210q-45 70 -175 70h-317v-490q0 -93 39.5 -123t140.5 -30h301q149 0 231 24t126 84l-12 -176h-1034
q36 12 52.5 45t16.5 92v1168z" />
    <glyph glyph-name="glyph004" unicode="&#x406;&#x301;" horiz-adv-x="496" 
d="M374 1874l100 -100l-333 -213l-47 53zM321 157q0 -58 16.5 -91t52.5 -46h-276q62 23 62 137v1166q0 63 -16.5 95.5t-55.5 45.5h292q-75 -28 -75 -141v-1166z" />
    <glyph glyph-name="glyph005" unicode="&#x41e;&#x301;" horiz-adv-x="1573" 
d="M880 1874l98 -100l-331 -213l-47 53zM787 1515q285 0 480 -195q221 -224 221 -571q0 -367 -223 -590q-193 -192 -478 -192q-284 0 -479 194q-223 223 -223 584q0 351 221 575q195 195 481 195zM787 1443q-250 0 -397 -205q-135 -187 -135 -489q0 -268 104 -449
q144 -254 428 -254q246 0 394 203q137 186 137 493q0 328 -154 519q-145 182 -377 182z" />
    <glyph glyph-name="glyph006" unicode="&#x423;&#x301;" horiz-adv-x="1149" 
d="M820 1874l97 -100l-332 -213l-47 53zM1033 1290q-203 -455 -349 -756.5t-208 -388.5q-102 -143 -254 -143q-81 0 -144 34v122q32 -90 146 -90q104 0 192 119q67 90 160 288l-483 889q-36 66 -110 100h267q-26 -16 -26 -41q0 -21 14 -47l414 -756l328 727q14 31 14 58
q0 37 -37 59h209q-32 -16 -55 -41q-34 -36 -78 -133z" />
    <glyph glyph-name="glyph007" unicode="&#x42b;&#x301;" horiz-adv-x="1591" 
d="M881 1874l97 -100l-332 -213l-47 53zM1436 157q0 -58 16.5 -91t52.5 -46h-276q62 23 62 137v1166q0 63 -16.5 95.5t-55.5 45.5h292q-75 -28 -75 -141v-1166zM383 1464q-70 -27 -70 -137v-502h258q573 0 573 -418q0 -140 -88 -238q-134 -149 -452 -149h-503q40 14 55.5 45
t15.5 98v1164q0 110 -67 137h278zM313 243q0 -91 43 -123t139 -32h64q425 0 425 331q0 328 -472 328h-199v-504z" />
    <glyph glyph-name="glyph008" unicode="&#x42d;&#x301;" horiz-adv-x="1459" 
d="M859 1874l98 -100l-331 -213l-47 53zM544 871q42 -68 175 -68h488q-10 218 -101 380q-145 258 -443 258q-121 0 -248 -40.5t-192 -112.5q-67 -76 -100 -177v265q7 -10 18 -10q16 0 58 29q80 57 216 88.5t259 31.5q285 0 479 -195q221 -222 221 -585q0 -176 -52.5 -301
t-166.5 -240q-194 -195 -479 -195q-123 0 -259 31.5t-216 88.5q-42 29 -58 29q-11 0 -18 -10v265q33 -101 100 -177q65 -72 192 -112.5t248 -40.5q298 0 443 258q96 171 100 400h-489q-130 0 -175 -70v210z" />
    <glyph glyph-name="glyph009" unicode="&#x42e;&#x301;" horiz-adv-x="2077" 
d="M1059 1874l99 -100l-332 -213l-49 53zM1291 1443q-250 0 -397 -205q-135 -187 -135 -489q0 -268 104 -449q144 -254 428 -254q246 0 394 203q137 186 137 493q0 328 -154 519q-145 182 -377 182zM384 1464q-37 -13 -54 -46t-17 -95v-514h278q18 308 219 511
q195 195 481 195q285 0 480 -195q221 -224 221 -571q0 -367 -223 -590q-193 -192 -478 -192q-284 0 -479 194q-217 217 -223 566h-276v-570q0 -59 15.5 -91.5t49.5 -45.5h-273q67 25 67 137v1166q0 61 -17 94.5t-55 46.5h284z" />
    <glyph glyph-name="glyph010" unicode="&#x42f;&#x301;" horiz-adv-x="1313" 
d="M833 1874l99 -100l-332 -213l-49 53zM1001 1243q0 91 -43.5 123.5t-138.5 32.5h-78q-397 0 -397 -310q0 -311 473 -311h184v465zM933 20q68 26 68 137v549h-145q-166 0 -279 -155q-139 -198 -270 -531h-293v57q135 0 197 121q117 225 165 303q112 176 232 219v7
q-141 9 -246 67q-172 102 -172 309q0 190 178 291q124 70 334 70h511q-40 -14 -55.5 -45t-15.5 -98v-1164q0 -110 66 -137h-275z" />
    <glyph glyph-name="glyph011" unicode="&#x420;&#x301;" horiz-adv-x="1229" 
d="M759 1874l99 -100l-332 -213l-49 53zM172 1321q0 67 -15.5 98t-55.5 45h503q318 0 452 -149q88 -98 88 -238q0 -418 -573 -418h-258v-502q0 -110 70 -137h-278q67 27 67 137v1164zM495 1396q-96 0 -139 -32t-43 -123v-504h199q472 0 472 328q0 331 -425 331h-64z" />
    <glyph glyph-name="glyph012" unicode="&#x430;&#x301;" horiz-adv-x="966" 
d="M645 1507l100 -98l-305 -201l-43 45zM725 276v281l-86 -4q-426 -21 -426 -275q0 -94 59 -154q58 -57 146 -57q120 0 215 74q64 52 92 135zM739 165q-125 -179 -348 -179q-135 0 -225 71q-96 78 -96 209q0 323 551 357l104 6v37q0 153 -65 230.5t-187 77.5q-82 0 -162 -37
t-109 -90l-22 103q55 37 144 65t160 28q181 0 275.5 -90.5t94.5 -268.5l1 -555q0 -88 41 -109h-148z" />
    <glyph glyph-name="glyph013" unicode="&#x435;&#x301;" horiz-adv-x="1055" 
d="M693 1507l100 -98l-305 -201l-45 45zM846 621q-6 176 -102 273q-83 80 -203 80q-143 0 -238 -125q-68 -89 -83 -228h626zM951 195q-132 -207 -389 -207q-214 0 -353 139q-139 143 -139 383q0 255 147 402q128 131 326 131q192 0 311 -123q131 -131 131 -340v-37h-772v-35
q0 -202 123 -328q103 -102 250 -102q220 0 340 213z" />
    <glyph glyph-name="glyph014" unicode="&#x438;&#x301;" horiz-adv-x="1086" 
d="M696 1505l100 -98l-305 -201l-45 45zM318 1008q-41 -23 -41 -107v-604l536 520v84q0 86 -39 107h215q-41 -23 -41 -107v-774q0 -86 39 -107h-215q41 23 41 107v610l-536 -520v-90q0 -86 39 -107h-215q41 23 41 107v774q0 86 -39 107h215z" />
    <glyph glyph-name="glyph016" unicode="&#x443;&#x301;" horiz-adv-x="962" 
d="M660 1505l101 -98l-306 -201l-45 45zM518 191l282 717q14 36 14 57q0 34 -31 53h190q-52 -29 -79 -94l-456 -1135q-72 -178 -213 -178q-34 0 -60 6l-11 101q0 -4 13.5 -9t26.5 -7l14 -3h50q68 0 116 125l80 215l-382 862q-40 91 -80 117h228q-25 -17 -25 -45
q0 -24 16 -61z" />
    <glyph glyph-name="glyph015" unicode="&#x43e;&#x301;" horiz-adv-x="1113" 
d="M712 1511l98 -98l-305 -201l-43 45zM556 1047q202 0 339 -137q148 -148 148 -387q0 -253 -148 -400q-138 -135 -339 -135q-203 0 -339 135q-147 147 -147 395q0 244 150 394q135 135 336 135zM556 976q-152 0 -244 -129q-90 -125 -90 -329q0 -215 98 -338
q90 -115 236 -115q181 0 268 160q67 126 67 291q0 217 -98 343q-92 117 -237 117z" />
    <glyph glyph-name="glyph017" unicode="&#x44b;&#x301;" horiz-adv-x="1295" 
d="M770 1505l100 -98l-305 -201l-45 45zM1198 1008q-41 -23 -41 -107v-774q0 -86 39 -107h-215q41 23 41 107v774q0 86 -39 107h215zM440 520l-181 1v-343q0 -92 125 -92h56q136 0 208.5 62.5t72.5 165.5q0 99 -71 152t-210 54zM101 20q28 16 28 80v832q0 54 -28 76h188
q-30 -20 -30 -76v-343l218 -3q150 -2 241 -45q68 -32 105 -100t37 -141q0 -72 -37 -137t-105 -98q-93 -45 -241 -45h-376z" />
    <glyph glyph-name="glyph018" unicode="&#x44d;&#x301;" horiz-adv-x="847" 
d="M485 1507l98 -98l-305 -201l-43 45zM777 513q0 -87 -22 -167t-64.5 -145t-100.5 -112.5t-134.5 -74t-163.5 -26.5q-157 0 -267 76l27 105q74 -112 233 -112q179 0 268 160q66 117 72 265h-140q-188 0 -240 -77v215q52 -77 240 -77h140q-6 154 -72 271q-89 160 -268 160
q-159 0 -233 -112l-27 105q110 76 267 76q109 0 200.5 -41.5t153.5 -112.5t96.5 -168.5t34.5 -207.5z" />
    <glyph glyph-name="glyph019" unicode="&#x44e;&#x301;" horiz-adv-x="1497" 
d="M831 1505l100 -98l-305 -201l-45 45zM940 976q-152 0 -244 -129q-90 -125 -90 -329q0 -215 98 -338q90 -115 236 -115q181 0 268 160q67 126 67 291q0 217 -98 343q-92 117 -237 117zM940 1047q202 0 339 -137q148 -148 148 -387q0 -253 -148 -400q-138 -135 -339 -135
q-203 0 -339 135q-136 136 -146 358h-179v-354q0 -86 39 -107h-215q41 23 41 107v774q0 86 -39 107h215q-41 -23 -41 -107v-352h179q9 223 149 363q135 135 336 135z" />
    <glyph glyph-name="glyph020" unicode="&#x44f;&#x301;" horiz-adv-x="1016" 
d="M734 1505l98 -98l-305 -201l-43 45zM758 547v303q0 92 -125 92h-56q-281 0 -281 -196q0 -199 337 -199h125zM157 758q0 63 31 112t85 78.5t121.5 44.5t145.5 15h376q-28 -16 -28 -80v-832q0 -54 28 -76h-188q30 20 30 76v383h-97q-115 0 -188 -88q-105 -133 -207 -371
h-236v55q109 10 154 95q61 115 113 194q59 91 145 129q-285 53 -285 265z" />
    <glyph glyph-name="glyph021" unicode="&#x456;&#x301;" horiz-adv-x="419" 
d="M359 1503l98 -96l-305 -201l-43 45zM145 899q0 97 -50 115q96 9 185 27v-914q0 -84 39 -107h-218q44 27 44 107v772z" />
    <glyph glyph-name="glyph022" unicode="&#x440;&#x301;" horiz-adv-x="1119" 
d="M712 1511l98 -98l-305 -201l-43 45zM595 84q76 0 136 35.5t97 96t56.5 138t19.5 164.5q0 234 -119 350q-84 84 -199 84q-148 0 -245 -137q-64 -88 -64 -160v-319q0 -97 121 -186q90 -66 197 -66zM273 842q126 196 340 196q174 0 293 -119q143 -143 143 -397
q0 -250 -147 -397q-122 -125 -291 -125q-217 0 -334 176v-422q0 -81 42 -106h-219q40 23 40 106v1143q0 101 -47 117q98 8 180 27v-199z" />
    <glyph glyph-name="glyph023" unicode="&#x404;&#x301;" horiz-adv-x="1452" 
d="M940 1874l98 -100l-331 -213l-47 53zM910 661q-45 70 -175 70h-489q4 -229 100 -400q145 -258 443 -258q121 0 248 40.5t192 112.5q67 76 100 177v-265q-7 10 -18 10q-16 0 -58 -29q-80 -57 -216 -88.5t-259 -31.5q-285 0 -479 195q-114 115 -166.5 240t-52.5 301
q0 363 221 585q194 195 479 195q123 0 259 -31.5t216 -88.5q42 -29 58 -29q11 0 18 10v-265q-33 101 -100 177q-65 72 -192 112.5t-248 40.5q-298 0 -443 -258q-91 -162 -101 -380h488q133 0 175 68v-210z" />
    <glyph glyph-name="glyph024" unicode="&#x407;&#x301;" horiz-adv-x="496" 
d="M407 2098l98 -96l-305 -201l-43 45zM33 1803q98 0 98 -96q0 -99 -96 -99q-99 0 -99 96q0 99 97 99zM466 1801q97 0 97 -97q0 -96 -97 -96q-96 0 -96 96q0 97 96 97zM321 157q0 -58 16.5 -91t52.5 -46h-276q62 23 62 137v1166q0 63 -16.5 95.5t-55.5 45.5h292
q-75 -28 -75 -141v-1166z" />
    <glyph glyph-name="glyph025" unicode="&#x454;&#x301;" horiz-adv-x="847" 
d="M699 1507l98 -98l-305 -201l-43 45zM602 405q-52 77 -240 77h-139q6 -148 71 -265q89 -160 268 -160q159 0 233 112l27 -105q-109 -76 -267 -76q-143 0 -254.5 70t-171 189.5t-59.5 265.5q0 148 59 268t170.5 191t255.5 71q158 0 267 -76l-27 -105q-74 112 -233 112
q-179 0 -268 -160q-65 -117 -71 -271h139q188 0 240 77v-215z" />
    <glyph glyph-name="glyph026" unicode="&#x457;&#x301;" horiz-adv-x="419" 
d="M359 1703l98 -96l-305 -201l-43 45zM25 1435q92 0 92 -90q0 -92 -90 -92q-92 0 -92 90q0 92 90 92zM385 1435q94 0 94 -90q0 -92 -90 -92q-92 0 -92 90q0 92 88 92zM145 899q0 97 -50 115q96 9 185 27v-914q0 -84 39 -107h-218q44 27 44 107v772z" />
    <glyph glyph-name="glyph028" unicode="&#x41e;&#x300;" horiz-adv-x="1573" 
d="M695 1874l279 -260l-45 -53l-334 213zM787 1515q285 0 480 -195q221 -224 221 -571q0 -367 -223 -590q-193 -192 -478 -192q-284 0 -479 194q-223 223 -223 584q0 351 221 575q195 195 481 195zM787 1443q-250 0 -397 -205q-135 -187 -135 -489q0 -268 104 -449
q144 -254 428 -254q246 0 394 203q137 186 137 493q0 328 -154 519q-145 182 -377 182z" />
    <glyph glyph-name="glyph029" unicode="&#x420;&#x300;" horiz-adv-x="1229" 
d="M391 1874l280 -260l-47 -53l-334 213zM172 1321q0 67 -15.5 98t-55.5 45h503q318 0 452 -149q88 -98 88 -238q0 -418 -573 -418h-258v-502q0 -110 70 -137h-278q67 27 67 137v1164zM495 1396q-96 0 -139 -32t-43 -123v-504h199q472 0 472 328q0 331 -425 331h-64z" />
    <glyph glyph-name="glyph030" unicode="&#x423;&#x300;" horiz-adv-x="1149" 
d="M432 1874l280 -260l-47 -53l-334 213zM1033 1290q-203 -455 -349 -756.5t-208 -388.5q-102 -143 -254 -143q-81 0 -144 34v122q32 -90 146 -90q104 0 192 119q67 90 160 288l-483 889q-36 66 -110 100h267q-26 -16 -26 -41q0 -21 14 -47l414 -756l328 727q14 31 14 58
q0 37 -37 59h209q-32 -16 -55 -41q-34 -36 -78 -133z" />
    <glyph glyph-name="glyph031" unicode="&#x42a;&#x300;" horiz-adv-x="1499" 
d="M391 1874l280 -260l-47 -53l-334 213zM583 243q0 -91 43 -123t139 -32h64q425 0 425 331q0 328 -472 328h-199v-504zM653 1464q-36 -15 -53 -48t-17 -89v-502h258q573 0 573 -418q0 -140 -88 -238q-134 -149 -452 -149h-503q40 14 55.5 45t15.5 98v1164q0 40 -9 69h-142
q-186 0 -260 -85l12 153h610z" />
    <glyph glyph-name="glyph032" unicode="&#x42e;&#x300;" horiz-adv-x="2077" 
d="M806 1874l280 -260l-47 -53l-334 213zM1291 1443q-250 0 -397 -205q-135 -187 -135 -489q0 -268 104 -449q144 -254 428 -254q246 0 394 203q137 186 137 493q0 328 -154 519q-145 182 -377 182zM384 1464q-37 -13 -54 -46t-17 -95v-514h278q18 308 219 511
q195 195 481 195q285 0 480 -195q221 -224 221 -571q0 -367 -223 -590q-193 -192 -478 -192q-284 0 -479 194q-217 217 -223 566h-276v-570q0 -59 15.5 -91.5t49.5 -45.5h-273q67 25 67 137v1166q0 61 -17 94.5t-55 46.5h284z" />
    <glyph glyph-name="glyph033" unicode="&#x42f;&#x300;" horiz-adv-x="1313" 
d="M669 1874l280 -260l-47 -53l-334 213zM1001 1243q0 91 -43.5 123.5t-138.5 32.5h-78q-397 0 -397 -310q0 -311 473 -311h184v465zM933 20q68 26 68 137v549h-145q-166 0 -279 -155q-139 -198 -270 -531h-293v57q135 0 197 121q117 225 165 303q112 176 232 219v7
q-141 9 -246 67q-172 102 -172 309q0 190 178 291q124 70 334 70h511q-40 -14 -55.5 -45t-15.5 -98v-1164q0 -110 66 -137h-275z" />
    <glyph glyph-name="glyph034" unicode="&#x430;&#x300;" horiz-adv-x="966" 
d="M400 1505l250 -254l-46 -45l-305 201zM725 276v281l-86 -4q-426 -21 -426 -275q0 -94 59 -154q58 -57 146 -57q120 0 215 74q64 52 92 135zM739 165q-125 -179 -348 -179q-135 0 -225 71q-96 78 -96 209q0 323 551 357l104 6v37q0 153 -65 230.5t-187 77.5
q-82 0 -162 -37t-109 -90l-22 103q55 37 144 65t160 28q181 0 275.5 -90.5t94.5 -268.5l1 -555q0 -88 41 -109h-148z" />
    <glyph glyph-name="glyph027" unicode="&#x410;&#x300;" horiz-adv-x="1323" 
d="M425 1876l279 -260l-45 -53l-334 213zM205 20h-223q73 38 113 139l529 1328h55l542 -1340q37 -91 115 -127h-286q34 18 34 49q0 47 -21 98l-148 359h-578l-141 -369q-23 -60 -23 -90t32 -47zM888 604l-262 657l-260 -657h522z" />
    <glyph glyph-name="glyph035" unicode="&#x43e;&#x300;" horiz-adv-x="1113" 
d="M415 1511l250 -254l-45 -45l-305 201zM556 1047q202 0 339 -137q148 -148 148 -387q0 -253 -148 -400q-138 -135 -339 -135q-203 0 -339 135q-147 147 -147 395q0 244 150 394q135 135 336 135zM556 976q-152 0 -244 -129q-90 -125 -90 -329q0 -215 98 -338
q90 -115 236 -115q181 0 268 160q67 126 67 291q0 217 -98 343q-92 117 -237 117z" />
    <glyph glyph-name="glyph037" unicode="&#x443;&#x300;" horiz-adv-x="962" 
d="M366 1505l250 -254l-43 -45l-306 201zM518 191l282 717q14 36 14 57q0 34 -31 53h190q-52 -29 -79 -94l-456 -1135q-72 -178 -213 -178q-34 0 -60 6l-11 101q0 -4 13.5 -9t26.5 -7l14 -3h50q68 0 116 125l80 215l-382 862q-40 91 -80 117h228q-25 -17 -25 -45
q0 -24 16 -61z" />
    <glyph glyph-name="glyph038" unicode="&#x44a;&#x300;" horiz-adv-x="1102" 
d="M366 1505l250 -254l-43 -45l-306 201zM612 520l-181 1v-343q0 -92 125 -92h56q136 0 208.5 62.5t72.5 165.5q0 99 -71 152t-210 54zM301 944q-121 0 -182.5 -19t-87.5 -76l9 159h421q-30 -20 -30 -76v-343l218 -3q150 -2 241 -45q68 -32 105 -100t37 -141q0 -72 -37 -137
t-105 -98q-93 -45 -241 -45h-376q28 16 28 80v832v12z" />
    <glyph glyph-name="glyph039" unicode="&#x44e;&#x300;" horiz-adv-x="1497" 
d="M566 1505l250 -254l-43 -45l-306 201zM940 976q-152 0 -244 -129q-90 -125 -90 -329q0 -215 98 -338q90 -115 236 -115q181 0 268 160q67 126 67 291q0 217 -98 343q-92 117 -237 117zM940 1047q202 0 339 -137q148 -148 148 -387q0 -253 -148 -400q-138 -135 -339 -135
q-203 0 -339 135q-136 136 -146 358h-179v-354q0 -86 39 -107h-215q41 23 41 107v774q0 86 -39 107h215q-41 -23 -41 -107v-352h179q9 223 149 363q135 135 336 135z" />
    <glyph glyph-name="glyph040" unicode="&#x44f;&#x300;" horiz-adv-x="1016" 
d="M416 1505l250 -254l-43 -45l-306 201zM758 547v303q0 92 -125 92h-56q-281 0 -281 -196q0 -199 337 -199h125zM157 758q0 63 31 112t85 78.5t121.5 44.5t145.5 15h376q-28 -16 -28 -80v-832q0 -54 28 -76h-188q30 20 30 76v383h-97q-115 0 -188 -88q-105 -133 -207 -371
h-236v55q109 10 154 95q61 115 113 194q59 91 145 129q-285 53 -285 265z" />
    <glyph glyph-name="glyph036" unicode="&#x440;&#x300;" horiz-adv-x="1119" 
d="M472 1502l250 -254l-45 -45l-305 201zM595 84q76 0 136 35.5t97 96t56.5 138t19.5 164.5q0 234 -119 350q-84 84 -199 84q-148 0 -245 -137q-64 -88 -64 -160v-319q0 -97 121 -186q90 -66 197 -66zM273 842q126 196 340 196q174 0 293 -119q143 -143 143 -397
q0 -250 -147 -397q-122 -125 -291 -125q-217 0 -334 176v-422q0 -81 42 -106h-219q40 23 40 106v1143q0 101 -47 117q98 8 180 27v-199z" />
    <glyph glyph-name="glyph041" unicode="&#x410;&#x30f;" horiz-adv-x="1323" 
d="M385 1862l199 -263l-49 -34l-254 235zM684 1860l148 -269l-58 -26l-203 239zM205 20h-223q73 38 113 139l529 1328h55l542 -1340q37 -91 115 -127h-286q34 18 34 49q0 47 -21 98l-148 359h-578l-141 -369q-23 -60 -23 -90t32 -47zM888 604l-262 657l-260 -657h522z" />
    <glyph glyph-name="glyph042" unicode="&#x430;&#x30f;" horiz-adv-x="966" 
d="M302 1507l198 -262l-49 -33l-254 234zM603 1505l145 -268l-55 -25l-203 238zM725 276v281l-86 -4q-426 -21 -426 -275q0 -94 59 -154q58 -57 146 -57q120 0 215 74q64 52 92 135zM739 165q-125 -179 -348 -179q-135 0 -225 71q-96 78 -96 209q0 323 551 357l104 6v37
q0 153 -65 230.5t-187 77.5q-82 0 -162 -37t-109 -90l-22 103q55 37 144 65t160 28q181 0 275.5 -90.5t94.5 -268.5l1 -555q0 -88 41 -109h-148z" />
    <glyph glyph-name="glyph043" unicode="&#x410;&#x311;" horiz-adv-x="1323" 
d="M378 1610q3 112 90 172q71 49 182 49q116 0 191 -53q81 -60 84 -168h-62q-21 123 -213 123q-187 0 -209 -123h-63zM205 20h-223q73 38 113 139l529 1328h55l542 -1340q37 -91 115 -127h-286q34 18 34 49q0 47 -21 98l-148 359h-578l-141 -369q-23 -60 -23 -90t32 -47z
M888 604l-262 657l-260 -657h522z" />
    <glyph glyph-name="glyph044" unicode="&#x430;&#x311;" horiz-adv-x="966" 
d="M253 1239q3 211 256 211q251 0 254 -211h-58q-21 123 -196 123t-197 -123h-59zM725 276v281l-86 -4q-426 -21 -426 -275q0 -94 59 -154q58 -57 146 -57q120 0 215 74q64 52 92 135zM739 165q-125 -179 -348 -179q-135 0 -225 71q-96 78 -96 209q0 323 551 357l104 6v37
q0 153 -65 230.5t-187 77.5q-82 0 -162 -37t-109 -90l-22 103q55 37 144 65t160 28q181 0 275.5 -90.5t94.5 -268.5l1 -555q0 -88 41 -109h-148z" />
    <glyph glyph-name="glyph045" unicode="&#x415;&#x30f;" horiz-adv-x="1178" 
d="M418 1862l198 -263l-49 -34l-254 235zM719 1860l145 -269l-57 -26l-203 239zM172 1325q0 64 -15.5 94.5t-55.5 44.5h1011l10 -158q-73 93 -330 93h-301q-102 0 -141 -29t-39 -125v-442h317q133 0 175 68v-210q-45 70 -175 70h-317v-490q0 -93 39.5 -123t140.5 -30h301
q149 0 231 24t126 84l-12 -176h-1034q36 12 52.5 45t16.5 92v1168z" />
    <glyph glyph-name="glyph046" unicode="&#x435;&#x30f;" horiz-adv-x="1055" 
d="M337 1507l198 -262l-49 -33l-254 234zM638 1505l145 -268l-55 -25l-203 238zM846 621q-6 176 -102 273q-83 80 -203 80q-143 0 -238 -125q-68 -89 -83 -228h626zM951 195q-132 -207 -389 -207q-214 0 -353 139q-139 143 -139 383q0 255 147 402q128 131 326 131
q192 0 311 -123q131 -131 131 -340v-37h-772v-35q0 -202 123 -328q103 -102 250 -102q220 0 340 213z" />
    <glyph glyph-name="glyph047" unicode="&#x415;&#x311;" horiz-adv-x="1178" 
d="M343 1610q3 112 90 172q71 49 182 49q116 0 191 -53q81 -60 84 -168h-62q-21 123 -213 123q-187 0 -209 -123h-63zM172 1325q0 64 -15.5 94.5t-55.5 44.5h1011l10 -158q-73 93 -330 93h-301q-102 0 -141 -29t-39 -125v-442h317q133 0 175 68v-210q-45 70 -175 70h-317
v-490q0 -93 39.5 -123t140.5 -30h301q149 0 231 24t126 84l-12 -176h-1034q36 12 52.5 45t16.5 92v1168z" />
    <glyph glyph-name="glyph048" unicode="&#x435;&#x311;" horiz-adv-x="1055" 
d="M283 1239q3 211 256 211q251 0 254 -211h-58q-21 123 -196 123t-197 -123h-59zM846 621q-6 176 -102 273q-83 80 -203 80q-143 0 -238 -125q-68 -89 -83 -228h626zM951 195q-132 -207 -389 -207q-214 0 -353 139q-139 143 -139 383q0 255 147 402q128 131 326 131
q192 0 311 -123q131 -131 131 -340v-37h-772v-35q0 -202 123 -328q103 -102 250 -102q220 0 340 213z" />
    <glyph glyph-name="glyph049" unicode="&#x418;&#x30f;" horiz-adv-x="1397" 
d="M492 1862l198 -263l-49 -34l-254 235zM793 1860l145 -269l-57 -26l-203 239zM1226 157q0 -58 16.5 -91t52.5 -46h-276q62 23 62 137v880l-769 -686v-194q0 -58 16.5 -91t52.5 -46h-276q62 23 62 137v1166q0 63 -16.5 95.5t-54.5 45.5h291q-75 -28 -75 -141v-888l769 686
v202q0 63 -16.5 95.5t-54.5 45.5h291q-75 -28 -75 -141v-1166z" />
    <glyph glyph-name="glyph050" unicode="&#x438;&#x30f;" horiz-adv-x="1086" 
d="M313 1507l196 -262l-49 -33l-254 234zM614 1505l145 -268l-57 -25l-203 238zM318 1008q-41 -23 -41 -107v-604l536 520v84q0 86 -39 107h215q-41 -23 -41 -107v-774q0 -86 39 -107h-215q41 23 41 107v610l-536 -520v-90q0 -86 39 -107h-215q41 23 41 107v774
q0 86 -39 107h215z" />
    <glyph glyph-name="glyph051" unicode="&#x418;&#x311;" horiz-adv-x="1397" 
d="M422 1610q3 109 88 170q69 51 182 51q115 0 191 -53q80 -60 83 -168h-61q-25 123 -213 123q-185 0 -207 -123h-63zM1226 157q0 -58 16.5 -91t52.5 -46h-276q62 23 62 137v880l-769 -686v-194q0 -58 16.5 -91t52.5 -46h-276q62 23 62 137v1166q0 63 -16.5 95.5t-54.5 45.5
h291q-75 -28 -75 -141v-888l769 686v202q0 63 -16.5 95.5t-54.5 45.5h291q-75 -28 -75 -141v-1166z" />
    <glyph glyph-name="glyph052" unicode="&#x438;&#x311;" horiz-adv-x="1086" 
d="M307 1117q4 211 254 211q253 0 256 -211h-59q-21 123 -197 123q-173 0 -194 -123h-60zM318 1008q-41 -23 -41 -107v-604l536 520v84q0 86 -39 107h215q-41 -23 -41 -107v-774q0 -86 39 -107h-215q41 23 41 107v610l-536 -520v-90q0 -86 39 -107h-215q41 23 41 107v774
q0 86 -39 107h215z" />
    <glyph glyph-name="glyph053" unicode="&#x41e;&#x30f;" horiz-adv-x="1573" 
d="M518 1862l199 -263l-49 -34l-254 235zM817 1860l148 -269l-58 -26l-203 239zM787 1515q285 0 480 -195q221 -224 221 -571q0 -367 -223 -590q-193 -192 -478 -192q-284 0 -479 194q-223 223 -223 584q0 351 221 575q195 195 481 195zM787 1443q-250 0 -397 -205
q-135 -187 -135 -489q0 -268 104 -449q144 -254 428 -254q246 0 394 203q137 186 137 493q0 328 -154 519q-145 182 -377 182z" />
    <glyph glyph-name="glyph054" unicode="&#x43e;&#x30f;" horiz-adv-x="1113" 
d="M337 1507l198 -262l-49 -33l-254 234zM638 1505l145 -268l-55 -25l-203 238zM556 1047q202 0 339 -137q148 -148 148 -387q0 -253 -148 -400q-138 -135 -339 -135q-203 0 -339 135q-147 147 -147 395q0 244 150 394q135 135 336 135zM556 976q-152 0 -244 -129
q-90 -125 -90 -329q0 -215 98 -338q90 -115 236 -115q181 0 268 160q67 126 67 291q0 217 -98 343q-92 117 -237 117z" />
    <glyph glyph-name="glyph055" unicode="&#x41e;&#x311;" horiz-adv-x="1573" 
d="M512 1608q3 112 90 172q71 49 182 49q116 0 191 -53q81 -60 84 -168h-62q-21 123 -213 123q-187 0 -209 -123h-63zM787 1515q285 0 480 -195q221 -224 221 -571q0 -367 -223 -590q-193 -192 -478 -192q-284 0 -479 194q-223 223 -223 584q0 351 221 575q195 195 481 195z
M787 1443q-250 0 -397 -205q-135 -187 -135 -489q0 -268 104 -449q144 -254 428 -254q246 0 394 203q137 186 137 493q0 328 -154 519q-145 182 -377 182z" />
    <glyph glyph-name="glyph056" unicode="&#x43e;&#x311;" horiz-adv-x="1113" 
d="M303 1237q3 211 256 211q251 0 254 -211h-58q-21 123 -196 123t-197 -123h-59zM556 1047q202 0 339 -137q148 -148 148 -387q0 -253 -148 -400q-138 -135 -339 -135q-203 0 -339 135q-147 147 -147 395q0 244 150 394q135 135 336 135zM556 976q-152 0 -244 -129
q-90 -125 -90 -329q0 -215 98 -338q90 -115 236 -115q181 0 268 160q67 126 67 291q0 217 -98 343q-92 117 -237 117z" />
    <glyph glyph-name="glyph057" unicode="&#x420;&#x30f;" horiz-adv-x="1229" 
d="M405 1862l198 -263l-49 -34l-254 235zM706 1860l145 -269l-57 -26l-203 239zM172 1321q0 67 -15.5 98t-55.5 45h503q318 0 452 -149q88 -98 88 -238q0 -418 -573 -418h-258v-502q0 -110 70 -137h-278q67 27 67 137v1164zM495 1396q-96 0 -139 -32t-43 -123v-504h199
q472 0 472 328q0 331 -425 331h-64z" />
    <glyph glyph-name="glyph058" unicode="&#x440;&#x30f;" horiz-adv-x="1119" 
d="M337 1507l198 -262l-49 -33l-254 234zM638 1505l145 -268l-55 -25l-203 238zM595 84q76 0 136 35.5t97 96t56.5 138t19.5 164.5q0 234 -119 350q-84 84 -199 84q-148 0 -245 -137q-64 -88 -64 -160v-319q0 -97 121 -186q90 -66 197 -66zM273 842q126 196 340 196
q174 0 293 -119q143 -143 143 -397q0 -250 -147 -397q-122 -125 -291 -125q-217 0 -334 176v-422q0 -81 42 -106h-219q40 23 40 106v1143q0 101 -47 117q98 8 180 27v-199z" />
    <glyph glyph-name="glyph059" unicode="&#x420;&#x311;" horiz-adv-x="1229" 
d="M343 1610q3 112 90 172q71 49 182 49q116 0 191 -53q81 -60 84 -168h-62q-21 123 -213 123q-187 0 -209 -123h-63zM172 1321q0 67 -15.5 98t-55.5 45h503q318 0 452 -149q88 -98 88 -238q0 -418 -573 -418h-258v-502q0 -110 70 -137h-278q67 27 67 137v1164zM495 1396
q-96 0 -139 -32t-43 -123v-504h199q472 0 472 328q0 331 -425 331h-64z" />
    <glyph glyph-name="glyph060" unicode="&#x440;&#x311;" horiz-adv-x="1119" 
d="M303 1237q3 211 256 211q251 0 254 -211h-58q-21 123 -196 123t-197 -123h-59zM595 84q76 0 136 35.5t97 96t56.5 138t19.5 164.5q0 234 -119 350q-84 84 -199 84q-148 0 -245 -137q-64 -88 -64 -160v-319q0 -97 121 -186q90 -66 197 -66zM273 842q126 196 340 196
q174 0 293 -119q143 -143 143 -397q0 -250 -147 -397q-122 -125 -291 -125q-217 0 -334 176v-422q0 -81 42 -106h-219q40 23 40 106v1143q0 101 -47 117q98 8 180 27v-199z" />
    <glyph glyph-name="glyph061" unicode="&#x423;&#x30f;" horiz-adv-x="1149" 
d="M383 1862l198 -263l-49 -34l-254 235zM684 1860l145 -269l-57 -26l-203 239zM1033 1290q-203 -455 -349 -756.5t-208 -388.5q-102 -143 -254 -143q-81 0 -144 34v122q32 -90 146 -90q104 0 192 119q67 90 160 288l-483 889q-36 66 -110 100h267q-26 -16 -26 -41
q0 -21 14 -47l414 -756l328 727q14 31 14 58q0 37 -37 59h209q-32 -16 -55 -41q-34 -36 -78 -133z" />
    <glyph glyph-name="glyph063" unicode="&#x443;&#x30f;" horiz-adv-x="962" 
d="M286 1507l196 -262l-49 -33l-254 234zM587 1505l145 -268l-57 -25l-203 238zM518 191l282 717q14 36 14 57q0 34 -31 53h190q-52 -29 -79 -94l-456 -1135q-72 -178 -213 -178q-34 0 -60 6l-11 101q0 -4 13.5 -9t26.5 -7l14 -3h50q68 0 116 125l80 215l-382 862
q-40 91 -80 117h228q-25 -17 -25 -45q0 -24 16 -61z" />
    <glyph glyph-name="glyph064" unicode="&#x423;&#x311;" horiz-adv-x="1149" 
d="M348 1610q3 112 90 172q71 49 182 49q116 0 191 -53q81 -60 84 -168h-62q-21 123 -213 123q-187 0 -209 -123h-63zM1033 1290q-203 -455 -349 -756.5t-208 -388.5q-102 -143 -254 -143q-81 0 -144 34v122q32 -90 146 -90q104 0 192 119q67 90 160 288l-483 889
q-36 66 -110 100h267q-26 -16 -26 -41q0 -21 14 -47l414 -756l328 727q14 31 14 58q0 37 -37 59h209q-32 -16 -55 -41q-34 -36 -78 -133z" />
    <glyph glyph-name="glyph065" unicode="&#x443;&#x311;" horiz-adv-x="962" 
d="M246 1127q4 211 254 211q253 0 256 -211h-59q-21 123 -197 123q-173 0 -194 -123h-60zM518 191l282 717q14 36 14 57q0 34 -31 53h190q-52 -29 -79 -94l-456 -1135q-72 -178 -213 -178q-34 0 -60 6l-11 101q0 -4 13.5 -9t26.5 -7l14 -3h50q68 0 116 125l80 215l-382 862
q-40 91 -80 117h228q-25 -17 -25 -45q0 -24 16 -61z" />
    <glyph glyph-name="glyph066" unicode="&#x421;&#x301;" horiz-adv-x="1452" 
d="M945 1874l98 -100l-331 -213l-47 53zM251 751q0 -242 100 -420q145 -258 443 -258q121 0 248 40.5t192 112.5q67 76 100 177v-265q-7 10 -18 10q-16 0 -58 -29q-80 -57 -216 -88.5t-259 -31.5q-285 0 -479 195q-114 115 -166.5 240t-52.5 301q0 363 221 585
q194 195 479 195q123 0 259 -31.5t216 -88.5q42 -29 58 -29q11 0 18 10v-265q-33 101 -100 177q-65 72 -192 112.5t-248 40.5q-298 0 -443 -258q-102 -181 -102 -432z" />
    <glyph glyph-name="glyph067" unicode="&#x441;&#x301;" horiz-adv-x="847" 
d="M699 1507l98 -98l-305 -201l-43 45zM222 513q0 -167 72 -296q89 -160 268 -160q159 0 233 112l27 -105q-109 -76 -267 -76q-204 0 -335 135q-150 155 -150 390q0 240 150 395q131 135 335 135q158 0 267 -76l-27 -105q-74 112 -233 112q-179 0 -268 -160
q-72 -129 -72 -301z" />
    <glyph glyph-name="glyph068" unicode="&#x417;&#x301;" horiz-adv-x="1249" 
d="M700 1874l98 -100l-331 -213l-47 53zM491 -16q-221 0 -395 120q-42 29 -58 29q-11 0 -18 -10v259q33 -95 100 -169q141 -155 360 -155q241 0 383.5 94.5t142.5 254.5q0 330 -512 330h-215v74h219q430 0 430 299q0 150 -102.5 240.5t-296.5 90.5q-223 0 -360 -155
q-67 -74 -100 -169v259q7 -10 18 -10q16 0 58 29q174 120 395 120q229 0 362 -66q86 -42 133 -135.5t47 -195.5q0 -271 -353 -336v-6q435 -74 435 -361q0 -197 -184 -314t-489 -117z" />
    <glyph glyph-name="glyph069" unicode="&#x437;&#x301;" horiz-adv-x="843" 
d="M501 1507l98 -98l-305 -201l-43 45zM632 313q-1 81 -84.5 148.5t-193.5 67.5h-158v59h158q44 0 82.5 8t75 26.5t58 54.5t21.5 87q0 89 -70 144q-83 66 -186 66q-60 0 -106.5 -21t-92.5 -67q-35 -35 -55 -86v167h2q17 0 55 23q88 53 219 53q367 0 367 -254
q0 -108 -98 -185q-43 -37 -105 -53q252 -71 252 -266q0 -149 -133 -230q-114 -67 -285 -67q-115 0 -245 71q-44 26 -68 26q-7 0 -12 -3v208q22 -75 71 -124q103 -103 250 -103q124 0 202.5 69t78.5 181z" />
    <glyph glyph-name="Qdotaccent" unicode="Q&#x307;" horiz-adv-x="1573" 
d="M785 1802q98 0 98 -97q0 -96 -96 -96q-97 0 -97 96q0 97 95 97zM1082 -175q101 -181 236 -181q78 0 149 72l35 -43q-99 -127 -231 -127q-172 0 -295 221q-8 14 -23.5 43t-22 40t-20 32.5t-21 30t-20.5 22t-24.5 18.5t-26 9.5t-31.5 4.5q-284 0 -479 194
q-223 223 -223 584q0 351 221 575q195 195 481 195q285 0 480 -195q221 -224 221 -571q0 -367 -223 -590q-134 -133 -311 -174q69 -55 128 -160zM1318 742q0 143 -34 268.5t-98 222.5t-167 153.5t-232 56.5q-128 0 -230.5 -55.5t-167.5 -151t-99.5 -220.5t-34.5 -267
q0 -268 104 -449q144 -254 428 -254q246 0 394 203q137 186 137 493z" />
    <glyph glyph-name="qdotaccent" unicode="q&#x307;" horiz-adv-x="1122" 
d="M541 1410q101 0 101 -100q0 -101 -101 -101q-100 0 -100 98q0 103 100 103zM806 -352q40 23 40 106v453q-120 -209 -340 -209q-172 0 -291 118q-145 146 -145 396q0 248 150 397q126 129 302 129q216 0 336 -169l56 155h69v-1270q0 -81 40 -106h-217zM844 389v312
q0 102 -119 188q-85 63 -192 63q-146 0 -232 -123q-86 -120 -86 -309q0 -204 96 -325q88 -113 226 -113q144 0 239 133q68 92 68 174z" />
    <glyph glyph-name="glyph072" unicode="&#xc7;&#x307;" horiz-adv-x="1452" 
d="M786 1803q99 0 99 -96q0 -99 -99 -99q-96 0 -96 96q0 99 96 99zM251 751q0 -242 100 -420q145 -258 443 -258q121 0 248 40.5t192 112.5q67 76 100 177v-265q-7 10 -18 10q-16 0 -58 -29q-77 -54 -205 -85.5t-249 -34.5l-42 -96q185 -2 185 -133q0 -158 -320 -161l-17 60
q231 3 231 103q0 79 -171 81v28l55 120q-247 18 -421 193q-114 115 -166.5 240t-52.5 301q0 363 221 585q194 195 479 195q123 0 259 -31.5t216 -88.5q42 -29 58 -29q11 0 18 10v-265q-33 101 -100 177q-65 72 -192 112.5t-248 40.5q-298 0 -443 -258q-102 -181 -102 -432z
" />
    <glyph glyph-name="glyph073" unicode="&#xe7;&#x307;" horiz-adv-x="847" 
d="M542 1410q101 0 101 -100q0 -101 -101 -101q-100 0 -100 98q0 103 100 103zM222 513q0 -167 72 -296q89 -160 268 -160q159 0 233 112l27 -105q-109 -76 -267 -76l-37 -85q185 -2 185 -133q0 -158 -320 -161l-17 60q231 3 231 103q0 79 -171 81v28l52 112
q-153 22 -258 130q-150 155 -150 390q0 240 150 395q131 135 335 135q158 0 267 -76l-27 -105q-74 112 -233 112q-179 0 -268 -160q-72 -129 -72 -301z" />
    <glyph glyph-name="glyph070" unicode="E&#x307;&#x304;" horiz-adv-x="1178" 
d="M652 1802q98 0 98 -97q0 -96 -96 -96q-97 0 -97 96q0 97 95 97zM401 2002h518v-90h-518v90zM172 1325q0 64 -15.5 94.5t-55.5 44.5h1011l10 -158q-73 93 -330 93h-301q-102 0 -141 -29t-39 -125v-442h317q133 0 175 68v-210q-45 70 -175 70h-317v-490q0 -93 39.5 -123
t140.5 -30h301q149 0 231 24t126 84l-12 -176h-1034q36 12 52.5 45t16.5 92v1168z" />
    <glyph glyph-name="glyph071" unicode="e&#x307;&#x304;" horiz-adv-x="1055" 
d="M541 1410q94 0 94 -92t-92 -92t-92 92t90 92zM283 1613h518v-90h-518v90zM846 621q-6 176 -102 273q-83 80 -203 80q-143 0 -238 -125q-68 -89 -83 -228h626zM951 195q-132 -207 -389 -207q-214 0 -353 139q-139 143 -139 383q0 255 147 402q128 131 326 131
q192 0 311 -123q131 -131 131 -340v-37h-772v-35q0 -202 123 -328q103 -102 250 -102q220 0 340 213z" />
    <glyph glyph-name="glyph074" unicode="&#x410;&#x304;" horiz-adv-x="1323" 
d="M399 1771h516v-92h-516v92zM205 20h-223q73 38 113 139l529 1328h55l542 -1340q37 -91 115 -127h-286q34 18 34 49q0 47 -21 98l-148 359h-578l-141 -369q-23 -60 -23 -90t32 -47zM888 604l-262 657l-260 -657h522z" />
    <glyph glyph-name="glyph075" unicode="&#x430;&#x304;" horiz-adv-x="966" 
d="M241 1368h518v-90h-518v90zM725 276v281l-86 -4q-426 -21 -426 -275q0 -94 59 -154q58 -57 146 -57q120 0 215 74q64 52 92 135zM739 165q-125 -179 -348 -179q-135 0 -225 71q-96 78 -96 209q0 323 551 357l104 6v37q0 153 -65 230.5t-187 77.5q-82 0 -162 -37t-109 -90
l-22 103q55 37 144 65t160 28q181 0 275.5 -90.5t94.5 -268.5l1 -555q0 -88 41 -109h-148z" />
    <glyph glyph-name="glyph076" unicode="&#x415;&#x304;" horiz-adv-x="1178" 
d="M348 1769h518v-92h-518v92zM172 1325q0 64 -15.5 94.5t-55.5 44.5h1011l10 -158q-73 93 -330 93h-301q-102 0 -141 -29t-39 -125v-442h317q133 0 175 68v-210q-45 70 -175 70h-317v-490q0 -93 39.5 -123t140.5 -30h301q149 0 231 24t126 84l-12 -176h-1034q36 12 52.5 45
t16.5 92v1168z" />
    <glyph glyph-name="glyph077" unicode="&#x435;&#x304;" horiz-adv-x="1055" 
d="M289 1368h518v-90h-518v90zM846 621q-6 176 -102 273q-83 80 -203 80q-143 0 -238 -125q-68 -89 -83 -228h626zM951 195q-132 -207 -389 -207q-214 0 -353 139q-139 143 -139 383q0 255 147 402q128 131 326 131q192 0 311 -123q131 -131 131 -340v-37h-772v-35
q0 -202 123 -328q103 -102 250 -102q220 0 340 213z" />
    <glyph glyph-name="glyph078" unicode="&#x41e;&#x304;" horiz-adv-x="1573" 
d="M529 1769h517v-92h-517v92zM787 1515q285 0 480 -195q221 -224 221 -571q0 -367 -223 -590q-193 -192 -478 -192q-284 0 -479 194q-223 223 -223 584q0 351 221 575q195 195 481 195zM787 1443q-250 0 -397 -205q-135 -187 -135 -489q0 -268 104 -449q144 -254 428 -254
q246 0 394 203q137 186 137 493q0 328 -154 519q-145 182 -377 182z" />
    <glyph glyph-name="glyph079" unicode="&#x43e;&#x304;" horiz-adv-x="1113" 
d="M300 1366h518v-90h-518v90zM556 1047q202 0 339 -137q148 -148 148 -387q0 -253 -148 -400q-138 -135 -339 -135q-203 0 -339 135q-147 147 -147 395q0 244 150 394q135 135 336 135zM556 976q-152 0 -244 -129q-90 -125 -90 -329q0 -215 98 -338q90 -115 236 -115
q181 0 268 160q67 126 67 291q0 217 -98 343q-92 117 -237 117z" />
    <glyph glyph-name="glyph080" unicode="&#x420;&#x304;" horiz-adv-x="1229" 
d="M348 1769h518v-92h-518v92zM172 1321q0 67 -15.5 98t-55.5 45h503q318 0 452 -149q88 -98 88 -238q0 -418 -573 -418h-258v-502q0 -110 70 -137h-278q67 27 67 137v1164zM495 1396q-96 0 -139 -32t-43 -123v-504h199q472 0 472 328q0 331 -425 331h-64z" />
    <glyph glyph-name="glyph081" unicode="&#x440;&#x304;" horiz-adv-x="1119" 
d="M300 1366h518v-90h-518v90zM595 84q76 0 136 35.5t97 96t56.5 138t19.5 164.5q0 234 -119 350q-84 84 -199 84q-148 0 -245 -137q-64 -88 -64 -160v-319q0 -97 121 -186q90 -66 197 -66zM273 842q126 196 340 196q174 0 293 -119q143 -143 143 -397q0 -250 -147 -397
q-122 -125 -291 -125q-217 0 -334 176v-422q0 -81 42 -106h-219q40 23 40 106v1143q0 101 -47 117q98 8 180 27v-199z" />
    <glyph glyph-name="glyph100" unicode="&#x104;&#x301;" horiz-adv-x="1323" 
d="M845 1876l98 -100l-331 -213l-47 53zM888 604l-262 657l-260 -657h522zM205 20h-223q73 38 113 139l529 1328h55l542 -1340q19 -46 47.5 -77.5t67.5 -49.5h-49l-44 -41q-127 -120 -127 -187q0 -74 79 -74q74 0 143 61l25 -51q-92 -85 -198 -85q-158 0 -158 133
q0 87 139 206l45 38h-141q34 18 34 49q0 47 -21 98l-148 359h-578l-141 -369q-23 -60 -23 -90t32 -47z" />
    <glyph glyph-name="glyph101" unicode="&#x105;&#x301;" horiz-adv-x="966" 
d="M645 1507l100 -98l-305 -201l-43 45zM725 276v281l-86 -4q-426 -21 -426 -275q0 -94 59 -154q58 -57 146 -57q120 0 215 74q64 52 92 135zM739 165q-125 -179 -348 -179q-135 0 -225 71q-96 78 -96 209q0 323 551 357l104 6v37q0 153 -65 230.5t-187 77.5q-82 0 -162 -37
t-109 -90l-22 103q55 37 144 65t160 28q181 0 275.5 -90.5t94.5 -268.5l1 -555q0 -88 41 -109l-44 -41q-127 -120 -127 -187q0 -74 79 -74q74 0 143 61l25 -51q-92 -85 -198 -85q-158 0 -158 133q0 87 139 206l45 38h-52z" />
    <glyph glyph-name="glyph121" unicode="&#x173;&#x301;" horiz-adv-x="1099" 
d="M696 1505l100 -98l-305 -201l-45 45zM823 902q0 94 -51 113q92 8 184 26v-914q0 -79 43 -107h-24l-44 -41q-127 -120 -127 -187q0 -74 79 -74q74 0 143 61l25 -51q-92 -85 -197 -85q-159 0 -159 133q0 87 139 206l45 38h-44l-10 166q-123 -206 -346 -206q-338 0 -338 366
v553q0 104 -47 115q98 9 182 27v-664q0 -311 227 -311q120 0 204.5 78t115.5 194v564z" />
    <glyph glyph-name="glyph122" unicode="&#x172;&#x303;" horiz-adv-x="1360" 
d="M379 1659q58 141 184 141q75 0 178 -66q69 -45 127 -45q76 0 115 83l57 -37q-58 -140 -182 -140q-81 0 -172 58q-87 53 -137 53q-74 0 -117 -82zM1151 1323q0 60 -16 93.5t-50 47.5h235q-69 -26 -69 -141v-723q0 -598 -507 -626l-14 -14q-127 -126 -127 -186
q0 -74 79 -74q74 0 143 61l25 -51q-93 -85 -198 -85q-159 0 -159 133q0 84 140 206l12 10q-527 26 -527 614v733q0 61 -19 95t-61 48h297q-40 -14 -57 -46.5t-17 -96.5v-713q0 -533 447 -533q443 0 443 533v715z" />
    <glyph glyph-name="glyph104" unicode="&#x116;&#x301;" horiz-adv-x="1178" 
d="M837 2017l69 -122l-376 -120l-31 64zM654 1732q102 0 102 -100q0 -105 -102 -105q-103 0 -103 102q0 103 103 103zM172 1325q0 64 -15.5 94.5t-55.5 44.5h1011l10 -158q-73 93 -330 93h-301q-102 0 -141 -29t-39 -125v-442h317q133 0 175 68v-210q-45 70 -175 70h-317
v-490q0 -93 39.5 -123t140.5 -30h301q149 0 231 24t126 84l-12 -176h-1034q36 12 52.5 45t16.5 92v1168z" />
    <glyph glyph-name="glyph105" unicode="&#x117;&#x301;" horiz-adv-x="1055" 
d="M700 1748l69 -122l-376 -120l-31 64zM539 1393q94 0 94 -92t-92 -92t-92 92t90 92zM846 621q-6 176 -102 273q-83 80 -203 80q-143 0 -238 -125q-68 -89 -83 -228h626zM951 195q-132 -207 -389 -207q-214 0 -353 139q-139 143 -139 383q0 255 147 402q128 131 326 131
q192 0 311 -123q131 -131 131 -340v-37h-772v-35q0 -202 123 -328q103 -102 250 -102q220 0 340 213z" />
    <glyph glyph-name="glyph106" unicode="&#x116;&#x303;" horiz-adv-x="1178" 
d="M377 1898q36 125 162 125q65 0 155 -57q67 -41 105 -41q63 0 96 76l53 -39q-49 -121 -153 -121q-72 0 -164 55q-66 41 -105 41q-65 0 -96 -71zM653 1802q98 0 98 -97q0 -96 -96 -96q-97 0 -97 96q0 97 95 97zM172 1325q0 64 -15.5 94.5t-55.5 44.5h1011l10 -158
q-73 93 -330 93h-301q-102 0 -141 -29t-39 -125v-442h317q133 0 175 68v-210q-45 70 -175 70h-317v-490q0 -93 39.5 -123t140.5 -30h301q149 0 231 24t126 84l-12 -176h-1034q36 12 52.5 45t16.5 92v1168z" />
    <glyph glyph-name="glyph107" unicode="&#x117;&#x303;" horiz-adv-x="1055" 
d="M269 1564q36 125 162 125q65 0 155 -57q67 -41 105 -41q63 0 96 76l53 -39q-49 -121 -153 -121q-72 0 -164 55q-66 41 -105 41q-65 0 -96 -71zM539 1393q94 0 94 -92t-92 -92t-92 92t90 92zM846 621q-6 176 -102 273q-83 80 -203 80q-143 0 -238 -125q-68 -89 -83 -228
h626zM951 195q-132 -207 -389 -207q-214 0 -353 139q-139 143 -139 383q0 255 147 402q128 131 326 131q192 0 311 -123q131 -131 131 -340v-37h-772v-35q0 -202 123 -328q103 -102 250 -102q220 0 340 213z" />
    <glyph glyph-name="glyph108" unicode="&#x118;&#x301;" horiz-adv-x="1178" 
d="M796 1874l99 -100l-332 -213l-47 53zM172 1325q0 64 -15.5 94.5t-55.5 44.5h1011l10 -158q-73 93 -330 93h-301q-102 0 -141 -29t-39 -125v-442h317q133 0 175 68v-210q-45 70 -175 70h-317v-490q0 -93 39.5 -123t140.5 -30h301q149 0 231 24t126 84l-12 -176h-453
l-60 -60q-127 -126 -127 -186q0 -74 79 -74q74 0 143 61l25 -51q-93 -85 -198 -85q-159 0 -159 133q0 84 140 206l64 56h-488q36 12 52.5 45t16.5 92v1168z" />
    <glyph glyph-name="glyph109" unicode="&#x119;&#x301;" horiz-adv-x="1055" 
d="M693 1507l100 -98l-305 -201l-45 45zM846 621q-6 176 -102 273q-83 80 -203 80q-143 0 -238 -125q-68 -89 -83 -228h626zM513 -10q-181 14 -304 137q-139 143 -139 383q0 255 147 402q128 131 326 131q192 0 311 -123q131 -131 131 -340v-37h-772v-35q0 -202 123 -328
q103 -102 250 -102q220 0 340 213l25 -96q-119 -187 -341 -205l-31 -30q-127 -120 -127 -186q0 -74 79 -74q74 0 143 61l25 -51q-93 -85 -198 -85q-159 0 -159 133q0 87 140 206z" />
    <glyph glyph-name="glyph110" unicode="&#x118;&#x303;" horiz-adv-x="1178" 
d="M315 1659q58 141 184 141q75 0 178 -66q69 -45 127 -45q76 0 115 83l57 -37q-58 -140 -182 -140q-81 0 -172 58q-87 53 -137 53q-74 0 -117 -82zM172 1325q0 64 -15.5 94.5t-55.5 44.5h1011l10 -158q-73 93 -330 93h-301q-102 0 -141 -29t-39 -125v-442h317q133 0 175 68
v-210q-45 70 -175 70h-317v-490q0 -93 39.5 -123t140.5 -30h301q149 0 231 24t126 84l-12 -176h-453l-60 -60q-127 -126 -127 -186q0 -74 79 -74q74 0 143 61l25 -51q-93 -85 -198 -85q-159 0 -159 133q0 84 140 206l64 56h-488q36 12 52.5 45t16.5 92v1168z" />
    <glyph glyph-name="glyph111" unicode="&#x119;&#x303;" horiz-adv-x="1055" 
d="M264 1312q36 125 162 125q65 0 155 -57q67 -41 105 -41q63 0 96 76l53 -39q-49 -121 -153 -121q-72 0 -164 55q-66 41 -105 41q-65 0 -96 -71zM846 621q-6 176 -102 273q-83 80 -203 80q-143 0 -238 -125q-68 -89 -83 -228h626zM513 -10q-181 14 -304 137
q-139 143 -139 383q0 255 147 402q128 131 326 131q192 0 311 -123q131 -131 131 -340v-37h-772v-35q0 -202 123 -328q103 -102 250 -102q220 0 340 213l25 -96q-119 -187 -341 -205l-31 -30q-127 -120 -127 -186q0 -74 79 -74q74 0 143 61l25 -51q-93 -85 -198 -85
q-159 0 -159 133q0 87 140 206z" />
    <glyph glyph-name="glyph112" unicode="&#x12e;&#x301;" horiz-adv-x="496" 
d="M374 1874l100 -100l-333 -213l-47 53zM321 157q0 -58 16.5 -91t52.5 -46h-47l-60 -60q-127 -126 -127 -186q0 -74 79 -74q74 0 143 61l25 -51q-93 -85 -198 -85q-159 0 -159 133q0 84 140 206l64 56h-136q62 23 62 137v1166q0 63 -16.5 95.5t-55.5 45.5h292
q-75 -28 -75 -141v-1166z" />
    <glyph glyph-name="glyph113" unicode="&#x131;&#x328;&#x307;&#x301;" horiz-adv-x="419" 
d="M339 1825l69 -122l-376 -120l-31 64zM212 1470q43 0 74 -31t31 -74q0 -102 -105 -102q-102 0 -102 102q0 105 102 105zM145 899q0 97 -50 115q96 9 185 27v-914q0 -84 39 -107h-13l-61 -60q-127 -124 -127 -186q0 -74 79 -74q74 0 143 61l25 -51q-93 -85 -198 -85
q-159 0 -159 133q0 84 140 206l64 56h-111q44 27 44 107v772z" />
    <glyph glyph-name="glyph102" unicode="&#x104;&#x303;" horiz-adv-x="1323" 
d="M354 1661q61 141 184 141q75 0 178 -66q69 -45 127 -45q71 0 117 83l55 -37q-59 -140 -184 -140q-79 0 -182 66q-69 45 -123 45q-77 0 -119 -82zM888 604l-262 657l-260 -657h522zM205 20h-223q73 38 113 139l529 1328h55l542 -1340q19 -46 47.5 -77.5t67.5 -49.5h-49
l-44 -41q-127 -120 -127 -187q0 -74 79 -74q74 0 143 61l25 -51q-92 -85 -198 -85q-158 0 -158 133q0 87 139 206l45 38h-141q34 18 34 49q0 47 -21 98l-148 359h-578l-141 -369q-23 -60 -23 -90t32 -47z" />
    <glyph glyph-name="glyph103" unicode="&#x105;&#x303;" horiz-adv-x="966" 
d="M219 1308q33 125 159 125q67 0 158 -57q66 -41 102 -41q59 0 99 76l51 -39q-47 -121 -156 -121q-70 0 -159 55q-67 41 -107 41q-65 0 -96 -71zM725 276v281l-86 -4q-426 -21 -426 -275q0 -94 59 -154q58 -57 146 -57q120 0 215 74q64 52 92 135zM739 165
q-125 -179 -348 -179q-135 0 -225 71q-96 78 -96 209q0 323 551 357l104 6v37q0 153 -65 230.5t-187 77.5q-82 0 -162 -37t-109 -90l-22 103q55 37 144 65t160 28q181 0 275.5 -90.5t94.5 -268.5l1 -555q0 -88 41 -109l-44 -41q-127 -120 -127 -187q0 -74 79 -74
q74 0 143 61l25 -51q-92 -85 -198 -85q-158 0 -158 133q0 87 139 206l45 38h-52z" />
    <glyph glyph-name="glyph114" unicode="&#x12e;&#x303;" horiz-adv-x="496" 
d="M-72 1661q61 141 184 141q75 0 178 -66q69 -45 127 -45q71 0 117 83l55 -37q-59 -140 -184 -140q-79 0 -182 66q-69 45 -123 45q-77 0 -119 -82zM321 157q0 -58 16.5 -91t52.5 -46h-47l-60 -60q-127 -126 -127 -186q0 -74 79 -74q74 0 143 61l25 -51q-93 -85 -198 -85
q-159 0 -159 133q0 84 140 206l64 56h-136q62 23 62 137v1166q0 63 -16.5 95.5t-55.5 45.5h292q-75 -28 -75 -141v-1166z" />
    <glyph glyph-name="glyph115" unicode="&#x131;&#x328;&#x307;&#x303;" horiz-adv-x="419" 
d="M-81 1608q33 125 159 125q67 0 158 -57q66 -41 102 -41q59 0 99 76l51 -39q-47 -121 -156 -121q-70 0 -159 55q-67 41 -107 41q-65 0 -96 -71zM212 1470q43 0 74 -31t31 -74q0 -102 -105 -102q-102 0 -102 102q0 105 102 105zM145 899q0 97 -50 115q96 9 185 27v-914
q0 -84 39 -107h-13l-61 -60q-127 -124 -127 -186q0 -74 79 -74q74 0 143 61l25 -51q-93 -85 -198 -85q-159 0 -159 133q0 84 140 206l64 56h-111q44 27 44 107v772z" />
    <glyph glyph-name="glyph116" unicode="&#x16a;&#x301;" horiz-adv-x="1360" 
d="M839 2072l100 -98l-305 -201l-45 45zM454 1719h516v-92h-516v92zM1151 1323q0 60 -16 93.5t-50 47.5h235q-69 -26 -69 -141v-723q0 -627 -557 -627q-576 0 -576 615v733q0 61 -19 95t-61 48h297q-40 -14 -57 -46.5t-17 -96.5v-713q0 -533 447 -533q443 0 443 533v715z
" />
    <glyph glyph-name="glyph117" unicode="&#x16b;&#x301;" horiz-adv-x="1099" 
d="M303 1343h518v-90h-518v90zM690 1746l100 -98l-305 -201l-45 45zM823 902q0 94 -51 113q92 8 184 26v-914q0 -79 43 -107h-164l-10 166q-123 -206 -346 -206q-338 0 -338 366v553q0 104 -47 115q98 9 182 27v-664q0 -311 227 -311q120 0 204.5 78t115.5 194v564z" />
    <glyph glyph-name="glyph118" unicode="&#x16a;&#x303;" horiz-adv-x="1360" 
d="M424 1898q36 125 162 125q65 0 155 -57q67 -41 105 -41q63 0 96 76l53 -39q-49 -121 -153 -121q-72 0 -164 55q-66 41 -105 41q-65 0 -96 -71zM454 1719h516v-92h-516v92zM1151 1323q0 60 -16 93.5t-50 47.5h235q-69 -26 -69 -141v-723q0 -627 -557 -627q-576 0 -576 615
v733q0 61 -19 95t-61 48h297q-40 -14 -57 -46.5t-17 -96.5v-713q0 -533 447 -533q443 0 443 533v715z" />
    <glyph glyph-name="glyph119" unicode="&#x16b;&#x303;" horiz-adv-x="1099" 
d="M296 1564q36 125 162 125q65 0 155 -57q67 -41 105 -41q63 0 96 76l53 -39q-49 -121 -153 -121q-72 0 -164 55q-66 41 -105 41q-65 0 -96 -71zM303 1343h518v-90h-518v90zM823 902q0 94 -51 113q92 8 184 26v-914q0 -79 43 -107h-164l-10 166q-123 -206 -346 -206
q-338 0 -338 366v553q0 104 -47 115q98 9 182 27v-664q0 -311 227 -311q120 0 204.5 78t115.5 194v564z" />
    <glyph glyph-name="glyph120" unicode="&#x172;&#x301;" horiz-adv-x="1360" 
d="M905 1874l98 -100l-332 -213l-47 53zM1151 1323q0 60 -16 93.5t-50 47.5h235q-69 -26 -69 -141v-723q0 -598 -507 -626l-14 -14q-127 -126 -127 -186q0 -74 79 -74q74 0 143 61l25 -51q-93 -85 -198 -85q-159 0 -159 133q0 84 140 206l12 10q-527 26 -527 614v733
q0 61 -19 95t-61 48h297q-40 -14 -57 -46.5t-17 -96.5v-713q0 -533 447 -533q443 0 443 533v715z" />
    <glyph glyph-name="glyph123" unicode="&#x173;&#x303;" horiz-adv-x="1099" 
d="M271 1306q40 125 160 125q67 0 158 -57q66 -41 102 -41q65 0 98 76l51 -39q-46 -121 -155 -121q-71 0 -160 55q-66 41 -106 41q-66 0 -97 -71zM823 902q0 94 -51 113q92 8 184 26v-914q0 -79 43 -107h-24l-44 -41q-127 -120 -127 -187q0 -74 79 -74q74 0 143 61l25 -51
q-92 -85 -197 -85q-159 0 -159 133q0 87 139 206l45 38h-44l-10 166q-123 -206 -346 -206q-338 0 -338 366v553q0 104 -47 115q98 9 182 27v-664q0 -311 227 -311q120 0 204.5 78t115.5 194v564z" />
    <glyph glyph-name="glyph124" unicode="J&#x303;" horiz-adv-x="450" 
d="M-104 1661q61 141 184 141q75 0 178 -66q69 -45 127 -45q71 0 117 83l55 -37q-59 -140 -184 -140q-79 0 -182 66q-69 45 -123 45q-77 0 -119 -82zM163 1323q0 61 -17 94t-54 47h285q-36 -13 -52.5 -46.5t-16.5 -94.5v-1312q0 -411 -346 -411q-124 0 -215 65l33 100
q34 -92 172 -92q137 0 186 127q25 65 25 248v1275z" />
    <glyph glyph-name="glyph125" unicode="j&#x303;" horiz-adv-x="382" 
d="M-81 1608q33 125 159 125q67 0 158 -57q66 -41 102 -41q59 0 99 76l51 -39q-47 -121 -156 -121q-70 0 -159 55q-67 41 -107 41q-65 0 -96 -71zM216 1470q43 0 74 -31t31 -74q0 -102 -105 -102q-102 0 -102 102q0 105 102 105zM149 900q0 96 -50 115q96 8 183 26v-1100
q0 -348 -287 -348q-71 0 -125 29l41 61q29 -35 84 -35q154 0 154 274v978z" />
    <glyph glyph-name="glyph126" unicode="L&#x303;" horiz-adv-x="1108" 
d="M-72 1661q61 141 184 141q75 0 178 -66q69 -45 127 -45q71 0 117 83l55 -37q-59 -140 -184 -140q-79 0 -182 66q-69 45 -123 45q-77 0 -119 -82zM739 88q139 0 224 27t125 86l-12 -181h-963q66 23 66 137v1164q0 62 -19.5 95.5t-61.5 47.5h299q-40 -13 -57.5 -45.5
t-17.5 -97.5v-1082q0 -90 33 -117q41 -34 139 -34h245z" />
    <glyph glyph-name="glyph127" unicode="l&#x303;" horiz-adv-x="418" 
d="M-70 1681q33 125 159 125q67 0 158 -57q66 -41 102 -41q59 0 99 76l51 -39q-47 -121 -156 -121q-70 0 -159 55q-67 41 -107 41q-65 0 -96 -71zM144 1356q0 97 -53 114q97 8 188 25v-1369q0 -79 39 -106h-218q44 26 44 106v1230z" />
    <glyph glyph-name="glyph128" unicode="M&#x303;" horiz-adv-x="1678" 
d="M514 1659q58 141 184 141q75 0 178 -66q69 -45 127 -45q76 0 115 83l57 -37q-58 -140 -182 -140q-81 0 -172 58q-87 53 -137 53q-74 0 -117 -82zM253 159q0 -59 16 -92.5t51 -46.5h-231q64 23 64 139v1160q0 63 -16 98t-51 47h282l471 -1223l467 1223h278
q-39 -14 -57 -48t-18 -95v-1160q0 -60 16 -94t51 -47h-270q64 25 64 141v1203h-6l-517 -1344h-71l-515 1342h-8v-1203z" />
    <glyph glyph-name="glyph129" unicode="m&#x303;" horiz-adv-x="1644" 
d="M560 1306q40 125 160 125q67 0 158 -57q66 -41 102 -41q65 0 98 76l51 -39q-46 -121 -155 -121q-71 0 -160 55q-66 41 -106 41q-66 0 -97 -71zM100 20q44 27 44 107v772q0 97 -49 115q98 8 180 27v-207q115 200 314 200q242 0 284 -223q111 223 334 223q307 0 307 -368
v-539q0 -81 40 -107h-216q39 23 39 107v506q0 162 -35 225q-53 90 -164 90q-199 0 -282 -247v-574q0 -84 37 -107h-217q43 27 43 107v508q0 169 -33 225q-51 88 -160 88q-202 0 -285 -245v-576q0 -84 37 -107h-218z" />
    <glyph glyph-name="glyph130" unicode="R&#x303;" horiz-adv-x="1313" 
d="M315 1659q58 141 184 141q75 0 178 -66q69 -45 127 -45q76 0 115 83l57 -37q-58 -140 -182 -140q-81 0 -172 58q-87 53 -137 53q-74 0 -117 -82zM495 1399q-96 0 -139 -32.5t-43 -123.5v-465h184q473 0 473 311q0 310 -397 310h-78zM172 1321q0 67 -15.5 98t-55.5 45h511
q210 0 334 -70q178 -101 178 -291q0 -207 -172 -309q-105 -58 -246 -67v-7q120 -43 232 -219q48 -78 165 -303q62 -121 197 -121v-57h-293q-131 333 -270 531q-113 155 -279 155h-145v-549q0 -111 68 -137h-276q67 27 67 137v1164z" />
    <glyph glyph-name="glyph131" unicode="r&#x303;" horiz-adv-x="653" 
d="M83 1306q40 125 160 125q67 0 158 -57q66 -41 102 -41q65 0 98 76l51 -39q-46 -121 -155 -121q-71 0 -160 55q-66 41 -106 41q-66 0 -97 -71zM271 780q19 46 49.5 90t71 83.5t94.5 63.5t110 24h55l-51 -86h-55q-74 0 -164 -103q-66 -78 -100 -190v-535q0 -84 37 -107
h-218q44 27 44 107v772q0 97 -49 115q94 8 176 27v-261z" />
    <glyph glyph-name="glyph135" unicode="&#x112;&#x327;" horiz-adv-x="1178" 
d="M348 1769h518v-92h-518v92zM515 -449q94 89 113 194q-103 4 -103 103q0 25 13 49q29 54 90 54q26 0 49 -13q54 -32 54 -95q0 -170 -189 -316zM172 1325q0 64 -15.5 94.5t-55.5 44.5h1011l10 -158q-73 93 -330 93h-301q-102 0 -141 -29t-39 -125v-442h317q133 0 175 68
v-210q-45 70 -175 70h-317v-490q0 -93 39.5 -123t140.5 -30h301q149 0 231 24t126 84l-12 -176h-1034q36 12 52.5 45t16.5 92v1168z" />
    <glyph glyph-name="glyph136" unicode="&#x113;&#x327;" horiz-adv-x="1055" 
d="M289 1368h518v-90h-518v90zM433 -480q94 89 113 194q-103 4 -103 103q0 25 13 49q29 54 90 54q26 0 49 -13q54 -32 54 -95q0 -170 -189 -316zM846 621q-6 176 -102 273q-83 80 -203 80q-143 0 -238 -125q-68 -89 -83 -228h626zM951 195q-132 -207 -389 -207
q-214 0 -353 139q-139 143 -139 383q0 255 147 402q128 131 326 131q192 0 311 -123q131 -131 131 -340v-37h-772v-35q0 -202 123 -328q103 -102 250 -102q220 0 340 213z" />
    <glyph glyph-name="glyph132" unicode="&#x131;&#x307;&#x301;" horiz-adv-x="419" 
d="M339 1825l69 -122l-376 -120l-31 64zM212 1470q43 0 74 -31t31 -74q0 -102 -105 -102q-102 0 -102 102q0 105 102 105zM145 899q0 97 -50 115q96 9 185 27v-914q0 -84 39 -107h-218q44 27 44 107v772z" />
    <glyph glyph-name="glyph133" unicode="&#x131;&#x307;&#x300;" horiz-adv-x="419" 
d="M85 1825l338 -178l-31 -64l-376 120zM212 1470q44 0 74 -31q31 -31 31 -74q0 -102 -105 -102q-102 0 -102 102q0 105 102 105zM145 899q0 97 -50 115q96 9 185 27v-914q0 -84 39 -107h-218q44 27 44 107v772z" />
    <glyph glyph-name="glyph134" unicode="&#x131;&#x307;&#x303;" horiz-adv-x="419" 
d="M-81 1608q33 125 159 125q67 0 158 -57q66 -41 102 -41q59 0 99 76l51 -39q-47 -121 -156 -121q-70 0 -159 55q-67 41 -107 41q-65 0 -96 -71zM212 1470q43 0 74 -31t31 -74q0 -102 -105 -102q-102 0 -102 102q0 105 102 105zM145 899q0 97 -50 115q96 9 185 27v-914
q0 -84 39 -107h-218q44 27 44 107v772z" />
    <glyph glyph-name="Zcedilla" unicode="Z&#x327;" horiz-adv-x="1294" 
d="M549 -449q94 89 113 194q-103 4 -103 103q0 25 13 49q29 54 90 54q26 0 49 -13q54 -32 54 -95q0 -170 -189 -316zM120 1284l13 180h1029v-76l-936 -1292h591q243 0 327 59q24 16 44 40l-12 -175h-1106v101l926 1273h-489q-268 0 -352 -72q-19 -17 -35 -38z" />
    <glyph glyph-name="zcedilla" unicode="z&#x327;" horiz-adv-x="944" 
d="M394 -449q94 89 113 194q-103 4 -103 103q0 25 13 49q29 54 90 54q26 0 49 -13q54 -32 54 -95q0 -170 -189 -316zM363 945q-110 0 -168 -21t-83 -75l9 159h733v-59l-628 -863h403q110 0 167 21t81 78l-8 -165h-801v60l629 865h-334z" />
    <glyph glyph-name="PermicOtrema" unicode="&#x10369;&#x308;" horiz-adv-x="1118" 
d="M369 1354q94 0 94 -92t-92 -92t-92 92t90 92zM731 1352q92 0 92 -90q0 -92 -90 -92q-92 0 -92 90q0 92 90 92zM558 1048q174 0 296 -94q123 -94 123 -272l-1 -555q0 -84 41 -107h-215q39 20 39 107l1 524q0 148 -81.5 229.5t-201.5 81.5q-119 0 -201 -82t-82 -229l1 -524
q0 -87 39 -107h-215q41 23 41 107l-1 555q1 160 121 272q102 94 296 94z" />
    <glyph glyph-name="Tacute" unicode="T&#x301;" horiz-adv-x="1278" 
d="M838 1874l100 -100l-333 -213l-50 53zM503 20q62 23 62 137v1239h-274q-186 0 -260 -85l12 153h1204l8 -157q-71 89 -261 89h-288v-1239q0 -110 68 -137h-271z" />
    <glyph glyph-name="tacute" unicode="t&#x301;" horiz-adv-x="680" 
d="M433 1688l98 -98l-305 -201l-43 45zM682 113q-104 -138 -244 -138q-227 0 -227 258v699h-174v76h174v240l135 39v-279h303v-76h-303v-660q0 -209 127 -209q91 0 164 95z" />
    <glyph glyph-name="hung_lmacron" unicode="&#x10cd6;&#x304;" horiz-adv-x="960" 
d="M228 1368h518v-90h-518v90zM447 1055h72l372 -918q36 -89 78 -117h-233q30 19 30 53q0 19 -14 56l-44 116l-45 -114q-16 -41 -16 -62q0 -31 30 -49h-189q53 30 79 94l98 243l-80 210l-172 -436q-16 -41 -16 -62q0 -31 30 -49h-189q53 30 79 94l227 561l-82 214l-299 -758
q-16 -41 -16 -62q0 -31 30 -49h-189q52 29 79 94z" />
    <glyph glyph-name="hung_rmacron" unicode="&#x10ce2;&#x304;" horiz-adv-x="1086" 
d="M268 1368h518v-90h-518v90zM813 899q0 97 -50 115q96 9 185 27v-914q0 -84 39 -107h-218q44 27 44 107v474l-533 -238v-236q0 -84 39 -107h-218q44 27 44 107v772q0 97 -50 115q96 9 185 27v-610l533 238v230z" />
    <glyph glyph-name="u10CE4_var" unicode="&#xfe00;" horiz-adv-x="852" 
d="M423 1055l355 -918q33 -86 78 -117h-233q30 19 30 43q0 30 -14 66l-239 616l-245 -614q-16 -40 -16 -62q0 -31 30 -49h-189q53 31 79 94l299 739l-33 85q-31 80 -78 117h176z" />
    <glyph glyph-name="u10CE8_var" unicode="&#xfe00;" horiz-adv-x="992" 
d="M530 1008q49 0 80 -33q26 -30 26 -73q0 -49 -34 -80q-30 -26 -72 -26q-48 0 -79 35q-27 30 -27 71q0 49 34 79q30 27 72 27zM490 272q49 0 80 -34q26 -30 26 -72q0 -49 -34 -80q-30 -26 -72 -26q-49 0 -79 34q-27 30 -27 72q0 49 34 80q30 26 72 26zM429 518l-285 373
q-57 75 -94 105q-10 7 -21 12h225q-14 -9 -14 -23q0 -21 49 -86l228 -303l269 330q35 43 35 64q0 10 -13 18h164q-45 -24 -119 -113l-291 -350l308 -408q63 -84 132 -117h-234q8 8 8 18q0 21 -49 87l-251 338l-294 -359q-35 -43 -35 -66q0 -10 9 -18h-170q64 32 128 111z
" />
    <glyph glyph-name="uni01A2_uni0335" unicode="&#x1a2;&#x335;" horiz-adv-x="1776" 
d="M1601 -215q0 -58 16.5 -91t52.5 -46h-276q62 23 62 137v215h-198v90h198v1233v14l-278 -53v-1094v-52q-7 10 -18 10q-16 0 -58 -29q-65 -46 -105 -68t-96.5 -37t-129.5 -15q-136 0 -231 46t-198 149q-114 115 -166.5 240t-52.5 301q0 363 221 585q103 103 198 149t231 46
q104 0 168.5 -26t160.5 -94q42 -29 58 -29q8 0 140 27.5t136 31.5q-17 28 -52 39h292q-75 -28 -75 -141v-1233h175v-90h-175v-215zM289 751q0 -242 100 -420q51 -91 101.5 -144.5t122.5 -83.5t169 -30q87 0 141.5 24.5t109.5 80.5v1158q-55 56 -108.5 80.5t-140.5 24.5
q-97 0 -169 -30t-122.5 -83.5t-101.5 -144.5q-102 -181 -102 -432z" />
    <glyph glyph-name="uni01A3_uni0335" unicode="&#x1a3;&#x335;" horiz-adv-x="1343" 
d="M222 513q0 -167 72 -296q89 -160 268 -160q71 0 125 22v873q-54 22 -125 22q-179 0 -268 -160q-72 -129 -72 -301zM822 64q-109 -76 -267 -76q-204 0 -335 135q-150 155 -150 390q0 240 150 395q131 135 335 135q158 0 267 -76l382 74v-951h139v-90h-139v-245
q0 -84 39 -107h-218q44 27 44 107v245h-188v90h188v836l-247 -48v-814z" />
    <glyph glyph-name="uniA7FB_lowercase" unicode="&#xfe00;" horiz-adv-x="557" 
d="M411 1008h190v-76h-190v-806q0 -78 46 -106h-220q39 25 39 106v806h-223v76h223v139q0 290 -182 290q-64 0 -96 -32l-44 68q62 26 146 26q131 0 215 -84q96 -96 96 -268v-139z" />
    <glyph glyph-name="Ercaron_cyr" unicode="&#x420;&#x30c;" horiz-adv-x="1229" 
d="M344 1841l231 -153l232 153l49 -43l-234 -215h-94l-231 215zM172 1321q0 67 -15.5 98t-55.5 45h503q318 0 452 -149q88 -98 88 -238q0 -418 -573 -418h-258v-502q0 -110 70 -137h-278q67 27 67 137v1164zM495 1396q-96 0 -139 -32t-43 -123v-504h199q472 0 472 328
q0 331 -425 331h-64z" />
    <glyph glyph-name="Eeogonek_cyr" unicode="&#x42d;&#x328;" horiz-adv-x="1459" 
d="M544 871q42 -68 175 -68h488q-10 218 -101 380q-145 258 -443 258q-121 0 -248 -40.5t-192 -112.5q-67 -76 -100 -177v265q7 -10 18 -10q16 0 58 29q80 57 216 88.5t259 31.5q285 0 479 -195q221 -222 221 -585q0 -176 -52.5 -301t-166.5 -240q-157 -158 -374 -188
l-46 -46q-127 -127 -127 -186q0 -74 79 -74q74 0 143 61l25 -51q-93 -85 -198 -85q-159 0 -159 133q0 84 140 206l38 35q-123 0 -259 31.5t-216 88.5q-42 29 -58 29q-11 0 -18 -10v265q33 -101 100 -177q65 -72 192 -112.5t248 -40.5q298 0 443 258q96 171 100 400h-489
q-130 0 -175 -70v210z" />
    <glyph glyph-name="Yucirc_cyr" unicode="&#x42e;&#x302;" horiz-adv-x="2077" 
d="M1045 1849h97l229 -213l-49 -43l-228 152l-231 -152l-47 43zM1291 1443q-250 0 -397 -205q-135 -187 -135 -489q0 -268 104 -449q144 -254 428 -254q246 0 394 203q137 186 137 493q0 328 -154 519q-145 182 -377 182zM384 1464q-37 -13 -54 -46t-17 -95v-514h278
q18 308 219 511q195 195 481 195q285 0 480 -195q221 -224 221 -571q0 -367 -223 -590q-193 -192 -478 -192q-284 0 -479 194q-217 217 -223 566h-276v-570q0 -59 15.5 -91.5t49.5 -45.5h-273q67 25 67 137v1166q0 61 -17 94.5t-55 46.5h284z" />
    <glyph glyph-name="Yaogonek_cyr" unicode="&#x42f;&#x328;" horiz-adv-x="1313" 
d="M933 20q68 26 68 137v549h-145q-166 0 -279 -155q-139 -198 -270 -531h-293v57q135 0 197 121q117 225 165 303q112 176 232 219v7q-141 9 -246 67q-172 102 -172 309q0 190 178 291q124 70 334 70h511q-40 -14 -55.5 -45t-15.5 -98v-1164q0 -110 66 -137h-47l-60 -60
q-127 -127 -127 -186q0 -74 79 -74q74 0 143 61l25 -51q-93 -85 -198 -85q-159 0 -159 133q0 84 140 206l64 56h-135zM1001 1243q0 91 -43.5 123.5t-138.5 32.5h-78q-397 0 -397 -310q0 -311 473 -311h184v465z" />
    <glyph glyph-name="Xacute" unicode="X&#x301;" horiz-adv-x="1355" 
d="M810 1874l97 -100l-332 -213l-47 53zM600 755l-398 545q-89 121 -186 164h312q-30 -15 -30 -41q0 -36 55 -111l341 -467l363 488q49 66 49 98q0 20 -26 33h256q-97 -41 -183 -156l-402 -534l435 -592q88 -120 185 -162h-309q26 15 26 39q0 37 -52 108l-377 513l-397 -533
q-47 -63 -47 -94q0 -20 23 -33h-252q98 41 182 154z" />
    <glyph glyph-name="aogonek_cyr" unicode="&#x430;&#x328;" horiz-adv-x="966" 
d="M725 276v281l-86 -4q-426 -21 -426 -275q0 -94 59 -154q58 -57 146 -57q120 0 215 74q64 52 92 135zM739 165q-125 -179 -348 -179q-135 0 -225 71q-96 78 -96 209q0 323 551 357l104 6v37q0 153 -65 230.5t-187 77.5q-82 0 -162 -37t-109 -90l-22 103q55 37 144 65
t160 28q181 0 275.5 -90.5t94.5 -268.5l1 -555q0 -88 41 -109l-44 -41q-127 -120 -127 -187q0 -74 79 -74q74 0 143 61l25 -51q-92 -85 -198 -85q-158 0 -158 133q0 87 139 206l45 38h-52z" />
    <glyph glyph-name="eogonek_cyr" unicode="&#x435;&#x328;" horiz-adv-x="1055" 
d="M846 621q-6 176 -102 273q-83 80 -203 80q-143 0 -238 -125q-68 -89 -83 -228h626zM513 -10q-181 14 -304 137q-139 143 -139 383q0 255 147 402q128 131 326 131q192 0 311 -123q131 -131 131 -340v-37h-772v-35q0 -202 123 -328q103 -102 250 -102q220 0 340 213
l25 -96q-119 -187 -341 -205l-31 -30q-127 -120 -127 -186q0 -74 79 -74q74 0 143 61l25 -51q-93 -85 -198 -85q-159 0 -159 133q0 87 140 206z" />
    <glyph glyph-name="ocirc_cyr" unicode="&#x43e;&#x302;" horiz-adv-x="1113" 
d="M517 1445h86l205 -198l-39 -43l-211 137l-209 -137l-36 43zM556 1047q202 0 339 -137q148 -148 148 -387q0 -253 -148 -400q-138 -135 -339 -135q-203 0 -339 135q-147 147 -147 395q0 244 150 394q135 135 336 135zM556 976q-152 0 -244 -129q-90 -125 -90 -329
q0 -215 98 -338q90 -115 236 -115q181 0 268 160q67 126 67 291q0 217 -98 343q-92 117 -237 117z" />
    <glyph glyph-name="ercaron_cyr" unicode="&#x440;&#x30c;" horiz-adv-x="1119" 
d="M334 1469l211 -137l211 137l35 -43l-203 -200h-88l-203 200zM595 84q76 0 136 35.5t97 96t56.5 138t19.5 164.5q0 234 -119 350q-84 84 -199 84q-148 0 -245 -137q-64 -88 -64 -160v-319q0 -97 121 -186q90 -66 197 -66zM273 842q126 196 340 196q174 0 293 -119
q143 -143 143 -397q0 -250 -147 -397q-122 -125 -291 -125q-217 0 -334 176v-422q0 -81 42 -106h-219q40 23 40 106v1143q0 101 -47 117q98 8 180 27v-199z" />
    <glyph glyph-name="eeogonek_cyr" unicode="&#x44d;&#x328;" horiz-adv-x="847" 
d="M777 513q0 -87 -22 -167t-64.5 -145t-100.5 -113t-134 -74q-7 -3 -15 -4l-52 -50q-127 -122 -127 -186q0 -74 79 -74q74 0 143 61l25 -51q-93 -85 -198 -85q-159 0 -159 133q0 89 140 206l30 25q-15 -1 -30 -1q-157 0 -267 76l27 105q74 -112 233 -112q179 0 268 160
q66 117 72 265h-140q-188 0 -240 -77v215q52 -77 240 -77h140q-6 154 -72 271q-89 160 -268 160q-159 0 -233 -112l-27 105q110 76 267 76q109 0 200.5 -41.5t153.5 -112.5t96.5 -168.5t34.5 -207.5z" />
    <glyph glyph-name="yaogonek_cyr" unicode="&#x44f;&#x328;" horiz-adv-x="1016" 
d="M157 758q0 63 31 112t85 78.5t121.5 44.5t145.5 15h376q-28 -16 -28 -80v-832q0 -54 28 -76h-13l-61 -60q-127 -125 -127 -186q0 -74 79 -74q74 0 143 61l25 -51q-93 -85 -198 -85q-159 0 -159 133q0 84 140 206l64 56h-81q30 20 30 76v383h-97q-115 0 -188 -88
q-105 -133 -207 -371h-236v55q109 10 154 95q61 115 113 194q59 91 145 129q-285 53 -285 265zM758 547v303q0 92 -125 92h-56q-281 0 -281 -196q0 -199 337 -199h125z" />
    <glyph glyph-name="xacute" unicode="x&#x301;" horiz-adv-x="992" 
d="M680 1505l101 -98l-306 -201l-45 45zM429 518l-285 373q-57 75 -94 105q-10 7 -21 12h225q-14 -9 -14 -23q0 -21 49 -86l228 -303l269 330q35 43 35 64q0 10 -13 18h164q-45 -24 -119 -113l-291 -350l308 -408q63 -84 132 -117h-234q8 8 8 18q0 21 -49 87l-251 338
l-294 -359q-35 -43 -35 -66q0 -10 9 -18h-170q64 32 128 111z" />
    <glyph glyph-name="Ocirc_cyr" unicode="&#x41e;&#x302;" horiz-adv-x="1573" 
d="M741 1849h97l229 -213l-49 -43l-228 152l-231 -152l-47 43zM787 1515q285 0 480 -195q221 -224 221 -571q0 -367 -223 -590q-193 -192 -478 -192q-284 0 -479 194q-223 223 -223 584q0 351 221 575q195 195 481 195zM787 1443q-250 0 -397 -205q-135 -187 -135 -489
q0 -268 104 -449q144 -254 428 -254q246 0 394 203q137 186 137 493q0 328 -154 519q-145 182 -377 182z" />
    <glyph glyph-name="yucirc_cyr" unicode="&#x44e;&#x302;" horiz-adv-x="1497" 
d="M701 1445h86l205 -198l-39 -43l-211 137l-209 -137l-36 43zM940 976q-152 0 -244 -129q-90 -125 -90 -329q0 -215 98 -338q90 -115 236 -115q181 0 268 160q67 126 67 291q0 217 -98 343q-92 117 -237 117zM940 1047q202 0 339 -137q148 -148 148 -387q0 -253 -148 -400
q-138 -135 -339 -135q-203 0 -339 135q-136 136 -146 358h-179v-354q0 -86 39 -107h-215q41 23 41 107v774q0 86 -39 107h215q-41 -23 -41 -107v-352h179q9 223 149 363q135 135 336 135z" />
    <glyph glyph-name="Aogonek_cyr" unicode="&#x410;&#x328;" horiz-adv-x="1323" 
d="M888 604l-262 657l-260 -657h522zM205 20h-223q73 38 113 139l529 1328h55l542 -1340q19 -46 47.5 -77.5t67.5 -49.5h-49l-44 -41q-127 -120 -127 -187q0 -74 79 -74q74 0 143 61l25 -51q-92 -85 -198 -85q-158 0 -158 133q0 87 139 206l45 38h-141q34 18 34 49
q0 47 -21 98l-148 359h-578l-141 -369q-23 -60 -23 -90t32 -47z" />
    <glyph glyph-name="Eogonek_cyr" unicode="&#x415;&#x328;" horiz-adv-x="1178" 
d="M172 1325q0 64 -15.5 94.5t-55.5 44.5h1011l10 -158q-73 93 -330 93h-301q-102 0 -141 -29t-39 -125v-442h317q133 0 175 68v-210q-45 70 -175 70h-317v-490q0 -93 39.5 -123t140.5 -30h301q149 0 231 24t126 84l-12 -176h-453l-60 -60q-127 -126 -127 -186q0 -74 79 -74
q74 0 143 61l25 -51q-93 -85 -198 -85q-159 0 -159 133q0 84 140 206l64 56h-488q36 12 52.5 45t16.5 92v1168z" />
    <glyph glyph-name="Ueacute_cyr" unicode="&#x4ae;&#x301;" horiz-adv-x="1279" 
d="M767 1874l97 -100l-332 -213l-47 53zM503 20q62 24 62 137v428l-437 740q-59 101 -145 139h312q-34 -17 -34 -45q0 -42 37 -107l357 -626l391 662q20 34 20 62q0 35 -48 54h275q-92 -41 -163 -159l-424 -701v-447q0 -110 73 -137h-276z" />
    <glyph glyph-name="ueacute_cyr" unicode="&#x4af;&#x301;" horiz-adv-x="960" 
d="M660 1505l101 -98l-306 -201l-45 45zM543 66v-314q0 -81 42 -106h-219q40 23 40 106v309l-340 840q-36 89 -78 117h232q-29 -19 -29 -53q0 -19 14 -56l290 -760l299 758q16 41 16 62q0 31 -30 49h189q-53 -29 -79 -94z" />
    <glyph glyph-name="Oeacute_cyr" unicode="&#x4e8;&#x301;" horiz-adv-x="1573" 
d="M880 1874l98 -100l-331 -213l-47 53zM784 1515q312 0 507 -223q195 -220 195 -545q0 -255 -119 -453q-193 -325 -579 -325q-345 0 -545 268q-158 213 -158 508q0 292 160 504q202 266 539 266zM790 1441q-246 0 -390 -193q-131 -170 -144 -439h1059q-13 256 -132 425
q-148 207 -393 207zM1316 727h-1061q5 -245 100 -417q145 -264 433 -264q257 0 405 225q118 181 123 456z" />
    <glyph glyph-name="oeacute_cyr" unicode="&#x4e9;&#x301;" horiz-adv-x="1113" 
d="M712 1511l98 -98l-305 -201l-43 45zM553 1047q250 0 392 -195q98 -138 98 -334q0 -194 -96 -334q-139 -196 -391 -196q-272 0 -408 225q-78 131 -78 307q0 257 162 404q135 123 321 123zM224 485q9 -165 65 -262q93 -158 266 -158q310 0 334 420h-665zM889 575
q-12 152 -71 249q-96 152 -263 152q-190 0 -282 -195q-40 -84 -49 -206h665z" />
    <glyph glyph-name=".notdef" horiz-adv-x="748" 
d="M68 0v1365h544v-1365h-544zM136 68h408v1229h-408v-1229z" />
    <glyph glyph-name=".null" 
 />
    <glyph glyph-name="nonmarkingreturn" horiz-adv-x="682" 
 />
    <glyph glyph-name="space" unicode=" " horiz-adv-x="600" 
 />
    <glyph glyph-name="exclam" unicode="!" horiz-adv-x="578" 
d="M293 227q47 0 79 -33q35 -35 35 -82q0 -112 -114 -112q-113 0 -113 112q0 47 35 82q32 33 78 33zM266 424l-25 364q-24 367 -24 520v170h158v-176q0 -148 -25 -514l-25 -364h-59z" />
    <glyph glyph-name="quotedbl" unicode="&#x22;" horiz-adv-x="723" 
d="M495 1016l-38 215q-19 109 -23 176v96h168v-96q-3 -67 -23 -176l-38 -215h-46zM194 1020l-38 215q-20 109 -23 176v96h168v-96q-3 -67 -23 -176l-38 -215h-46z" />
    <glyph glyph-name="numbersign" unicode="#" horiz-adv-x="1266" 
d="M1157 969h-241l-64 -355h291v-88h-301l-98 -567l-107 18l96 549h-276l-107 -567l-108 18l104 549h-229v88h242l67 355h-295v90h308l81 428l105 -17l-78 -411h275l75 428l109 -17l-76 -411h227v-90zM807 969h-270l-68 -355h275z" />
    <glyph glyph-name="dollar" unicode="$" horiz-adv-x="1266" 
d="M672 819l25 -10q149 -56 227 -107q166 -110 166 -299q0 -201 -166 -309q-106 -66 -252 -72v-110h-82v110q-78 1 -211.5 50.5t-207.5 95.5v125q45 -65 180 -128.5t239 -66.5v606q-140 51 -221 103q-174 107 -174 286q0 166 119 267q101 86 276 98v90h82v-90
q63 -4 181.5 -48.5t178.5 -79.5q3 -2 6 -3v-109q-40 52 -161.5 108.5t-204.5 59.5v-567zM590 844v542q-91 -9 -153 -51q-111 -74 -111 -211q0 -163 168 -239q16 -17 65 -31q11 -2 31 -10zM672 98q115 9 185 70q92 83 92 219q0 130 -96 205q-54 40 -181 92v-586z" />
    <glyph glyph-name="percent" unicode="%" horiz-adv-x="1606" 
d="M1208 755q152 0 232 -137q59 -106 59 -254q0 -177 -86 -284q-79 -100 -205 -100q-148 0 -225 135q-59 106 -59 253q0 205 106 311q73 76 178 76zM1210 689q-171 0 -171 -321t171 -321q172 0 172 319q0 323 -172 323zM397 1487q153 0 230 -137q59 -107 59 -253
q0 -179 -86 -287q-77 -98 -203 -98q-147 0 -225 133q-59 107 -59 255q0 204 106 311q73 76 178 76zM400 1421q-174 0 -174 -321q0 -320 174 -320q169 0 169 317q0 324 -169 324zM1370 1456l-1046 -1470l-72 48l1045 1471z" />
    <glyph glyph-name="ampersand" unicode="&#x26;" horiz-adv-x="1392" 
d="M867 239q-214 228 -445 515q-207 -118 -207 -340q0 -140 92 -232q93 -92 234 -92q194 0 326 149zM494 872q15 6 29 15q247 125 247 309q0 107 -63 171q-58 57 -144 57q-94 0 -158 -64q-63 -63 -63 -159q0 -84 49 -179q17 -31 54 -86q35 -49 49 -64zM1225 836
q-13 -10 -24.5 -41.5t-24.5 -87t-14 -60.5q-56 -203 -156 -340q200 -224 362 -228v-59h-284l-164 168q-174 -192 -414 -192q-203 0 -327 125q-109 111 -109 270q0 248 313 414q-170 220 -170 360q0 127 90 218q105 104 271 104q160 0 245 -94q72 -78 72 -193
q0 -204 -358 -385q221 -262 420 -461q123 166 123 322q0 77 -10.5 116t-40.5 58h224q-13 -6 -24 -14z" />
    <glyph glyph-name="quotesingle" unicode="'" horiz-adv-x="434" 
d="M194 1020l-38 215q-20 109 -23 176v96h168v-96q-3 -67 -23 -176l-38 -215h-46z" />
    <glyph glyph-name="parenleft" unicode="(" horiz-adv-x="748" 
d="M614 -422l-59 -33q-371 457 -371 1014t371 1014l59 -35q-291 -432 -291 -981q0 -544 291 -979z" />
    <glyph glyph-name="parenright" unicode=")" horiz-adv-x="748" 
d="M192 1573q371 -456 371 -1014q0 -557 -371 -1014l-59 33q291 435 291 979q0 546 -291 981z" />
    <glyph glyph-name="asterisk" unicode="*" horiz-adv-x="566" 
d="M241 1191l-19 7q-89 31 -132 56l-40 23l44 76l38 -22q31 -18 115 -90l14 -12l-4 20q-18 92 -18 142v46h88v-44q0 -36 -20 -144l-4 -20l16 14q76 65 115 88l38 22l45 -76l-39 -22q-34 -20 -134 -55l-19 -6l19 -7q95 -33 134 -56l39 -22l-45 -76l-38 22q-34 20 -115 89
l-14 13l3 -20q19 -98 19 -144v-44h-88v44q0 40 20 144l4 18l-15 -13q-71 -61 -114 -86l-40 -23l-44 76l38 22q31 18 135 54z" />
    <glyph glyph-name="plus" unicode="+" horiz-adv-x="1389" 
d="M748 604v-524h-102v524h-502v94h502v483h102v-483h497v-94h-497z" />
    <glyph glyph-name="comma" unicode="," horiz-adv-x="355" 
d="M69 -167q94 89 113 194q-103 4 -103 103q0 25 13 49q29 54 90 54q26 0 49 -13q54 -32 54 -95q0 -170 -189 -316z" />
    <glyph glyph-name="hyphen" unicode="-" horiz-adv-x="604" 
d="M524 544h-442v111h442v-111z" />
    <glyph glyph-name="period" unicode="." horiz-adv-x="383" 
d="M190 231q48 0 80 -33q33 -33 33 -80q0 -45 -33 -77q-32 -33 -80 -33q-45 0 -77 33q-33 32 -33 77q0 47 33 80t77 33z" />
    <glyph glyph-name="slash" unicode="/" horiz-adv-x="1024" 
d="M875 1491l-680 -1798l-86 33l678 1798z" />
    <glyph glyph-name="zero" unicode="0" horiz-adv-x="1139" 
d="M569 -31q-104 0 -189 43.5t-141.5 117t-95.5 173.5t-56 210t-17 230q0 455 211 657q121 115 282 115q105 0 191 -42.5t143.5 -115.5t97 -173t57 -210.5t17.5 -232.5q0 -119 -17.5 -229t-56.5 -210t-96 -173t-142 -116.5t-188 -43.5zM571 44q76 0 136 42.5t98 111
t63 161.5t35 187t10 194q0 302 -78 486q-91 217 -264 217q-147 0 -237 -158q-108 -195 -108 -543q0 -100 10.5 -194t35.5 -187.5t63.5 -162.5t99 -111.5t136.5 -42.5z" />
    <glyph glyph-name="one" unicode="1" horiz-adv-x="486" 
d="M364 155q0 -111 82 -135h-306q81 25 81 135v1129q0 36 -11 60q-74 -27 -198 -40v86q63 7 113 17.5t79.5 19.5t63 29t47 30t49.5 38v-1369z" />
    <glyph glyph-name="two" unicode="2" horiz-adv-x="933" 
d="M904 181l-19 -161h-849v82q38 163 121 303.5t245 272.5l33 27q167 128 222 204q78 106 78 225q0 164 -106 246q-78 59 -187 59q-87 0 -160 -33t-113 -89q-42 -60 -45 -125l-6 194q59 60 147 94.5t184 34.5q181 0 303 -94q143 -110 143 -297q0 -129 -76 -235
q-70 -101 -276 -234l-57 -37q-156 -100 -232.5 -214.5t-108.5 -258.5h612q102 0 147 36z" />
    <glyph glyph-name="three" unicode="3" horiz-adv-x="950" 
d="M60 1410q9 6 18 13q128 90 313 90q109 0 201.5 -30.5t150.5 -88.5q98 -98 98 -243q0 -293 -334 -361v-14q373 -74 373 -381q0 -168 -117 -285q-69 -70 -173.5 -106.5t-227.5 -36.5q-86 0 -175.5 20t-146.5 57v113q8 -11 18 -21q44 -41 124.5 -63.5t163.5 -22.5
q81 0 155.5 26.5t124.5 76.5q98 98 98 246q0 139 -92 231q-100 101 -274 101h-103v82h103q143 0 235 92q98 98 98 248q0 121 -80 198q-41 41 -104 62.5t-131 21.5q-69 0 -135 -19.5t-112 -56.5q-50 -39 -69 -92v143z" />
    <glyph glyph-name="four" unicode="4" horiz-adv-x="980" 
d="M685 508v770l-541 -770h541zM616 20q69 27 69 137v263h-645v98l698 969h77v-979h135v-88h-135v-263q0 -63 14 -93.5t50 -43.5h-263z" />
    <glyph glyph-name="five" unicode="5" horiz-adv-x="990" 
d="M158 817q66 66 135 96.5t164 30.5q234 0 367 -170q96 -128 96 -293q0 -289 -203 -430q-59 -40 -154 -62t-183 -22q-160 0 -277 61q-35 19 -63 40v139q22 -53 86 -95q43 -30 108 -46t130 -16q79 0 161.5 24.5t125.5 67.5q111 111 111 318q0 164 -76 271q-96 133 -256 133
q-106 0 -175.5 -54t-124.5 -169l-80 10l76 813h728l10 -217q-71 90 -262 90h-390z" />
    <glyph glyph-name="six" unicode="6" horiz-adv-x="1101" 
d="M572 862q-129 0 -221 -92q-113 -113 -113 -312q0 -180 94 -299q93 -115 234 -115q167 0 254 152q61 104 61 256q0 209 -109 324q-82 86 -200 86zM213 714q123 228 367 228q223 0 355 -168q96 -128 96 -322q0 -221 -137 -358q-130 -127 -322 -127q-211 0 -344 151
q-158 182 -158 557q0 473 205 696q63 70 159 107t198 37q75 0 156.5 -16t127.5 -44l-34 -82q-31 31 -101 48.5t-138 17.5q-91 0 -176 -47t-137 -135q-117 -197 -123 -543h6z" />
    <glyph glyph-name="seven" unicode="7" horiz-adv-x="1002" 
d="M511 20h-172v68q3 202 221 690q148 324 301 561h-691q-103 0 -139 -44l17 169h924v-96q-461 -647 -461 -1280v-68z" />
    <glyph glyph-name="eight" unicode="8" horiz-adv-x="1117" 
d="M553 -39q-129 0 -237.5 45t-177 135t-68.5 209q0 263 344 420q-293 142 -293 367q0 69 26 122t83 110q137 137 332 137q176 0 309 -107q65 -52 95 -107t30 -133q0 -236 -318 -375q369 -163 369 -424q0 -185 -158 -299q-137 -100 -336 -100zM586 829q283 111 283 340
q0 67 -26 111t-83 85q-98 69 -192 69q-127 0 -230 -100q-42 -42 -61 -81t-19 -94q0 -94 60 -164.5t153 -114.5q106 -54 115 -51zM551 40q149 0 251 81t102 219q0 141 -121 243q-53 45 -144 89q-121 60 -131 57l-30 -12q-275 -124 -275 -369q0 -136 102.5 -222t245.5 -86z
" />
    <glyph glyph-name="nine" unicode="9" horiz-adv-x="1101" 
d="M535 1465q-146 0 -235 -123q-78 -112 -78 -278q0 -169 72 -278q83 -123 235 -123q133 0 223 90q109 111 109 305q0 176 -90 290q-92 117 -236 117zM163 175q28 -41 117 -73t162 -32q96 0 186.5 45.5t141.5 128.5q121 196 127 566h-6q-116 -223 -375 -223q-200 0 -319 125
q-127 133 -127 344q0 220 135 352q130 127 326 127q500 0 500 -701q0 -443 -182 -671q-69 -85 -176.5 -130.5t-218.5 -45.5q-58 0 -151 22t-140 47v119z" />
    <glyph glyph-name="colon" unicode=":" horiz-adv-x="590" 
d="M298 1020q48 0 80 -33q33 -33 33 -79q0 -45 -33 -78q-32 -33 -80 -33q-110 0 -110 111q0 112 110 112zM298 231q48 0 80 -33q33 -33 33 -80q0 -45 -33 -77q-32 -33 -80 -33q-45 0 -77 33q-33 32 -33 77q0 47 33 80t77 33z" />
    <glyph glyph-name="semicolon" unicode=";" horiz-adv-x="590" 
d="M180 -167q94 89 113 194q-103 4 -103 103q0 25 13 49q29 54 90 54q26 0 49 -13q54 -32 54 -95q0 -170 -189 -316zM300 1020q46 0 79 -33q33 -32 33 -79q0 -46 -33 -78q-33 -33 -79 -33q-111 0 -111 111q0 112 111 112z" />
    <glyph glyph-name="less" unicode="&#x3c;" horiz-adv-x="1389" 
d="M264 649l981 -459l-41 -92l-1061 510v82l1061 510l41 -92z" />
    <glyph glyph-name="equal" unicode="=" horiz-adv-x="1389" 
d="M143 887h1102v-96h-1102v96zM143 510h1102v-96h-1102v96z" />
    <glyph glyph-name="greater" unicode="&#x3e;" horiz-adv-x="1389" 
d="M1124 649l-981 459l41 92l1061 -510v-82l-1061 -510l-41 92z" />
    <glyph glyph-name="question" unicode="?" horiz-adv-x="888" 
d="M360 227q45 0 77 -33q35 -35 35 -82q0 -112 -112 -112q-115 0 -115 112q0 45 35 80q34 35 80 35zM55 1353q59 60 144.5 91.5t180.5 31.5q103 0 192.5 -30.5t147.5 -88.5q98 -95 98 -253q0 -200 -215 -344l-63 -43q-150 -100 -150 -280v-47h-82v51q0 189 138 317l37 35
q105 100 136 149q41 66 41 158q0 135 -80 218q-37 40 -96 61t-122 21q-68 0 -133 -25.5t-108 -72.5q-52 -61 -61 -139z" />
    <glyph glyph-name="at" unicode="@" horiz-adv-x="1841" 
d="M1489 163q-244 -173 -561 -173q-365 0 -577 208q-197 197 -197 506q0 324 229 553q238 238 590 238q331 0 531 -197q180 -174 180 -451q0 -222 -129 -385q-151 -184 -375 -184q-152 0 -152 131q0 27 3 41q-129 -162 -279 -162q-225 0 -225 268q0 272 176 486
q145 176 323 176q96 0 166 -74l15 48h125q-31 -92 -89 -312q-98 -390 -98 -456t70 -66q168 0 285 166q104 147 104 334q0 256 -186 417q-177 152 -447 152q-301 0 -494 -217q-178 -200 -178 -498q0 -301 176 -477q170 -170 459 -170q303 0 516 158zM1031 1159
q-150 0 -260 -242q-90 -198 -90 -405q0 -156 92 -156q164 0 278 299q88 231 88 361q0 143 -108 143z" />
    <glyph glyph-name="A" unicode="A" horiz-adv-x="1323" 
d="M205 20h-223q73 38 113 139l529 1328h55l542 -1340q19 -46 47.5 -77.5t67.5 -49.5h-286q34 18 34 49q0 47 -21 98l-148 359h-578l-141 -369q-23 -60 -23 -90t32 -47zM888 604l-262 657l-260 -657h522z" />
    <glyph glyph-name="B" unicode="B" horiz-adv-x="1312" 
d="M491 1399q-95 0 -137.5 -33t-42.5 -123v-432h219q430 0 430 299q0 289 -399 289h-70zM311 737v-488q0 -163 180 -163h66q481 0 481 321q0 330 -512 330h-215zM172 1323q0 66 -15.5 96.5t-55.5 44.5h499q199 0 334 -65q180 -89 180 -281q0 -271 -353 -336v-6
q435 -74 435 -361q0 -395 -607 -395h-484q67 24 67 137v1166z" />
    <glyph glyph-name="C" unicode="C" horiz-adv-x="1452" 
d="M251 751q0 -242 100 -420q145 -258 443 -258q121 0 248 40.5t192 112.5q67 76 100 177v-265q-7 10 -18 10q-16 0 -58 -29q-80 -57 -216 -88.5t-259 -31.5q-285 0 -479 195q-114 115 -166.5 240t-52.5 301q0 363 221 585q194 195 479 195q123 0 259 -31.5t216 -88.5
q42 -29 58 -29q11 0 18 10v-265q-33 101 -100 177q-65 72 -192 112.5t-248 40.5q-298 0 -443 -258q-102 -181 -102 -432z" />
    <glyph glyph-name="D" unicode="D" horiz-adv-x="1440" 
d="M315 239q0 -86 42.5 -116.5t139.5 -30.5h74q258 0 383 88q235 162 235 575q0 644 -618 644h-74q-96 0 -139 -32.5t-43 -123.5v-1004zM172 1323q0 66 -15.5 96.5t-55.5 44.5h486q318 0 504 -137q264 -194 264 -582q0 -487 -387 -659q-150 -66 -391 -66h-472q67 24 67 137
v1166z" />
    <glyph glyph-name="E" unicode="E" horiz-adv-x="1178" 
d="M172 1325q0 64 -15.5 94.5t-55.5 44.5h1011l10 -158q-73 93 -330 93h-301q-102 0 -141 -29t-39 -125v-442h317q133 0 175 68v-210q-45 70 -175 70h-317v-490q0 -93 39.5 -123t140.5 -30h301q149 0 231 24t126 84l-12 -176h-1034q36 12 52.5 45t16.5 92v1168z" />
    <glyph glyph-name="F" unicode="F" horiz-adv-x="1153" 
d="M172 1323q0 66 -15.5 96.5t-55.5 44.5h1013l10 -155q-80 90 -336 90h-297q-102 0 -141 -29.5t-39 -124.5v-446h319q71 0 112.5 17t62.5 54v-209q-44 68 -175 68h-319v-572q0 -108 74 -137h-280q67 27 67 137v1166z" />
    <glyph glyph-name="G" unicode="G" horiz-adv-x="1417" 
d="M1201 551q0 58 -15.5 91.5t-48.5 45.5h263q-64 -25 -64 -137v-525h-45l-63 119q-168 -174 -437 -174q-303 0 -497 194q-209 212 -209 568q0 364 223 587q93 93 249.5 144t307.5 51q225 0 395 -120q42 -29 58 -29q11 0 18 10v-259q-33 95 -100 169q-137 155 -360 155
q-159 0 -306.5 -67.5t-216.5 -190.5q-102 -186 -102 -438q0 -303 156 -495q157 -195 399 -195q227 0 344 141q51 61 51 154v201z" />
    <glyph glyph-name="H" unicode="H" horiz-adv-x="1397" 
d="M313 157q0 -59 15.5 -91.5t49.5 -45.5h-273q67 25 67 137v1166q0 61 -17 94.5t-55 46.5h284q-37 -13 -54 -46t-17 -95v-514h771v512q0 61 -21 94.5t-65 48.5h303q-41 -13 -58.5 -45.5t-17.5 -97.5v-1164q0 -109 70 -137h-275q64 28 64 137v570h-771v-570z" />
    <glyph glyph-name="I" unicode="I" horiz-adv-x="496" 
d="M321 157q0 -58 16.5 -91t52.5 -46h-276q62 23 62 137v1166q0 63 -16.5 95.5t-55.5 45.5h292q-75 -28 -75 -141v-1166z" />
    <glyph glyph-name="J" unicode="J" horiz-adv-x="450" 
d="M163 1323q0 61 -17 94t-54 47h285q-36 -13 -52.5 -46.5t-16.5 -94.5v-1312q0 -411 -346 -411q-124 0 -215 65l33 100q34 -92 172 -92q137 0 186 127q25 65 25 248v1275z" />
    <glyph glyph-name="K" unicode="K" horiz-adv-x="1327" 
d="M393 1464q-37 -13 -55 -47.5t-18 -95.5v-592l656 631q41 39 41 67q0 23 -25 37h266q-91 -33 -171 -108l-529 -502l601 -726q63 -76 148 -108h-305q20 12 20 31q0 26 -72 114l-491 603l-139 -131v-480q0 -109 70 -137h-273q64 25 64 137v1162q0 62 -20 96.5t-63 48.5h295z
" />
    <glyph glyph-name="L" unicode="L" horiz-adv-x="1108" 
d="M739 88q139 0 224 27t125 86l-12 -181h-963q66 23 66 137v1164q0 62 -19.5 95.5t-61.5 47.5h299q-40 -13 -57.5 -45.5t-17.5 -97.5v-1082q0 -90 33 -117q41 -34 139 -34h245z" />
    <glyph glyph-name="M" unicode="M" horiz-adv-x="1678" 
d="M253 159q0 -59 16 -92.5t51 -46.5h-231q64 23 64 139v1160q0 63 -16 98t-51 47h282l471 -1223l467 1223h278q-39 -14 -57 -48t-18 -95v-1160q0 -60 16 -94t51 -47h-270q64 25 64 141v1203h-6l-517 -1344h-71l-515 1342h-8v-1203z" />
    <glyph glyph-name="N" unicode="N" horiz-adv-x="1391" 
d="M1171 1327q0 58 -16 91t-51 46h231q-64 -26 -64 -137v-1327h-88l-924 1298h-6v-1139q0 -59 16 -92.5t51 -46.5h-231q64 23 64 139v1160q0 63 -16 98t-51 47h224l855 -1204h6v1067z" />
    <glyph glyph-name="O" unicode="O" horiz-adv-x="1573" 
d="M787 1515q285 0 480 -195q221 -224 221 -571q0 -367 -223 -590q-193 -192 -478 -192q-284 0 -479 194q-223 223 -223 584q0 351 221 575q195 195 481 195zM787 1443q-250 0 -397 -205q-135 -187 -135 -489q0 -268 104 -449q144 -254 428 -254q246 0 394 203
q137 186 137 493q0 328 -154 519q-145 182 -377 182z" />
    <glyph glyph-name="P" unicode="P" horiz-adv-x="1229" 
d="M172 1321q0 67 -15.5 98t-55.5 45h503q318 0 452 -149q88 -98 88 -238q0 -418 -573 -418h-258v-502q0 -110 70 -137h-278q67 27 67 137v1164zM495 1396q-96 0 -139 -32t-43 -123v-504h199q472 0 472 328q0 331 -425 331h-64z" />
    <glyph glyph-name="Q" unicode="Q" horiz-adv-x="1573" 
d="M1082 -175q101 -181 236 -181q78 0 149 72l35 -43q-99 -127 -231 -127q-172 0 -295 221q-8 14 -23.5 43t-22 40t-20 32.5t-21 30t-20.5 22t-24.5 18.5t-26 9.5t-31.5 4.5q-284 0 -479 194q-223 223 -223 584q0 351 221 575q195 195 481 195q285 0 480 -195
q221 -224 221 -571q0 -367 -223 -590q-134 -133 -311 -174q69 -55 128 -160zM1318 742q0 143 -34 268.5t-98 222.5t-167 153.5t-232 56.5q-128 0 -230.5 -55.5t-167.5 -151t-99.5 -220.5t-34.5 -267q0 -268 104 -449q144 -254 428 -254q246 0 394 203q137 186 137 493z" />
    <glyph glyph-name="R" unicode="R" horiz-adv-x="1313" 
d="M495 1399q-96 0 -139 -32.5t-43 -123.5v-465h184q473 0 473 311q0 310 -397 310h-78zM172 1321q0 67 -15.5 98t-55.5 45h511q210 0 334 -70q178 -101 178 -291q0 -207 -172 -309q-105 -58 -246 -67v-7q120 -43 232 -219q48 -78 165 -303q62 -121 197 -121v-57h-293
q-131 333 -270 531q-113 155 -279 155h-145v-549q0 -111 68 -137h-276q67 27 67 137v1164z" />
    <glyph glyph-name="S" unicode="S" horiz-adv-x="1141" 
d="M1003 1401v-253q-28 92 -92 160q-50 55 -160.5 86t-212.5 31q-149 0 -236 -96q-70 -76 -70 -183q0 -183 267 -278l51 -18q324 -118 418 -224q88 -100 88 -239q0 -210 -170 -322q-124 -81 -295 -81q-103 0 -228 27t-200 74q-46 31 -72 31q-12 0 -20 -10v286
q32 -113 100 -188q61 -65 183 -102t237 -37q139 0 221 76q88 79 88 215q0 102 -74 182q-67 71 -280 158l-39 16q-223 87 -293 140q-129 98 -129 260q0 181 135 289q123 98 312 98q92 0 211.5 -23.5t194.5 -64.5q33 -19 49 -19q9 0 16 9z" />
    <glyph glyph-name="T" unicode="T" horiz-adv-x="1278" 
d="M503 20q62 23 62 137v1239h-274q-186 0 -260 -85l12 153h1204l8 -157q-71 89 -261 89h-288v-1239q0 -110 68 -137h-271z" />
    <glyph glyph-name="U" unicode="U" horiz-adv-x="1360" 
d="M1151 1323q0 60 -16 93.5t-50 47.5h235q-69 -26 -69 -141v-723q0 -627 -557 -627q-576 0 -576 615v733q0 61 -19 95t-61 48h297q-40 -14 -57 -46.5t-17 -96.5v-713q0 -533 447 -533q443 0 443 533v715z" />
    <glyph glyph-name="V" unicode="V" horiz-adv-x="1316" 
d="M623 -23l-518 1348q-39 101 -121 139h296q-38 -18 -38 -51q0 -39 23 -100l413 -1100l419 1111q23 61 23 92t-37 48h244q-83 -38 -123 -142l-520 -1345h-61z" />
    <glyph glyph-name="W" unicode="W" horiz-adv-x="1783" 
d="M872 1196l-31 127q-26 108 -86 141h239q-30 -20 -30 -63q0 -14 13.5 -77t23.5 -96l282 -964h6l311 1051q17 57 17 86q0 42 -48 63h230q-65 -32 -101 -149l-404 -1327h-66l-313 1060h-6l-345 -1060h-65l-412 1316q-41 130 -105 160h275q-35 -19 -35 -67q0 -39 20 -105
l316 -1038h6z" />
    <glyph glyph-name="X" unicode="X" horiz-adv-x="1355" 
d="M600 755l-398 545q-89 121 -186 164h312q-30 -15 -30 -41q0 -36 55 -111l341 -467l363 488q49 66 49 98q0 20 -26 33h256q-97 -41 -183 -156l-402 -534l435 -592q88 -120 185 -162h-309q26 15 26 39q0 37 -52 108l-377 513l-397 -533q-47 -63 -47 -94q0 -20 23 -33h-252
q98 41 182 154z" />
    <glyph glyph-name="Y" unicode="Y" horiz-adv-x="1279" 
d="M503 20q62 24 62 137v428l-437 740q-59 101 -145 139h312q-34 -17 -34 -45q0 -42 37 -107l357 -626l391 662q20 34 20 62q0 35 -48 54h275q-92 -41 -163 -159l-424 -701v-447q0 -110 73 -137h-276z" />
    <glyph glyph-name="Z" unicode="Z" horiz-adv-x="1294" 
d="M120 1284l13 180h1029v-76l-936 -1292h591q243 0 327 59q24 16 44 40l-12 -175h-1106v101l926 1273h-489q-268 0 -352 -72q-19 -17 -35 -38z" />
    <glyph glyph-name="bracketleft" unicode="[" horiz-adv-x="696" 
d="M607 -410h-371v1973h371v-70h-240v-1833h240v-70z" />
    <glyph glyph-name="backslash" unicode="\" horiz-adv-x="1024" 
d="M150 1491l88 33l678 -1798l-86 -33z" />
    <glyph glyph-name="bracketright" unicode="]" horiz-adv-x="696" 
d="M462 -410h-371v70h240v1833h-240v70h371v-1973z" />
    <glyph glyph-name="asciicircum" unicode="^" horiz-adv-x="1024" 
d="M962 731l-76 -59l-374 456l-377 -456l-76 59l453 533z" />
    <glyph glyph-name="underscore" unicode="_" horiz-adv-x="1024" 
d="M1024 -250h-1024v102h1024v-102z" />
    <glyph glyph-name="grave" unicode="`" horiz-adv-x="1024" 
d="M622 1251l-43 -45l-305 203l100 96z" />
    <glyph glyph-name="a" unicode="a" horiz-adv-x="966" 
d="M725 276v281l-86 -4q-426 -21 -426 -275q0 -94 59 -154q58 -57 146 -57q120 0 215 74q64 52 92 135zM739 165q-125 -179 -348 -179q-135 0 -225 71q-96 78 -96 209q0 323 551 357l104 6v37q0 153 -65 230.5t-187 77.5q-82 0 -162 -37t-109 -90l-22 103q55 37 144 65
t160 28q181 0 275.5 -90.5t94.5 -268.5l1 -555q0 -88 41 -109h-148z" />
    <glyph glyph-name="b" unicode="b" horiz-adv-x="1083" 
d="M233 639v-266q0 -128 133 -223q91 -66 193 -66q155 0 241 147q68 114 68 287q0 231 -119 350q-86 86 -200 86q-151 0 -253 -141q-63 -85 -63 -174zM100 1356q0 97 -50 114q99 8 183 25v-661q125 204 344 204q170 0 291 -121q145 -145 145 -395q0 -252 -147 -400
q-125 -124 -293 -124q-213 0 -336 172l-67 -166h-70v1352z" />
    <glyph glyph-name="c" unicode="c" horiz-adv-x="847" 
d="M222 513q0 -167 72 -296q89 -160 268 -160q159 0 233 112l27 -105q-109 -76 -267 -76q-204 0 -335 135q-150 155 -150 390q0 240 150 395q131 135 335 135q158 0 267 -76l-27 -105q-74 112 -233 112q-179 0 -268 -160q-72 -129 -72 -301z" />
    <glyph glyph-name="d" unicode="d" horiz-adv-x="1120" 
d="M215 520q0 -87 20.5 -165t59 -139.5t100.5 -97.5t140 -36q145 0 241 133q72 100 72 201v270q0 112 -125 201q-89 67 -197 67q-101 0 -173 -62.5t-105 -159t-33 -212.5zM848 1354q0 97 -50 115q95 8 183 26v-1366q0 -82 40 -109h-167l-10 176q-119 -198 -338 -198
q-202 0 -319 147.5t-117 368.5q0 254 147 401q123 123 291 123q214 0 340 -178v494z" />
    <glyph glyph-name="e" unicode="e" horiz-adv-x="1055" 
d="M846 621q-6 176 -102 273q-83 80 -203 80q-143 0 -238 -125q-68 -89 -83 -228h626zM951 195q-132 -207 -389 -207q-214 0 -353 139q-139 143 -139 383q0 255 147 402q128 131 326 131q192 0 311 -123q131 -131 131 -340v-37h-772v-35q0 -202 123 -328q103 -102 250 -102
q220 0 340 213z" />
    <glyph glyph-name="f" unicode="f" horiz-adv-x="557" 
d="M146 1008v139q0 172 96 268q84 84 215 84q84 0 146 -26l-44 -68q-32 32 -96 32q-182 0 -182 -290v-139h223v-76h-223v-806q0 -81 39 -106h-220q46 28 46 106v806h-190v76h190z" />
    <glyph glyph-name="g" unicode="g" horiz-adv-x="955" 
d="M486 80q-320 0 -320 -194q0 -107 102 -166q88 -51 228 -51q200 0 295 98q51 51 51 121q0 192 -356 192zM475 967q-118 0 -194 -76q-76 -75 -76 -198q0 -258 272 -258q138 0 213 82q64 69 64 184q0 112 -74 186q-77 80 -205 80zM693 998q110 128 225 128q38 0 62 -12
l-37 -71q-67 9 -117.5 -14t-77.5 -60q137 -91 137 -270q0 -187 -158 -277q-99 -57 -227 -57q-83 0 -178 24q-74 -30 -74 -86q0 -101 227 -116l115 -9q387 -27 387 -276q0 -130 -117 -213q-130 -94 -362 -94q-202 0 -334 74q-133 74 -133 204q0 198 297 244v6
q-195 43 -195 158q0 100 123 137q-186 82 -186 270q0 166 139 268q113 82 268 82q124 0 216 -40z" />
    <glyph glyph-name="h" unicode="h" horiz-adv-x="1095" 
d="M143 1356q0 97 -52 114q98 8 187 25v-659q132 198 342 198q336 0 336 -368v-539q0 -84 39 -107h-216q40 28 40 107v510q0 309 -227 309q-222 0 -314 -245v-574q0 -84 39 -107h-217q43 27 43 107v1229z" />
    <glyph glyph-name="i" unicode="i" horiz-adv-x="419" 
d="M212 1470q44 0 74 -31q31 -31 31 -74q0 -102 -105 -102q-102 0 -102 102q0 105 102 105zM145 899q0 97 -50 115q96 9 185 27v-914q0 -84 39 -107h-218q44 27 44 107v772z" />
    <glyph glyph-name="j" unicode="j" horiz-adv-x="382" 
d="M216 1470q43 0 74 -31t31 -74q0 -102 -105 -102q-102 0 -102 102q0 105 102 105zM149 900q0 96 -50 115q96 8 183 26v-1100q0 -348 -287 -348q-71 0 -125 29l41 61q29 -35 84 -35q154 0 154 274v978z" />
    <glyph glyph-name="k" unicode="k" horiz-adv-x="1048" 
d="M143 1356q0 97 -52 114q98 8 187 25v-969l453 377q64 53 64 81q0 14 -17 24h242q-76 -28 -158 -95l-367 -299l394 -471q74 -88 141 -123h-239q8 8 8 20q0 23 -47 80l-351 423l-123 -103v-313q0 -84 39 -107h-217q43 27 43 107v1229z" />
    <glyph glyph-name="l" unicode="l" horiz-adv-x="418" 
d="M144 1356q0 97 -53 114q97 8 188 25v-1369q0 -79 39 -106h-218q44 26 44 106v1230z" />
    <glyph glyph-name="m" unicode="m" horiz-adv-x="1644" 
d="M100 20q44 27 44 107v772q0 97 -49 115q98 8 180 27v-207q115 200 314 200q242 0 284 -223q111 223 334 223q307 0 307 -368v-539q0 -81 40 -107h-216q39 23 39 107v506q0 162 -35 225q-53 90 -164 90q-199 0 -282 -247v-574q0 -84 37 -107h-217q43 27 43 107v508
q0 169 -33 225q-51 88 -160 88q-202 0 -285 -245v-576q0 -84 37 -107h-218z" />
    <glyph glyph-name="n" unicode="n" horiz-adv-x="1100" 
d="M100 20q44 27 44 107v772q0 97 -49 115q94 8 178 27v-215q126 208 348 208q336 0 336 -368v-539q0 -79 43 -107h-221q41 28 41 107v510q0 309 -228 309q-222 0 -311 -245v-574q0 -80 40 -107h-221z" />
    <glyph glyph-name="o" unicode="o" horiz-adv-x="1113" 
d="M556 1047q202 0 339 -137q148 -148 148 -387q0 -253 -148 -400q-138 -135 -339 -135q-203 0 -339 135q-147 147 -147 395q0 244 150 394q135 135 336 135zM556 976q-152 0 -244 -129q-90 -125 -90 -329q0 -215 98 -338q90 -115 236 -115q181 0 268 160q67 126 67 291
q0 217 -98 343q-92 117 -237 117z" />
    <glyph glyph-name="p" unicode="p" horiz-adv-x="1119" 
d="M595 84q76 0 136 35.5t97 96t56.5 138t19.5 164.5q0 234 -119 350q-84 84 -199 84q-148 0 -245 -137q-64 -88 -64 -160v-319q0 -97 121 -186q90 -66 197 -66zM273 842q126 196 340 196q174 0 293 -119q143 -143 143 -397q0 -250 -147 -397q-122 -125 -291 -125
q-217 0 -334 176v-422q0 -81 42 -106h-219q40 23 40 106v1143q0 101 -47 117q98 8 180 27v-199z" />
    <glyph glyph-name="q" unicode="q" horiz-adv-x="1122" 
d="M806 -352q40 23 40 106v453q-120 -209 -340 -209q-172 0 -291 118q-145 146 -145 396q0 248 150 397q126 129 302 129q216 0 336 -169l56 155h69v-1270q0 -81 40 -106h-217zM844 389v312q0 102 -119 188q-85 63 -192 63q-146 0 -232 -123q-86 -120 -86 -309
q0 -204 96 -325q88 -113 226 -113q144 0 239 133q68 92 68 174z" />
    <glyph glyph-name="r" unicode="r" horiz-adv-x="653" 
d="M271 780q19 46 49.5 90t71 83.5t94.5 63.5t110 24h55l-51 -86h-55q-74 0 -164 -103q-66 -78 -100 -190v-535q0 -84 37 -107h-218q44 27 44 107v772q0 97 -49 115q94 8 176 27v-261z" />
    <glyph glyph-name="s" unicode="s" horiz-adv-x="867" 
d="M752 965v-169q-21 54 -59 92q-39 39 -127.5 62.5t-159.5 23.5q-100 0 -166 -66q-47 -50 -47 -119q0 -120 207 -185l53 -16q171 -55 242 -109q102 -77 102 -205q0 -152 -115 -229q-89 -61 -219 -61q-67 0 -166.5 19.5t-158.5 51.5q-44 26 -68 26q-7 0 -12 -3v208
q22 -75 71 -124q46 -48 145.5 -75.5t184.5 -27.5q213 0 213 189q0 83 -63 135q-43 34 -199 88l-61 21q-141 46 -189 86q-90 71 -90 186q0 112 84 193q92 86 240 86q74 0 168.5 -16.5t140.5 -44.5q29 -17 49 -17z" />
    <glyph glyph-name="t" unicode="t" horiz-adv-x="680" 
d="M682 113q-104 -138 -244 -138q-227 0 -227 258v699h-174v76h174v240l135 39v-279h303v-76h-303v-660q0 -209 127 -209q91 0 164 95z" />
    <glyph glyph-name="u" unicode="u" horiz-adv-x="1099" 
d="M823 902q0 94 -51 113q92 8 184 26v-914q0 -79 43 -107h-164l-10 166q-123 -206 -346 -206q-338 0 -338 366v553q0 104 -47 115q98 9 182 27v-664q0 -311 227 -311q120 0 204.5 78t115.5 194v564z" />
    <glyph glyph-name="v" unicode="v" horiz-adv-x="960" 
d="M510 -17h-72l-372 918q-36 89 -78 117h232q-29 -19 -29 -53q0 -19 14 -56l290 -760l299 758q16 41 16 62q0 31 -30 49h189q-53 -29 -79 -94z" />
    <glyph glyph-name="w" unicode="w" horiz-adv-x="1458" 
d="M802 903l254 -735l248 739q14 42 14 68q0 27 -27 43h179q-49 -27 -70 -88l-333 -947h-66l-254 717l-282 -717h-70l-320 918q-29 83 -87 117h234q-28 -18 -28 -49q0 -22 14 -62l257 -739l243 631l-37 102q-20 56 -33 80.5t-33 36.5h208q-27 -18 -27 -49q0 -18 16 -66z" />
    <glyph glyph-name="x" unicode="x" horiz-adv-x="992" 
d="M429 518l-285 373q-57 75 -94 105q-10 7 -21 12h225q-14 -9 -14 -23q0 -21 49 -86l228 -303l269 330q35 43 35 64q0 10 -13 18h164q-45 -24 -119 -113l-291 -350l308 -408q63 -84 132 -117h-234q8 8 8 18q0 21 -49 87l-251 338l-294 -359q-35 -43 -35 -66q0 -10 9 -18
h-170q64 32 128 111z" />
    <glyph glyph-name="y" unicode="y" horiz-adv-x="962" 
d="M518 191l282 717q14 36 14 57q0 34 -31 53h190q-52 -29 -79 -94l-456 -1135q-72 -178 -213 -178q-34 0 -60 6l-11 101q0 -4 13.5 -9t26.5 -7l14 -3h50q68 0 116 125l80 215l-382 862q-40 91 -80 117h228q-25 -17 -25 -45q0 -24 16 -61z" />
    <glyph glyph-name="z" unicode="z" horiz-adv-x="944" 
d="M363 945q-110 0 -168 -21t-83 -75l9 159h733v-59l-628 -863h403q110 0 167 21t81 78l-8 -165h-801v60l629 865h-334z" />
    <glyph glyph-name="braceleft" unicode="{" horiz-adv-x="694" 
d="M587 -410h-76q-276 0 -276 275v459q0 219 -147 237v51q147 16 147 244v432q0 275 276 275h76v-58h-57q-164 0 -164 -207v-438q0 -226 -178 -272q178 -52 178 -275v-458q0 -207 164 -207h57v-58z" />
    <glyph glyph-name="bar" unicode="|" horiz-adv-x="401" 
d="M252 -338h-102v1843h102v-1843z" />
    <glyph glyph-name="braceright" unicode="}" horiz-adv-x="694" 
d="M605 561q-147 -18 -147 -237v-459q0 -275 -276 -275h-78v58h57q166 0 166 207v458q0 223 178 275q-178 46 -178 272v438q0 207 -166 207h-57v58h78q276 0 276 -275v-432q0 -228 147 -244v-51z" />
    <glyph glyph-name="asciitilde" unicode="~" horiz-adv-x="656" 
d="M607 770q-46 -121 -153 -121q-68 0 -150 51q-78 47 -116 47q-68 0 -99 -73l-51 34q40 125 158 125q67 0 166 -61q58 -37 98 -37q62 0 96 74z" />
    <glyph glyph-name="uni00A0" unicode="&#xa0;" horiz-adv-x="594" 
 />
    <glyph glyph-name="exclamdown" unicode="&#xa1;" horiz-adv-x="578" 
d="M294 1251q-47 0 -79 33q-35 35 -35 82q0 112 114 112q113 0 113 -112q0 -47 -35 -82q-32 -33 -78 -33zM321 1054l25 -364q24 -367 24 -520v-170h-158v176q0 148 25 514l25 364h59z" />
    <glyph glyph-name="cent" unicode="&#xa2;" horiz-adv-x="847" 
d="M222 827q0 -167 72 -296q43 -78 108 -118l125 873q-153 -14 -233 -158q-72 -129 -72 -301zM605 1286l-129 -904q40 -11 86 -11q159 0 233 112l27 -105q-109 -76 -267 -76q-47 0 -90 7l-33 -235h-78l36 254q-97 33 -170 109q-150 155 -150 390q0 240 150 395
q125 129 317 135l26 187h78l-27 -190q120 -12 208 -73l-27 -105q-64 96 -190 110z" />
    <glyph glyph-name="sterling" unicode="&#xa3;" horiz-adv-x="938" 
d="M342 305q8 46 8.5 86t-3 73.5t-20 88.5t-31.5 97.5t-48 133.5h-177v55h154l-2 5q-4 7 -6 11q-63 152 -63 273q0 162 104 266q119 125 306 125q139 0 251 -78l-51 -113q-40 125 -197 125q-133 0 -207 -104q-61 -86 -61 -219q0 -118 70 -291h405v-55h-385q78 -224 78 -369
q0 -65 -25 -141q-45 -136 -155 -188h361q188 0 260 88l-8 -154h-609q-189 0 -261 -88l9 154h92q80 0 137 64t74 155z" />
    <glyph glyph-name="currency" unicode="&#xa4;" horiz-adv-x="1266" 
d="M233 1100l127 -121q125 94 275 94q154 0 278 -94l121 121l66 -68l-121 -118q94 -128 94 -279q0 -149 -94 -274l121 -125l-66 -64l-121 121q-124 -96 -276 -96q-162 0 -277 96l-127 -121l-63 64l123 123q-96 121 -96 276t96 279l-123 118zM637 983q-91 0 -168 -43
q-178 -98 -178 -305q0 -91 43 -168q102 -176 301 -176q76 0 143 31q203 92 203 313q0 151 -109 254q-97 94 -235 94z" />
    <glyph glyph-name="yen" unicode="&#xa5;" horiz-adv-x="1161" 
d="M426 20q69 25 69 137v324h-424v70h424v178h-424v70h375l-344 526q-35 53 -65 88t-56 51h276q-36 -20 -36 -57q0 -32 37 -90l331 -520l365 549q25 38 25 67q0 33 -37 51h231q-57 -33 -143 -157l-353 -508h379v-70h-428v-178h428v-70h-428v-324q0 -58 18 -90.5t56 -46.5
h-276z" />
    <glyph glyph-name="brokenbar" unicode="&#xa6;" horiz-adv-x="401" 
d="M150 1505h102v-772h-102v772zM150 426h102v-764h-102v764z" />
    <glyph glyph-name="section" unicode="&#xa7;" horiz-adv-x="1393" 
d="M496 1083q-120 69 -160 126q-37 53 -37 127q0 141 117 230q57 44 154.5 68t192.5 24q90 0 184 -23.5t148 -65.5l-57 -109q-29 60 -110 100.5t-165 40.5q-65 0 -138 -15t-111 -42q-96 -69 -96 -173q0 -73 57.5 -120t198.5 -110l162 -72q294 -132 294 -356
q0 -164 -184 -256l2 -1l1 -1l2 -1l1 -1l2 -1l1 -1l2 -1l2 -1l1 -1l2 -1l1 -1l2 -1l1 -1l2 -1l1 -1l2 -1l1 -1l2 -1l1 -1l2 -1l1 -1l2 -1l1 -1l1 -1l2 -1l1 -1l2 -1l1 -1h1l2 -1l1 -1l2 -1l1 -1l1 -1q88 -60 112 -113q16 -33 16 -76q0 -163 -141 -258q-54 -37 -147.5 -57.5
t-181.5 -20.5q-98 0 -202 23.5t-169 66.5l41 139q32 -75 128 -123.5t208 -48.5q56 0 122.5 12t101.5 33q119 67 119 189q0 63 -54 106.5t-195 113.5l-238 116q-240 117 -240 277q0 172 220 280zM883 494q126 65 126 176q0 182 -292 311l-140 61l-20 9q-170 -78 -170 -199
q0 -115 219 -223l230 -111q14 -8 47 -24z" />
    <glyph glyph-name="dieresis" unicode="&#xa8;" horiz-adv-x="1024" 
d="M332 1437q92 0 92 -92t-90 -92q-94 0 -94 92t92 92zM692 1437q94 0 94 -92t-92 -92t-92 92t90 92z" />
    <glyph glyph-name="copyright" unicode="&#xa9;" horiz-adv-x="2048" 
d="M1028 1497q-227 0 -414 -123q-338 -218 -338 -627q0 -220 123 -407q221 -338 627 -338q222 0 411 125q334 223 334 622q0 157 -68 307q-144 317 -475 412q-105 29 -200 29zM1019 1585q268 0 494 -158q350 -249 350 -680q0 -269 -166 -493q-249 -342 -676 -342
q-281 0 -512 178q-325 249 -325 659q0 198 96 381q174 333 535 428q100 27 204 27zM688 758q0 -211 92 -334q101 -135 272 -135q66 0 151.5 34t131.5 80q32 31 54 73v-150q-10 -5 -25 -15q-59 -41 -153.5 -71.5t-164.5 -30.5q-315 0 -453 285q-59 122 -59 260q0 131 61 257
q138 285 453 285q70 0 164.5 -30.5t153.5 -71.5q15 -10 25 -15v-150q-22 42 -54 73q-46 46 -131.5 80t-151.5 34q-173 0 -272 -135q-94 -129 -94 -323z" />
    <glyph glyph-name="ordfeminine" unicode="&#xaa;" horiz-adv-x="856" 
d="M516 1175l-24 -2q-233 -15 -233 -157q0 -123 117 -123q8 0 17 1q88 6 140 79q20 28 20 45v159zM546 1322q-29 117 -150 117q-47 0 -93 -20.5t-60 -47.5l-51 68q36 25 98.5 42.5t118.5 17.5q121 0 188 -58.5t67 -171.5v-387q0 -22 9 -37h-107v76q-84 -96 -204 -98h-5
q-213 0 -213 182q0 143 151 193q69 23 201 37l49 5l8 1v18v16l-1 2l-1 12l-1 9l-1 6l-1 7l-1 6zM117 715h625v-76h-625v76z" />
    <glyph glyph-name="guillemotleft" unicode="&#xab;" horiz-adv-x="1036" 
d="M451 1026l55 -22l-199 -397l199 -400l-51 -24l-289 401v41zM830 1026l55 -22l-201 -397l201 -400l-53 -24l-289 401v41z" />
    <glyph glyph-name="logicalnot" unicode="&#xac;" horiz-adv-x="1389" 
d="M1153 801v-473h-102v377h-907v96h1009z" />
    <glyph glyph-name="uni00AD" unicode="&#xad;" horiz-adv-x="1389" 
d="M143 700h1102v-96h-1102v96z" />
    <glyph glyph-name="registered" unicode="&#xae;" horiz-adv-x="2048" 
d="M1028 1497q-227 0 -414 -123q-338 -218 -338 -627q0 -220 123 -407q221 -338 627 -338q222 0 411 125q334 223 334 622q0 157 -68 307q-144 317 -475 412q-105 29 -200 29zM1019 1585q268 0 494 -158q350 -249 350 -680q0 -269 -166 -493q-249 -342 -676 -342
q-281 0 -512 178q-325 249 -325 659q0 198 96 381q174 333 535 428q100 27 204 27zM856 797h123q313 0 313 201q0 202 -264 202h-47q-68 0 -92 -12q-33 -15 -33 -88v-303zM677 246q17 5 27 12q25 19 25 80v842q0 68 -29 84q-13 7 -36 12h378q383 0 383 -266q0 -121 -96 -199
q-69 -54 -180 -63q67 -33 127 -117q29 -44 121 -215q36 -69 59 -86q28 -18 94 -18v-66h-225q-107 280 -225 412q-60 65 -160 65h-84v-385q0 -61 27 -82q9 -6 23 -10h-229z" />
    <glyph glyph-name="macron" unicode="&#xaf;" horiz-adv-x="1024" 
d="M254 1366h518v-90h-518v90z" />
    <glyph glyph-name="degree" unicode="&#xb0;" horiz-adv-x="614" 
d="M305 1710q52 0 98 -25q119 -57 119 -190q0 -77 -53 -139q-64 -76 -162 -76q-39 0 -82 16q-133 56 -133 199q0 113 96 178q56 37 117 37zM307 1653q-38 0 -80 -23q-78 -46 -78 -135q0 -41 23 -80q46 -78 135 -78q60 0 107 43q51 45 51 115q0 76 -60 123q-44 35 -98 35z
" />
    <glyph glyph-name="plusminus" unicode="&#xb1;" horiz-adv-x="1389" 
d="M143 252h1102v-96h-1102v96zM747 780v-430h-102v430h-502v94h502v405h102v-405h498v-94h-498z" />
    <glyph glyph-name="uni00B2" unicode="&#xb2;" horiz-adv-x="487" 
d="M458 806l-10 -81h-424v41q19 82 60.5 152t122.5 136l17 14q83 63 110 102q40 53 40 112q0 82 -54 123q-38 29 -93 29q-43 0 -80 -16t-57 -44q-20 -30 -22 -63l-3 97q30 30 74 47t91 17q91 0 152 -46q71 -55 72 -149q0 -65 -38 -117q-36 -51 -138 -118l-29 -18
q-78 -50 -116 -107t-55 -129h306q51 0 74 18z" />
    <glyph glyph-name="uni00B3" unicode="&#xb3;" horiz-adv-x="481" 
d="M38 1427q4 4 9 7q64 45 157 45q116 0 176 -59q48 -49 48 -122q0 -146 -166 -180v-8q186 -36 186 -190q0 -84 -58 -142q-70 -72 -201 -72q-43 0 -87.5 10t-73.5 29v56q4 -5 9 -11q22 -20 62.5 -31t81.5 -11q89 0 140 51q49 49 49 123q0 70 -46 116q-50 50 -137 50h-51v41
h51q71 0 117 46q49 49 50 124q0 61 -40 99q-42 42 -118 42q-77 0 -124 -38q-25 -19 -34 -46v71z" />
    <glyph glyph-name="acute" unicode="&#xb4;" horiz-adv-x="1024" 
d="M672 1505l98 -98l-305 -201l-43 45z" />
    <glyph glyph-name="mu" unicode="&#xb5;" horiz-adv-x="1119" 
d="M915 920q0 94 -51 113q92 8 184 26v-914q0 -79 43 -107h-164l-10 166q-63 -105 -139 -154.5t-185 -49.5q-106 0 -181 43t-135 133v-422q0 -81 42 -106h-219q40 23 40 106v1143q0 101 -47 117q98 8 180 27l4 -705q1 -97 121 -186q90 -66 197 -66q62 0 116 22t93.5 60
t68 86.5t42.5 103.5v564z" />
    <glyph glyph-name="paragraph" unicode="&#xb6;" horiz-adv-x="1069" 
d="M460 -139v1126q-137 3 -229 74q-133 102 -133 274q0 210 184 312q92 49 223 49h412v-1835h-94v1753h-269v-1753h-94z" />
    <glyph glyph-name="periodcentered" unicode="&#xb7;" horiz-adv-x="487" 
d="M248 712q24 0 49 -12q61 -31 61 -100q0 -34 -18 -62q-34 -49 -92 -49q-48 0 -82 35q-31 34 -31 76q0 54 43 87q31 25 70 25z" />
    <glyph glyph-name="cedilla" unicode="&#xb8;" horiz-adv-x="1024" 
d="M448 20h103l-60 -135q230 -3 230 -164q0 -195 -395 -198l-23 74q287 3 287 127q0 97 -211 100v35z" />
    <glyph glyph-name="uni00B9" unicode="&#xb9;" horiz-adv-x="277" 
d="M206 792q0 -55 41 -67h-153q40 13 40 67v565q0 18 -5 30q-37 -13 -99 -20v43q51 6 85.5 16.5t48.5 19.5t42 31v-685z" />
    <glyph glyph-name="ordmasculine" unicode="&#xba;" horiz-adv-x="856" 
d="M430 1503q165 0 256 -119q68 -89 68 -215t-65 -217q-90 -123 -259 -123q-117 0 -200 68q-119 97 -119 272q0 154 104 252q85 82 215 82zM430 1439q-200 0 -200 -270q0 -277 200 -277q203 0 203 277q0 270 -203 270zM117 715h625v-76h-625v76z" />
    <glyph glyph-name="guillemotright" unicode="&#xbb;" horiz-adv-x="1036" 
d="M586 1026l287 -401v-41l-289 -401l-51 24l199 400l-199 397zM209 1026l287 -401v-41l-291 -401l-51 24l199 400l-199 397z" />
    <glyph glyph-name="onequarter" unicode="&#xbc;" horiz-adv-x="487" 
d="M0 779h487v-36h-487v36zM286 932q0 -55 41 -67h-153q40 13 40 67v525q0 19 -5 30q-37 -13 -99 -20v43q51 6 85.5 16.5t48.5 19.5t42 31v-645zM332 164v385l-270 -385h270zM298 -80q34 13 34 68v132h-322v49l349 485h38v-490h68v-44h-68v-132q0 -31 7 -46.5t26 -21.5h-132
z" />
    <glyph glyph-name="onehalf" unicode="&#xbd;" horiz-adv-x="487" 
d="M0 779h487v-36h-487v36zM458 1l-10 -81h-424v41q19 82 60.5 152t122.5 136l17 13q83 64 110 102q40 54 40 113q0 82 -54 123q-38 29 -93 30q-43 0 -80 -16.5t-57 -45.5q-20 -30 -22 -62l-3 97q30 30 74 47.5t91 17.5q91 0 152 -48q71 -54 72 -148q0 -64 -38 -118
q-36 -50 -138 -116l-29 -19q-78 -50 -116 -107t-55 -130h306q51 0 74 19zM286 932q0 -55 41 -67h-153q40 13 40 67v525q0 19 -5 30q-37 -13 -99 -20v43q51 6 85.5 16.5t48.5 19.5t42 31v-645z" />
    <glyph glyph-name="threequarters" unicode="&#xbe;" horiz-adv-x="487" 
d="M54 1512q5 3 9 6q64 41 157 41q116 0 176 -54q49 -44 49 -110q0 -132 -167 -163v-6q186 -33 186 -172q0 -76 -58 -128q-71 -65 -201 -65q-43 0 -87.5 9t-73.5 26v51q4 -5 9 -10q22 -18 62.5 -28.5t81.5 -10.5q89 0 140 47q49 44 49 111q0 63 -46 104q-50 46 -137 46h-51
v37h51q72 0 118 41q49 45 49 112q0 55 -40 90q-42 37 -118 37t-123 -34q-25 -17 -35 -41v64zM0 779h487v-36h-487v36zM332 164v385l-270 -385h270zM298 -80q34 13 34 68v132h-322v49l349 485h38v-490h68v-44h-68v-132q0 -31 7 -46.5t26 -21.5h-132z" />
    <glyph glyph-name="questiondown" unicode="&#xbf;" horiz-adv-x="888" 
d="M513 1249q-45 0 -77 33q-35 35 -35 82q0 112 112 112q115 0 115 -112q0 -45 -35 -80q-34 -35 -80 -35zM818 123q-59 -60 -144.5 -91.5t-180.5 -31.5q-103 0 -192.5 30.5t-147.5 88.5q-98 95 -98 253q0 200 215 344l63 43q150 100 150 280v47h82v-51q0 -189 -138 -317
l-37 -35q-105 -100 -136 -149q-41 -66 -41 -158q0 -135 80 -218q37 -40 96 -61t122 -21q68 0 133 25.5t108 72.5q52 61 61 139z" />
    <glyph glyph-name="Agrave" unicode="&#xc0;" horiz-adv-x="1323" 
d="M425 1876l279 -260l-45 -53l-334 213zM205 20h-223q73 38 113 139l529 1328h55l542 -1340q37 -91 115 -127h-286q34 18 34 49q0 47 -21 98l-148 359h-578l-141 -369q-23 -60 -23 -90t32 -47zM888 604l-262 657l-260 -657h522z" />
    <glyph glyph-name="Aacute" unicode="&#xc1;" horiz-adv-x="1323" 
d="M845 1876l98 -100l-331 -213l-47 53zM205 20h-223q73 38 113 139l529 1328h55l542 -1340q37 -91 115 -127h-286q34 18 34 49q0 47 -21 98l-148 359h-578l-141 -369q-23 -60 -23 -90t32 -47zM888 604l-262 657l-260 -657h522z" />
    <glyph glyph-name="Acircumflex" unicode="&#xc2;" horiz-adv-x="1323" 
d="M597 1851h97l231 -213l-49 -43l-229 152l-232 -152l-49 43zM205 20h-223q73 38 113 139l529 1328h55l542 -1340q37 -91 115 -127h-286q34 18 34 49q0 47 -21 98l-148 359h-578l-141 -369q-23 -60 -23 -90t32 -47zM888 604l-262 657l-260 -657h522z" />
    <glyph glyph-name="Atilde" unicode="&#xc3;" horiz-adv-x="1323" 
d="M354 1661q61 141 184 141q75 0 178 -66q69 -45 127 -45q71 0 117 83l55 -37q-59 -140 -184 -140q-79 0 -182 66q-69 45 -123 45q-77 0 -119 -82zM205 20h-223q73 38 113 139l529 1328h55l542 -1340q37 -91 115 -127h-286q34 18 34 49q0 47 -21 98l-148 359h-578
l-141 -369q-23 -60 -23 -90t32 -47zM888 604l-262 657l-260 -657h522z" />
    <glyph glyph-name="Adieresis" unicode="&#xc4;" horiz-adv-x="1323" 
d="M429 1803q97 0 97 -97q0 -96 -97 -96q-96 0 -96 96q0 97 96 97zM862 1803q96 0 96 -97q0 -96 -96 -96q-97 0 -97 96q0 97 97 97zM205 20h-223q73 38 113 139l529 1328h55l542 -1340q37 -91 115 -127h-286q34 18 34 49q0 47 -21 98l-148 359h-578l-141 -369
q-23 -60 -23 -90t32 -47zM888 604l-262 657l-260 -657h522z" />
    <glyph glyph-name="Aring" unicode="&#xc5;" horiz-adv-x="1323" 
d="M649 1876q36 0 67 -14q96 -44 96 -146q0 -56 -37 -102q-50 -60 -126 -60q-40 0 -74 18q-90 47 -90 144q0 76 61 125q48 35 103 35zM649 1819q-103 0 -103 -103q0 -105 103 -105q102 0 102 105q0 103 -102 103zM205 20h-223q73 38 113 139l529 1328h55l542 -1340
q37 -91 115 -127h-286q34 18 34 49q0 47 -21 98l-148 359h-578l-141 -369q-23 -60 -23 -90t32 -47zM888 604l-262 657l-260 -657h522z" />
    <glyph glyph-name="AE" unicode="&#xc6;" horiz-adv-x="1842" 
d="M854 1388l-294 -595h321v595h-27zM813 20q37 14 52.5 47.5t15.5 91.5v556h-356l-293 -590q-13 -26 -13 -49q0 -37 62 -56h-297q110 39 170 159l584 1162q18 36 18 74q0 30 -45 47h1065l9 -152q-41 48 -123.5 68.5t-210.5 20.5h-255q-109 0 -147 -35q-31 -28 -31 -119
v-442h299q66 0 107.5 15.5t64.5 50.5v-201q-42 63 -172 63h-299v-492q0 -94 38 -123.5t140 -29.5h255q148 0 232.5 25.5t128.5 85.5l-12 -177h-987z" />
    <glyph glyph-name="Ccedilla" unicode="&#xc7;" horiz-adv-x="1452" 
d="M251 751q0 -242 100 -420q145 -258 443 -258q121 0 248 40.5t192 112.5q67 76 100 177v-265q-7 10 -18 10q-16 0 -58 -29q-77 -54 -205 -85.5t-249 -34.5l-42 -96q185 -2 185 -133q0 -158 -320 -161l-17 60q231 3 231 103q0 79 -171 81v28l55 120q-247 18 -421 193
q-114 115 -166.5 240t-52.5 301q0 363 221 585q194 195 479 195q123 0 259 -31.5t216 -88.5q42 -29 58 -29q11 0 18 10v-265q-33 101 -100 177q-65 72 -192 112.5t-248 40.5q-298 0 -443 -258q-102 -181 -102 -432z" />
    <glyph glyph-name="Egrave" unicode="&#xc8;" horiz-adv-x="1178" 
d="M472 1874l280 -260l-47 -53l-334 213zM172 1325q0 64 -15.5 94.5t-55.5 44.5h1011l10 -158q-73 93 -330 93h-301q-102 0 -141 -29t-39 -125v-442h317q133 0 175 68v-210q-45 70 -175 70h-317v-490q0 -93 39.5 -123t140.5 -30h301q149 0 231 24t126 84l-12 -176h-1034
q36 12 52.5 45t16.5 92v1168z" />
    <glyph glyph-name="Eacute" unicode="&#xc9;" horiz-adv-x="1178" 
d="M796 1874l99 -100l-332 -213l-47 53zM172 1325q0 64 -15.5 94.5t-55.5 44.5h1011l10 -158q-73 93 -330 93h-301q-102 0 -141 -29t-39 -125v-442h317q133 0 175 68v-210q-45 70 -175 70h-317v-490q0 -93 39.5 -123t140.5 -30h301q149 0 231 24t126 84l-12 -176h-1034
q36 12 52.5 45t16.5 92v1168z" />
    <glyph glyph-name="Ecircumflex" unicode="&#xca;" horiz-adv-x="1178" 
d="M563 1849h96l230 -213l-48 -43l-229 152l-231 -152l-47 43zM172 1325q0 64 -15.5 94.5t-55.5 44.5h1011l10 -158q-73 93 -330 93h-301q-102 0 -141 -29t-39 -125v-442h317q133 0 175 68v-210q-45 70 -175 70h-317v-490q0 -93 39.5 -123t140.5 -30h301q149 0 231 24
t126 84l-12 -176h-1034q36 12 52.5 45t16.5 92v1168z" />
    <glyph glyph-name="Edieresis" unicode="&#xcb;" horiz-adv-x="1178" 
d="M395 1803q99 0 99 -96q0 -99 -99 -99q-96 0 -96 96q0 99 96 99zM829 1801q97 0 97 -97q0 -96 -97 -96q-96 0 -96 96q0 97 96 97zM172 1325q0 64 -15.5 94.5t-55.5 44.5h1011l10 -158q-73 93 -330 93h-301q-102 0 -141 -29t-39 -125v-442h317q133 0 175 68v-210
q-45 70 -175 70h-317v-490q0 -93 39.5 -123t140.5 -30h301q149 0 231 24t126 84l-12 -176h-1034q36 12 52.5 45t16.5 92v1168z" />
    <glyph glyph-name="Igrave" unicode="&#xcc;" horiz-adv-x="496" 
d="M124 1874l281 -260l-47 -53l-334 213zM321 157q0 -58 16.5 -91t52.5 -46h-276q62 23 62 137v1166q0 63 -16.5 95.5t-55.5 45.5h292q-75 -28 -75 -141v-1166z" />
    <glyph glyph-name="Iacute" unicode="&#xcd;" horiz-adv-x="496" 
d="M374 1874l100 -100l-333 -213l-47 53zM321 157q0 -58 16.5 -91t52.5 -46h-276q62 23 62 137v1166q0 63 -16.5 95.5t-55.5 45.5h292q-75 -28 -75 -141v-1166z" />
    <glyph glyph-name="Icircumflex" unicode="&#xce;" horiz-adv-x="496" 
d="M200 1849h97l233 -213l-49 -43l-232 152l-231 -152l-47 43zM321 157q0 -58 16.5 -91t52.5 -46h-276q62 23 62 137v1166q0 63 -16.5 95.5t-55.5 45.5h292q-75 -28 -75 -141v-1166z" />
    <glyph glyph-name="Idieresis" unicode="&#xcf;" horiz-adv-x="496" 
d="M33 1803q98 0 98 -96q0 -99 -96 -99q-99 0 -99 96q0 99 97 99zM466 1801q97 0 97 -97q0 -96 -97 -96q-96 0 -96 96q0 97 96 97zM321 157q0 -58 16.5 -91t52.5 -46h-276q62 23 62 137v1166q0 63 -16.5 95.5t-55.5 45.5h292q-75 -28 -75 -141v-1166z" />
    <glyph glyph-name="Eth" unicode="&#xd0;" horiz-adv-x="1440" 
d="M172 1323q0 66 -15.5 96.5t-55.5 44.5h486q318 0 504 -137q264 -194 264 -582q0 -487 -387 -659q-150 -66 -391 -66h-472q67 24 67 137v551h-197v74h197v541zM315 239q0 -86 42.5 -116.5t139.5 -30.5h74q258 0 383 88q235 162 235 575q0 644 -618 644h-74
q-96 0 -139 -32.5t-43 -123.5v-461h460v-74h-460v-469z" />
    <glyph glyph-name="Ntilde" unicode="&#xd1;" horiz-adv-x="1391" 
d="M368 1659q58 141 184 141q75 0 178 -66q69 -45 127 -45q76 0 115 83l57 -37q-58 -140 -182 -140q-81 0 -172 58q-87 53 -137 53q-74 0 -117 -82zM1171 1327q0 58 -16 91t-51 46h231q-64 -26 -64 -137v-1327h-88l-924 1298h-6v-1139q0 -59 16 -92.5t51 -46.5h-231
q64 23 64 139v1160q0 63 -16 98t-51 47h224l855 -1204h6v1067z" />
    <glyph glyph-name="Ograve" unicode="&#xd2;" horiz-adv-x="1573" 
d="M695 1874l279 -260l-45 -53l-334 213zM787 1515q285 0 480 -195q221 -224 221 -571q0 -367 -223 -590q-193 -192 -478 -192q-284 0 -479 194q-223 223 -223 584q0 351 221 575q195 195 481 195zM787 1443q-250 0 -397 -205q-135 -187 -135 -489q0 -268 104 -449
q144 -254 428 -254q246 0 394 203q137 186 137 493q0 328 -154 519q-145 182 -377 182z" />
    <glyph glyph-name="Oacute" unicode="&#xd3;" horiz-adv-x="1573" 
d="M880 1874l98 -100l-331 -213l-47 53zM787 1515q285 0 480 -195q221 -224 221 -571q0 -367 -223 -590q-193 -192 -478 -192q-284 0 -479 194q-223 223 -223 584q0 351 221 575q195 195 481 195zM787 1443q-250 0 -397 -205q-135 -187 -135 -489q0 -268 104 -449
q144 -254 428 -254q246 0 394 203q137 186 137 493q0 328 -154 519q-145 182 -377 182z" />
    <glyph glyph-name="Ocircumflex" unicode="&#xd4;" horiz-adv-x="1573" 
d="M741 1849h97l229 -213l-49 -43l-228 152l-231 -152l-47 43zM787 1515q285 0 480 -195q221 -224 221 -571q0 -367 -223 -590q-193 -192 -478 -192q-284 0 -479 194q-223 223 -223 584q0 351 221 575q195 195 481 195zM787 1443q-250 0 -397 -205q-135 -187 -135 -489
q0 -268 104 -449q144 -254 428 -254q246 0 394 203q137 186 137 493q0 328 -154 519q-145 182 -377 182z" />
    <glyph glyph-name="Otilde" unicode="&#xd5;" horiz-adv-x="1573" 
d="M483 1659q56 141 185 141q75 0 178 -66q69 -45 127 -45q75 0 114 83l58 -37q-59 -140 -185 -140q-79 0 -182 66q-69 45 -123 45q-76 0 -118 -82zM787 1515q285 0 480 -195q221 -224 221 -571q0 -367 -223 -590q-193 -192 -478 -192q-284 0 -479 194q-223 223 -223 584
q0 351 221 575q195 195 481 195zM787 1443q-250 0 -397 -205q-135 -187 -135 -489q0 -268 104 -449q144 -254 428 -254q246 0 394 203q137 186 137 493q0 328 -154 519q-145 182 -377 182z" />
    <glyph glyph-name="Odieresis" unicode="&#xd6;" horiz-adv-x="1573" 
d="M574 1803q98 0 98 -96q0 -99 -98 -99q-97 0 -97 96q0 99 97 99zM1006 1801q98 0 98 -97q0 -96 -96 -96q-97 0 -97 96q0 97 95 97zM787 1515q285 0 480 -195q221 -224 221 -571q0 -367 -223 -590q-193 -192 -478 -192q-284 0 -479 194q-223 223 -223 584q0 351 221 575
q195 195 481 195zM787 1443q-250 0 -397 -205q-135 -187 -135 -489q0 -268 104 -449q144 -254 428 -254q246 0 394 203q137 186 137 493q0 328 -154 519q-145 182 -377 182z" />
    <glyph glyph-name="multiply" unicode="&#xd7;" horiz-adv-x="1389" 
d="M694 581l-354 -354l-70 70l354 356l-356 357l70 69l356 -356l356 354l70 -70l-354 -354l352 -352l-72 -72z" />
    <glyph glyph-name="Oslash" unicode="&#xd8;" horiz-adv-x="1573" 
d="M130 20l143 176q-188 226 -188 547q0 296 164 510q202 260 536 260q259 0 445 -162l121 148l65 -55l-125 -154q195 -226 195 -545q0 -255 -119 -453q-193 -325 -580 -325q-260 0 -452 168l-139 -170zM1162 1267q-147 172 -375 172q-255 0 -403 -213q-129 -187 -129 -481
q0 -268 102 -450zM1213 1196l-806 -973q144 -179 380 -179q248 0 392 205q137 192 137 500q0 264 -103 447z" />
    <glyph glyph-name="Ugrave" unicode="&#xd9;" horiz-adv-x="1360" 
d="M491 1874l280 -260l-47 -53l-334 213zM1151 1323q0 60 -16 93.5t-50 47.5h235q-69 -26 -69 -141v-723q0 -627 -557 -627q-576 0 -576 615v733q0 61 -19 95t-61 48h297q-40 -14 -57 -46.5t-17 -96.5v-713q0 -533 447 -533q443 0 443 533v715z" />
    <glyph glyph-name="Uacute" unicode="&#xda;" horiz-adv-x="1360" 
d="M905 1874l98 -100l-332 -213l-47 53zM1151 1323q0 60 -16 93.5t-50 47.5h235q-69 -26 -69 -141v-723q0 -627 -557 -627q-576 0 -576 615v733q0 61 -19 95t-61 48h297q-40 -14 -57 -46.5t-17 -96.5v-713q0 -533 447 -533q443 0 443 533v715z" />
    <glyph glyph-name="Ucircumflex" unicode="&#xdb;" horiz-adv-x="1360" 
d="M659 1849h94l231 -213l-49 -43l-227 152l-234 -152l-47 43zM1151 1323q0 60 -16 93.5t-50 47.5h235q-69 -26 -69 -141v-723q0 -627 -557 -627q-576 0 -576 615v733q0 61 -19 95t-61 48h297q-40 -14 -57 -46.5t-17 -96.5v-713q0 -533 447 -533q443 0 443 533v715z" />
    <glyph glyph-name="Udieresis" unicode="&#xdc;" horiz-adv-x="1360" 
d="M492 1801q96 0 96 -97q0 -96 -96 -96q-97 0 -97 96q0 97 97 97zM921 1801q99 0 99 -97q0 -96 -97 -96q-96 0 -96 96q0 97 94 97zM1151 1323q0 60 -16 93.5t-50 47.5h235q-69 -26 -69 -141v-723q0 -627 -557 -627q-576 0 -576 615v733q0 61 -19 95t-61 48h297
q-40 -14 -57 -46.5t-17 -96.5v-713q0 -533 447 -533q443 0 443 533v715z" />
    <glyph glyph-name="Yacute" unicode="&#xdd;" horiz-adv-x="1279" 
d="M767 1874l97 -100l-332 -213l-47 53zM503 20q62 24 62 137v428l-437 740q-59 101 -145 139h312q-34 -17 -34 -45q0 -42 37 -107l357 -626l391 662q20 34 20 62q0 35 -48 54h275q-92 -41 -163 -159l-424 -701v-447q0 -110 73 -137h-276z" />
    <glyph glyph-name="Thorn" unicode="&#xde;" horiz-adv-x="1257" 
d="M309 159q0 -62 16 -93t55 -46h-279q36 14 51.5 46.5t15.5 92.5v1162q0 62 -15 95.5t-52 45.5h278q-39 -13 -54.5 -48.5t-15.5 -107.5v-123h180q697 0 697 -436q0 -242 -238 -362q-167 -82 -455 -82h-184v-144zM309 1112v-738h121q598 0 598 367q0 371 -598 371h-121z" />
    <glyph glyph-name="germandbls" unicode="&#xdf;" horiz-adv-x="1042" 
d="M659 -4q-139 0 -218 57l27 105q74 -107 189 -107q68 0 114 68q60 87 60 243q0 363 -381 412v53q283 74 283 356q0 81 -33 137q-69 117 -197 117q-223 0 -223 -338v-964q0 -94 37 -115h-217l4 2q41 20 41 106v980q0 168 82 268q101 123 292 123q140 0 236 -72
q115 -93 115 -264q0 -164 -125 -264q-75 -60 -183 -84v-8q410 -59 410 -426q0 -188 -96 -293q-83 -92 -217 -92z" />
    <glyph glyph-name="agrave" unicode="&#xe0;" horiz-adv-x="966" 
d="M400 1505l250 -254l-46 -45l-305 201zM725 276v281l-86 -4q-426 -21 -426 -275q0 -94 59 -154q58 -57 146 -57q120 0 215 74q64 52 92 135zM739 165q-125 -179 -348 -179q-135 0 -225 71q-96 78 -96 209q0 323 551 357l104 6v37q0 153 -65 230.5t-187 77.5
q-82 0 -162 -37t-109 -90l-22 103q55 37 144 65t160 28q181 0 275.5 -90.5t94.5 -268.5l1 -555q0 -88 41 -109h-148z" />
    <glyph glyph-name="aacute" unicode="&#xe1;" horiz-adv-x="966" 
d="M645 1507l100 -98l-305 -201l-43 45zM725 276v281l-86 -4q-426 -21 -426 -275q0 -94 59 -154q58 -57 146 -57q120 0 215 74q64 52 92 135zM739 165q-125 -179 -348 -179q-135 0 -225 71q-96 78 -96 209q0 323 551 357l104 6v37q0 153 -65 230.5t-187 77.5q-82 0 -162 -37
t-109 -90l-22 103q55 37 144 65t160 28q181 0 275.5 -90.5t94.5 -268.5l1 -555q0 -88 41 -109h-148z" />
    <glyph glyph-name="acircumflex" unicode="&#xe2;" horiz-adv-x="966" 
d="M450 1441h88l205 -198l-39 -43l-211 137l-209 -137l-37 43zM725 276v281l-86 -4q-426 -21 -426 -275q0 -94 59 -154q58 -57 146 -57q120 0 215 74q64 52 92 135zM739 165q-125 -179 -348 -179q-135 0 -225 71q-96 78 -96 209q0 323 551 357l104 6v37q0 153 -65 230.5
t-187 77.5q-82 0 -162 -37t-109 -90l-22 103q55 37 144 65t160 28q181 0 275.5 -90.5t94.5 -268.5l1 -555q0 -88 41 -109h-148z" />
    <glyph glyph-name="atilde" unicode="&#xe3;" horiz-adv-x="966" 
d="M219 1308q33 125 159 125q67 0 158 -57q66 -41 102 -41q59 0 99 76l51 -39q-47 -121 -156 -121q-70 0 -159 55q-67 41 -107 41q-65 0 -96 -71zM725 276v281l-86 -4q-426 -21 -426 -275q0 -94 59 -154q58 -57 146 -57q120 0 215 74q64 52 92 135zM739 165
q-125 -179 -348 -179q-135 0 -225 71q-96 78 -96 209q0 323 551 357l104 6v37q0 153 -65 230.5t-187 77.5q-82 0 -162 -37t-109 -90l-22 103q55 37 144 65t160 28q181 0 275.5 -90.5t94.5 -268.5l1 -555q0 -88 41 -109h-148z" />
    <glyph glyph-name="adieresis" unicode="&#xe4;" horiz-adv-x="966" 
d="M313 1437q92 0 92 -90q0 -92 -90 -92q-92 0 -92 90q0 92 90 92zM675 1437q92 0 92 -90q0 -92 -90 -92q-92 0 -92 90q0 92 90 92zM725 276v281l-86 -4q-426 -21 -426 -275q0 -94 59 -154q58 -57 146 -57q120 0 215 74q64 52 92 135zM739 165q-125 -179 -348 -179
q-135 0 -225 71q-96 78 -96 209q0 323 551 357l104 6v37q0 153 -65 230.5t-187 77.5q-82 0 -162 -37t-109 -90l-22 103q55 37 144 65t160 28q181 0 275.5 -90.5t94.5 -268.5l1 -555q0 -88 41 -109h-148z" />
    <glyph glyph-name="aring" unicode="&#xe5;" horiz-adv-x="966" 
d="M487 1502q68 0 117 -49q45 -43 45 -107q0 -44 -21 -76q-45 -82 -139 -82q-36 0 -68 14q-94 43 -94 144q0 74 59 121q48 35 101 35zM489 1449q-105 0 -105 -103q0 -44 33 -74q32 -29 72 -29q41 0 72 31t31 72q0 103 -103 103zM725 276v281l-86 -4q-426 -21 -426 -275
q0 -94 59 -154q58 -57 146 -57q120 0 215 74q64 52 92 135zM739 165q-125 -179 -348 -179q-135 0 -225 71q-96 78 -96 209q0 323 551 357l104 6v37q0 153 -65 230.5t-187 77.5q-82 0 -162 -37t-109 -90l-22 103q55 37 144 65t160 28q181 0 275.5 -90.5t94.5 -268.5l1 -555
q0 -88 41 -109h-148z" />
    <glyph glyph-name="ae" unicode="&#xe6;" horiz-adv-x="1663" 
d="M1180 -12q-271 0 -388 229h-6q-120 -231 -393 -231q-110 0 -188 45q-133 77 -133 231q0 329 548 360l107 6l-1 38q-8 308 -252 308q-82 0 -162 -37t-109 -90l-22 103q55 37 144 65t160 28q259 0 338 -181q126 176 334 176q261 0 377 -217q59 -113 59 -246v-35h-737v-35
q0 -160 68 -274q95 -153 280 -153q220 0 340 213l25 -96q-132 -207 -389 -207zM1456 618q-3 148 -74 240q-88 113 -229 113q-134 0 -219 -125q-67 -94 -76 -228h598zM727 558l-88 -4q-424 -21 -424 -274q0 -79 43 -137q58 -76 160 -76q134 0 235 92q52 46 74 117v282z" />
    <glyph glyph-name="ccedilla" unicode="&#xe7;" horiz-adv-x="847" 
d="M222 513q0 -167 72 -296q89 -160 268 -160q159 0 233 112l27 -105q-109 -76 -267 -76l-37 -85q185 -2 185 -133q0 -158 -320 -161l-17 60q231 3 231 103q0 79 -171 81v28l52 112q-153 22 -258 130q-150 155 -150 390q0 240 150 395q131 135 335 135q158 0 267 -76
l-27 -105q-74 112 -233 112q-179 0 -268 -160q-72 -129 -72 -301z" />
    <glyph glyph-name="egrave" unicode="&#xe8;" horiz-adv-x="1055" 
d="M398 1507l250 -254l-45 -45l-306 201zM846 621q-6 176 -102 273q-83 80 -203 80q-143 0 -238 -125q-68 -89 -83 -228h626zM951 195q-132 -207 -389 -207q-214 0 -353 139q-139 143 -139 383q0 255 147 402q128 131 326 131q192 0 311 -123q131 -131 131 -340v-37h-772
v-35q0 -202 123 -328q103 -102 250 -102q220 0 340 213z" />
    <glyph glyph-name="eacute" unicode="&#xe9;" horiz-adv-x="1055" 
d="M693 1507l100 -98l-305 -201l-45 45zM846 621q-6 176 -102 273q-83 80 -203 80q-143 0 -238 -125q-68 -89 -83 -228h626zM951 195q-132 -207 -389 -207q-214 0 -353 139q-139 143 -139 383q0 255 147 402q128 131 326 131q192 0 311 -123q131 -131 131 -340v-37h-772v-35
q0 -202 123 -328q103 -102 250 -102q220 0 340 213z" />
    <glyph glyph-name="ecircumflex" unicode="&#xea;" horiz-adv-x="1055" 
d="M498 1441h88l205 -198l-39 -43l-211 137l-209 -137l-37 43zM846 621q-6 176 -102 273q-83 80 -203 80q-143 0 -238 -125q-68 -89 -83 -228h626zM951 195q-132 -207 -389 -207q-214 0 -353 139q-139 143 -139 383q0 255 147 402q128 131 326 131q192 0 311 -123
q131 -131 131 -340v-37h-772v-35q0 -202 123 -328q103 -102 250 -102q220 0 340 213z" />
    <glyph glyph-name="edieresis" unicode="&#xeb;" horiz-adv-x="1055" 
d="M361 1437q92 0 92 -90q0 -92 -90 -92q-92 0 -92 90q0 92 90 92zM721 1437q94 0 94 -90q0 -92 -92 -92q-90 0 -90 90q0 92 88 92zM846 621q-6 176 -102 273q-83 80 -203 80q-143 0 -238 -125q-68 -89 -83 -228h626zM951 195q-132 -207 -389 -207q-214 0 -353 139
q-139 143 -139 383q0 255 147 402q128 131 326 131q192 0 311 -123q131 -131 131 -340v-37h-772v-35q0 -202 123 -328q103 -102 250 -102q220 0 340 213z" />
    <glyph glyph-name="igrave" unicode="&#xec;" horiz-adv-x="419" 
d="M61 1505l250 -254l-45 -45l-305 201zM145 899q0 97 -50 115q96 9 185 27v-914q0 -84 39 -107h-218q44 27 44 107v772z" />
    <glyph glyph-name="iacute" unicode="&#xed;" horiz-adv-x="419" 
d="M359 1503l98 -96l-305 -201l-43 45zM145 899q0 97 -50 115q96 9 185 27v-914q0 -84 39 -107h-218q44 27 44 107v772z" />
    <glyph glyph-name="icircumflex" unicode="&#xee;" horiz-adv-x="419" 
d="M162 1439h88l205 -198l-39 -43l-211 137l-209 -137l-37 43zM145 899q0 97 -50 115q96 9 185 27v-914q0 -84 39 -107h-218q44 27 44 107v772z" />
    <glyph glyph-name="idieresis" unicode="&#xef;" horiz-adv-x="419" 
d="M25 1435q92 0 92 -90q0 -92 -90 -92q-92 0 -92 90q0 92 90 92zM385 1435q94 0 94 -90q0 -92 -90 -92q-92 0 -92 90q0 92 88 92zM145 899q0 97 -50 115q96 9 185 27v-914q0 -84 39 -107h-218q44 27 44 107v772z" />
    <glyph glyph-name="eth" unicode="&#xf0;" horiz-adv-x="1180" 
d="M772 1495l41 -60l-147 -90q405 -301 405 -798q0 -255 -121 -404q-132 -159 -356 -159q-259 0 -395 212q-84 134 -84 318q0 181 84 311q138 211 399 211q124 0 232 -67l8 4q-91 185 -266 317l-269 -168l-36 60l251 151q-132 77 -264 104l25 64q184 -37 319 -111zM598 971
q-153 0 -248 -123q-94 -125 -94 -332q0 -193 76 -311q94 -150 262 -150q153 0 246 127q92 123 92 334q0 210 -96 334q-93 121 -238 121z" />
    <glyph glyph-name="ntilde" unicode="&#xf1;" horiz-adv-x="1100" 
d="M260 1306q40 125 160 125q67 0 158 -57q66 -41 102 -41q65 0 98 76l51 -39q-46 -121 -155 -121q-71 0 -160 55q-66 41 -106 41q-66 0 -97 -71zM100 20q44 27 44 107v772q0 97 -49 115q94 8 178 27v-215q126 208 348 208q336 0 336 -368v-539q0 -79 43 -107h-221
q41 28 41 107v510q0 309 -228 309q-222 0 -311 -245v-574q0 -80 40 -107h-221z" />
    <glyph glyph-name="ograve" unicode="&#xf2;" horiz-adv-x="1113" 
d="M415 1511l250 -254l-45 -45l-305 201zM556 1047q202 0 339 -137q148 -148 148 -387q0 -253 -148 -400q-138 -135 -339 -135q-203 0 -339 135q-147 147 -147 395q0 244 150 394q135 135 336 135zM556 976q-152 0 -244 -129q-90 -125 -90 -329q0 -215 98 -338
q90 -115 236 -115q181 0 268 160q67 126 67 291q0 217 -98 343q-92 117 -237 117z" />
    <glyph glyph-name="oacute" unicode="&#xf3;" horiz-adv-x="1113" 
d="M712 1511l98 -98l-305 -201l-43 45zM556 1047q202 0 339 -137q148 -148 148 -387q0 -253 -148 -400q-138 -135 -339 -135q-203 0 -339 135q-147 147 -147 395q0 244 150 394q135 135 336 135zM556 976q-152 0 -244 -129q-90 -125 -90 -329q0 -215 98 -338
q90 -115 236 -115q181 0 268 160q67 126 67 291q0 217 -98 343q-92 117 -237 117z" />
    <glyph glyph-name="ocircumflex" unicode="&#xf4;" horiz-adv-x="1113" 
d="M517 1445h86l205 -198l-39 -43l-211 137l-209 -137l-36 43zM556 1047q202 0 339 -137q148 -148 148 -387q0 -253 -148 -400q-138 -135 -339 -135q-203 0 -339 135q-147 147 -147 395q0 244 150 394q135 135 336 135zM556 976q-152 0 -244 -129q-90 -125 -90 -329
q0 -215 98 -338q90 -115 236 -115q181 0 268 160q67 126 67 291q0 217 -98 343q-92 117 -237 117z" />
    <glyph glyph-name="otilde" unicode="&#xf5;" horiz-adv-x="1113" 
d="M286 1312q36 125 162 125q65 0 155 -57q67 -41 105 -41q63 0 96 76l53 -39q-49 -121 -153 -121q-72 0 -164 55q-66 41 -105 41q-65 0 -96 -71zM556 1047q202 0 339 -137q148 -148 148 -387q0 -253 -148 -400q-138 -135 -339 -135q-203 0 -339 135q-147 147 -147 395
q0 244 150 394q135 135 336 135zM556 976q-152 0 -244 -129q-90 -125 -90 -329q0 -215 98 -338q90 -115 236 -115q181 0 268 160q67 126 67 291q0 217 -98 343q-92 117 -237 117z" />
    <glyph glyph-name="odieresis" unicode="&#xf6;" horiz-adv-x="1113" 
d="M378 1443q94 0 94 -92t-92 -92t-92 92t90 92zM740 1441q92 0 92 -90q0 -92 -90 -92q-92 0 -92 90q0 92 90 92zM556 1047q202 0 339 -137q148 -148 148 -387q0 -253 -148 -400q-138 -135 -339 -135q-203 0 -339 135q-147 147 -147 395q0 244 150 394q135 135 336 135z
M556 976q-152 0 -244 -129q-90 -125 -90 -329q0 -215 98 -338q90 -115 236 -115q181 0 268 160q67 126 67 291q0 217 -98 343q-92 117 -237 117z" />
    <glyph glyph-name="divide" unicode="&#xf7;" horiz-adv-x="1389" 
d="M143 700h1102v-96h-1102v96zM694 1118q61 0 100 -42q33 -37 33 -91q0 -61 -43 -100q-37 -33 -90 -33q-60 0 -99 44q-34 37 -34 89q0 61 43 99q37 34 90 34zM694 448q61 0 100 -43q33 -37 33 -90q0 -61 -43 -100q-37 -33 -90 -33q-61 0 -99 43q-34 37 -34 90q0 61 43 100
q37 33 90 33z" />
    <glyph glyph-name="oslash" unicode="&#xf8;" horiz-adv-x="1113" 
d="M916 1053l57 -47l-82 -105q144 -155 144 -385q0 -216 -117 -360q-137 -168 -365 -168q-176 0 -313 112l-104 -129l-60 51l113 135q-119 150 -119 361q0 197 98 333q139 190 383 190q154 0 283 -86zM775 879q-90 93 -224 93q-146 0 -239 -121q-92 -123 -92 -335
q0 -163 45 -262zM822 815l-514 -633q92 -117 244 -117q154 0 244 121q92 120 92 332q0 182 -66 297z" />
    <glyph glyph-name="ugrave" unicode="&#xf9;" horiz-adv-x="1099" 
d="M399 1505l250 -254l-43 -45l-306 201zM823 902q0 94 -51 113q92 8 184 26v-914q0 -79 43 -107h-164l-10 166q-123 -206 -346 -206q-338 0 -338 366v553q0 104 -47 115q98 9 182 27v-664q0 -311 227 -311q120 0 204.5 78t115.5 194v564z" />
    <glyph glyph-name="uacute" unicode="&#xfa;" horiz-adv-x="1099" 
d="M696 1505l100 -98l-305 -201l-45 45zM823 902q0 94 -51 113q92 8 184 26v-914q0 -79 43 -107h-164l-10 166q-123 -206 -346 -206q-338 0 -338 366v553q0 104 -47 115q98 9 182 27v-664q0 -311 227 -311q120 0 204.5 78t115.5 194v564z" />
    <glyph glyph-name="ucircumflex" unicode="&#xfb;" horiz-adv-x="1099" 
d="M501 1439h88l203 -198l-37 -43l-211 137l-211 -137l-37 43zM823 902q0 94 -51 113q92 8 184 26v-914q0 -79 43 -107h-164l-10 166q-123 -206 -346 -206q-338 0 -338 366v553q0 104 -47 115q98 9 182 27v-664q0 -311 227 -311q120 0 204.5 78t115.5 194v564z" />
    <glyph glyph-name="udieresis" unicode="&#xfc;" horiz-adv-x="1099" 
d="M364 1435q92 0 92 -90q0 -92 -90 -92q-92 0 -92 90q0 92 90 92zM724 1437q94 0 94 -92t-92 -92t-92 92t90 92zM823 902q0 94 -51 113q92 8 184 26v-914q0 -79 43 -107h-164l-10 166q-123 -206 -346 -206q-338 0 -338 366v553q0 104 -47 115q98 9 182 27v-664
q0 -311 227 -311q120 0 204.5 78t115.5 194v564z" />
    <glyph glyph-name="yacute" unicode="&#xfd;" horiz-adv-x="962" 
d="M660 1505l101 -98l-306 -201l-45 45zM518 191l282 717q14 36 14 57q0 34 -31 53h190q-52 -29 -79 -94l-456 -1135q-72 -178 -213 -178q-34 0 -60 6l-11 101q0 -4 13.5 -9t26.5 -7l14 -3h50q68 0 116 125l80 215l-382 862q-40 91 -80 117h228q-25 -17 -25 -45
q0 -24 16 -61z" />
    <glyph glyph-name="thorn" unicode="&#xfe;" horiz-adv-x="1116" 
d="M318 -352h-218q39 23 39 108v1598q0 91 -41 113q97 8 178 28v-651q120 194 334 194q215 0 338 -172q98 -138 98 -344q0 -172 -74 -301q-126 -219 -362 -219q-220 0 -334 176v-422q0 -79 42 -108zM276 323q21 -70 62 -116q101 -123 262 -123q151 0 237 147q66 116 66 287
q0 158 -59 270q-90 166 -259 166q-207 0 -309 -255v-376z" />
    <glyph glyph-name="ydieresis" unicode="&#xff;" horiz-adv-x="962" 
d="M318 1435q94 0 94 -90q0 -92 -92 -92q-90 0 -90 90q0 92 88 92zM681 1435q92 0 92 -90q0 -92 -90 -92q-92 0 -92 90q0 92 90 92zM518 191l282 717q14 36 14 57q0 34 -31 53h190q-52 -29 -79 -94l-456 -1135q-72 -178 -213 -178q-34 0 -60 6l-11 101q0 -4 13.5 -9t26.5 -7
l14 -3h50q68 0 116 125l80 215l-382 862q-40 91 -80 117h228q-25 -17 -25 -45q0 -24 16 -61z" />
    <glyph glyph-name="Amacron" unicode="&#x100;" horiz-adv-x="1323" 
d="M399 1771h516v-92h-516v92zM205 20h-223q73 38 113 139l529 1328h55l542 -1340q37 -91 115 -127h-286q34 18 34 49q0 47 -21 98l-148 359h-578l-141 -369q-23 -60 -23 -90t32 -47zM888 604l-262 657l-260 -657h522z" />
    <glyph glyph-name="amacron" unicode="&#x101;" horiz-adv-x="966" 
d="M241 1368h518v-90h-518v90zM725 276v281l-86 -4q-426 -21 -426 -275q0 -94 59 -154q58 -57 146 -57q120 0 215 74q64 52 92 135zM739 165q-125 -179 -348 -179q-135 0 -225 71q-96 78 -96 209q0 323 551 357l104 6v37q0 153 -65 230.5t-187 77.5q-82 0 -162 -37t-109 -90
l-22 103q55 37 144 65t160 28q181 0 275.5 -90.5t94.5 -268.5l1 -555q0 -88 41 -109h-148z" />
    <glyph glyph-name="Abreve" unicode="&#x102;" horiz-adv-x="1323" 
d="M925 1831q-3 -112 -90 -172q-71 -49 -182 -49q-116 0 -191 53q-81 60 -84 168h62q21 -123 213 -123q187 0 209 123h63zM205 20h-223q73 38 113 139l529 1328h55l542 -1340q37 -91 115 -127h-286q34 18 34 49q0 47 -21 98l-148 359h-578l-141 -369q-23 -60 -23 -90t32 -47
zM888 604l-262 657l-260 -657h522z" />
    <glyph glyph-name="abreve" unicode="&#x103;" horiz-adv-x="966" 
d="M763 1450q-3 -211 -256 -211q-251 0 -254 211h58q21 -123 196 -123t197 123h59zM725 276v281l-86 -4q-426 -21 -426 -275q0 -94 59 -154q58 -57 146 -57q120 0 215 74q64 52 92 135zM739 165q-125 -179 -348 -179q-135 0 -225 71q-96 78 -96 209q0 323 551 357l104 6v37
q0 153 -65 230.5t-187 77.5q-82 0 -162 -37t-109 -90l-22 103q55 37 144 65t160 28q181 0 275.5 -90.5t94.5 -268.5l1 -555q0 -88 41 -109h-148z" />
    <glyph glyph-name="Aogonek" unicode="&#x104;" horiz-adv-x="1323" 
d="M888 604l-262 657l-260 -657h522zM205 20h-223q73 38 113 139l529 1328h55l542 -1340q19 -46 47.5 -77.5t67.5 -49.5h-49l-44 -41q-127 -120 -127 -187q0 -74 79 -74q74 0 143 61l25 -51q-92 -85 -198 -85q-158 0 -158 133q0 87 139 206l45 38h-141q34 18 34 49
q0 47 -21 98l-148 359h-578l-141 -369q-23 -60 -23 -90t32 -47z" />
    <glyph glyph-name="aogonek" unicode="&#x105;" horiz-adv-x="966" 
d="M725 276v281l-86 -4q-426 -21 -426 -275q0 -94 59 -154q58 -57 146 -57q120 0 215 74q64 52 92 135zM739 165q-125 -179 -348 -179q-135 0 -225 71q-96 78 -96 209q0 323 551 357l104 6v37q0 153 -65 230.5t-187 77.5q-82 0 -162 -37t-109 -90l-22 103q55 37 144 65
t160 28q181 0 275.5 -90.5t94.5 -268.5l1 -555q0 -88 41 -109l-44 -41q-127 -120 -127 -187q0 -74 79 -74q74 0 143 61l25 -51q-92 -85 -198 -85q-158 0 -158 133q0 87 139 206l45 38h-52z" />
    <glyph glyph-name="Cacute" unicode="&#x106;" horiz-adv-x="1452" 
d="M945 1874l98 -100l-331 -213l-47 53zM251 751q0 -242 100 -420q145 -258 443 -258q121 0 248 40.5t192 112.5q67 76 100 177v-265q-7 10 -18 10q-16 0 -58 -29q-80 -57 -216 -88.5t-259 -31.5q-285 0 -479 195q-114 115 -166.5 240t-52.5 301q0 363 221 585
q194 195 479 195q123 0 259 -31.5t216 -88.5q42 -29 58 -29q11 0 18 10v-265q-33 101 -100 177q-65 72 -192 112.5t-248 40.5q-298 0 -443 -258q-102 -181 -102 -432z" />
    <glyph glyph-name="cacute" unicode="&#x107;" horiz-adv-x="847" 
d="M699 1507l98 -98l-305 -201l-43 45zM222 513q0 -167 72 -296q89 -160 268 -160q159 0 233 112l27 -105q-109 -76 -267 -76q-204 0 -335 135q-150 155 -150 390q0 240 150 395q131 135 335 135q158 0 267 -76l-27 -105q-74 112 -233 112q-179 0 -268 -160
q-72 -129 -72 -301z" />
    <glyph glyph-name="Ccircumflex" unicode="&#x108;" horiz-adv-x="1452" 
d="M726 1849h96l230 -213l-49 -43l-228 152l-233 -152l-47 43zM251 751q0 -242 100 -420q145 -258 443 -258q121 0 248 40.5t192 112.5q67 76 100 177v-265q-7 10 -18 10q-16 0 -58 -29q-80 -57 -216 -88.5t-259 -31.5q-285 0 -479 195q-114 115 -166.5 240t-52.5 301
q0 363 221 585q194 195 479 195q123 0 259 -31.5t216 -88.5q42 -29 58 -29q11 0 18 10v-265q-33 101 -100 177q-65 72 -192 112.5t-248 40.5q-298 0 -443 -258q-102 -181 -102 -432z" />
    <glyph glyph-name="ccircumflex" unicode="&#x109;" horiz-adv-x="847" 
d="M512 1441h86l205 -198l-39 -43l-209 137l-211 -137l-36 43zM222 513q0 -167 72 -296q89 -160 268 -160q159 0 233 112l27 -105q-109 -76 -267 -76q-204 0 -335 135q-150 155 -150 390q0 240 150 395q131 135 335 135q158 0 267 -76l-27 -105q-74 112 -233 112
q-179 0 -268 -160q-72 -129 -72 -301z" />
    <glyph glyph-name="Cdotaccent" unicode="&#x10a;" horiz-adv-x="1452" 
d="M786 1803q99 0 99 -96q0 -99 -99 -99q-96 0 -96 96q0 99 96 99zM251 751q0 -242 100 -420q145 -258 443 -258q121 0 248 40.5t192 112.5q67 76 100 177v-265q-7 10 -18 10q-16 0 -58 -29q-80 -57 -216 -88.5t-259 -31.5q-285 0 -479 195q-114 115 -166.5 240t-52.5 301
q0 363 221 585q194 195 479 195q123 0 259 -31.5t216 -88.5q42 -29 58 -29q11 0 18 10v-265q-33 101 -100 177q-65 72 -192 112.5t-248 40.5q-298 0 -443 -258q-102 -181 -102 -432z" />
    <glyph glyph-name="cdotaccent" unicode="&#x10b;" horiz-adv-x="847" 
d="M542 1410q101 0 101 -100q0 -101 -101 -101q-100 0 -100 98q0 103 100 103zM222 513q0 -167 72 -296q89 -160 268 -160q159 0 233 112l27 -105q-109 -76 -267 -76q-204 0 -335 135q-150 155 -150 390q0 240 150 395q131 135 335 135q158 0 267 -76l-27 -105
q-74 112 -233 112q-179 0 -268 -160q-72 -129 -72 -301z" />
    <glyph glyph-name="Ccaron" unicode="&#x10c;" horiz-adv-x="1452" 
d="M555 1841l232 -153l229 153l49 -43l-231 -215h-95l-231 215zM251 751q0 -242 100 -420q145 -258 443 -258q121 0 248 40.5t192 112.5q67 76 100 177v-265q-7 10 -18 10q-16 0 -58 -29q-80 -57 -216 -88.5t-259 -31.5q-285 0 -479 195q-114 115 -166.5 240t-52.5 301
q0 363 221 585q194 195 479 195q123 0 259 -31.5t216 -88.5q42 -29 58 -29q11 0 18 10v-265q-33 101 -100 177q-65 72 -192 112.5t-248 40.5q-298 0 -443 -258q-102 -181 -102 -432z" />
    <glyph glyph-name="ccaron" unicode="&#x10d;" horiz-adv-x="847" 
d="M334 1474l211 -137l211 137l35 -43l-203 -200h-88l-203 200zM222 513q0 -167 72 -296q89 -160 268 -160q159 0 233 112l27 -105q-109 -76 -267 -76q-204 0 -335 135q-150 155 -150 390q0 240 150 395q131 135 335 135q158 0 267 -76l-27 -105q-74 112 -233 112
q-179 0 -268 -160q-72 -129 -72 -301z" />
    <glyph glyph-name="Dcaron" unicode="&#x10e;" horiz-adv-x="1440" 
d="M415 1841l232 -153l229 153l47 -43l-229 -215h-96l-230 215zM315 239q0 -86 42.5 -116.5t139.5 -30.5h74q258 0 383 88q235 162 235 575q0 644 -618 644h-74q-96 0 -139 -32.5t-43 -123.5v-1004zM172 1323q0 66 -15.5 96.5t-55.5 44.5h486q318 0 504 -137
q264 -194 264 -582q0 -487 -387 -659q-150 -66 -391 -66h-472q67 24 67 137v1166z" />
    <glyph glyph-name="dcaron" unicode="&#x10f;" horiz-adv-x="1120" 
d="M1055 1109q94 89 113 194q-103 4 -103 103q0 25 13 49q29 54 90 54q26 0 49 -13q54 -32 54 -95q0 -170 -189 -316zM215 520q0 -87 20.5 -165t59 -139.5t100.5 -97.5t140 -36q145 0 241 133q72 100 72 201v270q0 112 -125 201q-89 67 -197 67q-101 0 -173 -62.5t-105 -159
t-33 -212.5zM848 1354q0 97 -50 115q95 8 183 26v-1366q0 -82 40 -109h-167l-10 176q-119 -198 -338 -198q-202 0 -319 147.5t-117 368.5q0 254 147 401q123 123 291 123q214 0 340 -178v494z" />
    <glyph glyph-name="Dcroat" unicode="&#x110;" horiz-adv-x="1440" 
d="M172 1323q0 66 -15.5 96.5t-55.5 44.5h486q318 0 504 -137q264 -194 264 -582q0 -487 -387 -659q-150 -66 -391 -66h-472q67 24 67 137v551h-197v74h197v541zM315 239q0 -86 42.5 -116.5t139.5 -30.5h74q258 0 383 88q235 162 235 575q0 644 -618 644h-74
q-96 0 -139 -32.5t-43 -123.5v-461h360v-74h-360v-469z" />
    <glyph glyph-name="dcroat" unicode="&#x111;" horiz-adv-x="1120" 
d="M848 416v270q0 112 -125 201q-89 67 -197 67q-140 0 -227 -121q-84 -121 -84 -313q0 -206 96 -327q89 -111 224 -111q145 0 241 133q72 100 72 201zM848 1354q0 97 -50 115q95 8 183 26v-215h120v-90h-120v-1061q0 -82 40 -109h-167l-10 176q-119 -198 -338 -198
q-202 0 -319 147.5t-117 368.5q0 254 147 401q123 123 291 123q214 0 340 -178v330h-310v90h310v74z" />
    <glyph glyph-name="Emacron" unicode="&#x112;" horiz-adv-x="1178" 
d="M348 1769h518v-92h-518v92zM172 1325q0 64 -15.5 94.5t-55.5 44.5h1011l10 -158q-73 93 -330 93h-301q-102 0 -141 -29t-39 -125v-442h317q133 0 175 68v-210q-45 70 -175 70h-317v-490q0 -93 39.5 -123t140.5 -30h301q149 0 231 24t126 84l-12 -176h-1034q36 12 52.5 45
t16.5 92v1168z" />
    <glyph glyph-name="emacron" unicode="&#x113;" horiz-adv-x="1055" 
d="M289 1368h518v-90h-518v90zM846 621q-6 176 -102 273q-83 80 -203 80q-143 0 -238 -125q-68 -89 -83 -228h626zM951 195q-132 -207 -389 -207q-214 0 -353 139q-139 143 -139 383q0 255 147 402q128 131 326 131q192 0 311 -123q131 -131 131 -340v-37h-772v-35
q0 -202 123 -328q103 -102 250 -102q220 0 340 213z" />
    <glyph glyph-name="Ebreve" unicode="&#x114;" horiz-adv-x="1178" 
d="M890 1831q-3 -112 -90 -172q-71 -49 -182 -49q-116 0 -191 53q-81 60 -84 168h62q21 -123 213 -123q187 0 209 123h63zM172 1325q0 64 -15.5 94.5t-55.5 44.5h1011l10 -158q-73 93 -330 93h-301q-102 0 -141 -29t-39 -125v-442h317q133 0 175 68v-210q-45 70 -175 70
h-317v-490q0 -93 39.5 -123t140.5 -30h301q149 0 231 24t126 84l-12 -176h-1034q36 12 52.5 45t16.5 92v1168z" />
    <glyph glyph-name="ebreve" unicode="&#x115;" horiz-adv-x="1055" 
d="M793 1450q-3 -211 -256 -211q-251 0 -254 211h58q21 -123 196 -123t197 123h59zM846 621q-6 176 -102 273q-83 80 -203 80q-143 0 -238 -125q-68 -89 -83 -228h626zM951 195q-132 -207 -389 -207q-214 0 -353 139q-139 143 -139 383q0 255 147 402q128 131 326 131
q192 0 311 -123q131 -131 131 -340v-37h-772v-35q0 -202 123 -328q103 -102 250 -102q220 0 340 213z" />
    <glyph glyph-name="Edotaccent" unicode="&#x116;" horiz-adv-x="1178" 
d="M654 1835q102 0 102 -100q0 -105 -102 -105q-103 0 -103 102q0 103 103 103zM172 1325q0 64 -15.5 94.5t-55.5 44.5h1011l10 -158q-73 93 -330 93h-301q-102 0 -141 -29t-39 -125v-442h317q133 0 175 68v-210q-45 70 -175 70h-317v-490q0 -93 39.5 -123t140.5 -30h301
q149 0 231 24t126 84l-12 -176h-1034q36 12 52.5 45t16.5 92v1168z" />
    <glyph glyph-name="edotaccent" unicode="&#x117;" horiz-adv-x="1055" 
d="M541 1410q101 0 101 -100q0 -101 -101 -101q-100 0 -100 98q0 103 100 103zM846 621q-6 176 -102 273q-83 80 -203 80q-143 0 -238 -125q-68 -89 -83 -228h626zM951 195q-132 -207 -389 -207q-214 0 -353 139q-139 143 -139 383q0 255 147 402q128 131 326 131
q192 0 311 -123q131 -131 131 -340v-37h-772v-35q0 -202 123 -328q103 -102 250 -102q220 0 340 213z" />
    <glyph glyph-name="Eogonek" unicode="&#x118;" horiz-adv-x="1178" 
d="M172 1325q0 64 -15.5 94.5t-55.5 44.5h1011l10 -158q-73 93 -330 93h-301q-102 0 -141 -29t-39 -125v-442h317q133 0 175 68v-210q-45 70 -175 70h-317v-490q0 -93 39.5 -123t140.5 -30h301q149 0 231 24t126 84l-12 -176h-453l-60 -60q-127 -126 -127 -186q0 -74 79 -74
q74 0 143 61l25 -51q-93 -85 -198 -85q-159 0 -159 133q0 84 140 206l64 56h-488q36 12 52.5 45t16.5 92v1168z" />
    <glyph glyph-name="eogonek" unicode="&#x119;" horiz-adv-x="1055" 
d="M846 621q-6 176 -102 273q-83 80 -203 80q-143 0 -238 -125q-68 -89 -83 -228h626zM513 -10q-181 14 -304 137q-139 143 -139 383q0 255 147 402q128 131 326 131q192 0 311 -123q131 -131 131 -340v-37h-772v-35q0 -202 123 -328q103 -102 250 -102q220 0 340 213
l25 -96q-119 -187 -341 -205l-31 -30q-127 -120 -127 -186q0 -74 79 -74q74 0 143 61l25 -51q-93 -85 -198 -85q-159 0 -159 133q0 87 140 206z" />
    <glyph glyph-name="Ecaron" unicode="&#x11a;" horiz-adv-x="1178" 
d="M383 1841l229 -153l231 153l46 -43l-228 -215h-96l-231 215zM172 1325q0 64 -15.5 94.5t-55.5 44.5h1011l10 -158q-73 93 -330 93h-301q-102 0 -141 -29t-39 -125v-442h317q133 0 175 68v-210q-45 70 -175 70h-317v-490q0 -93 39.5 -123t140.5 -30h301q149 0 231 24
t126 84l-12 -176h-1034q36 12 52.5 45t16.5 92v1168z" />
    <glyph glyph-name="ecaron" unicode="&#x11b;" horiz-adv-x="1055" 
d="M344 1474l209 -137l211 137l37 -43l-205 -200h-86l-204 200zM846 621q-6 176 -102 273q-83 80 -203 80q-143 0 -238 -125q-68 -89 -83 -228h626zM951 195q-132 -207 -389 -207q-214 0 -353 139q-139 143 -139 383q0 255 147 402q128 131 326 131q192 0 311 -123
q131 -131 131 -340v-37h-772v-35q0 -202 123 -328q103 -102 250 -102q220 0 340 213z" />
    <glyph glyph-name="Gcircumflex" unicode="&#x11c;" horiz-adv-x="1417" 
d="M761 1849h96l230 -213l-49 -43l-228 152l-231 -152l-47 43zM1201 551q0 58 -15.5 91.5t-48.5 45.5h263q-64 -25 -64 -137v-525h-45l-63 119q-168 -174 -437 -174q-303 0 -497 194q-209 212 -209 568q0 364 223 587q93 93 249.5 144t307.5 51q225 0 395 -120
q42 -29 58 -29q11 0 18 10v-259q-33 95 -100 169q-137 155 -360 155q-159 0 -306.5 -67.5t-216.5 -190.5q-102 -186 -102 -438q0 -303 156 -495q157 -195 399 -195q227 0 344 141q51 61 51 154v201z" />
    <glyph glyph-name="gcircumflex" unicode="&#x11d;" horiz-adv-x="955" 
d="M452 1439h86l205 -198l-39 -43l-209 137l-211 -137l-37 43zM486 80q-320 0 -320 -194q0 -107 102 -166q88 -51 228 -51q200 0 295 98q51 51 51 121q0 192 -356 192zM475 967q-118 0 -194 -76q-76 -75 -76 -198q0 -258 272 -258q138 0 213 82q64 69 64 184q0 112 -74 186
q-77 80 -205 80zM693 998q110 128 225 128q38 0 62 -12l-37 -71q-67 9 -117.5 -14t-77.5 -60q137 -91 137 -270q0 -187 -158 -277q-99 -57 -227 -57q-83 0 -178 24q-74 -30 -74 -86q0 -101 227 -116l115 -9q387 -27 387 -276q0 -130 -117 -213q-130 -94 -362 -94
q-202 0 -334 74q-133 74 -133 204q0 198 297 244v6q-195 43 -195 158q0 100 123 137q-186 82 -186 270q0 166 139 268q113 82 268 82q124 0 216 -40z" />
    <glyph glyph-name="Gbreve" unicode="&#x11e;" horiz-adv-x="1417" 
d="M1089 1831q-3 -112 -90 -172q-71 -49 -182 -49q-116 0 -191 53q-81 60 -84 168h62q21 -123 213 -123q187 0 209 123h63zM1201 551q0 58 -15.5 91.5t-48.5 45.5h263q-64 -25 -64 -137v-525h-45l-63 119q-168 -174 -437 -174q-303 0 -497 194q-209 212 -209 568
q0 364 223 587q93 93 249.5 144t307.5 51q225 0 395 -120q42 -29 58 -29q11 0 18 10v-259q-33 95 -100 169q-137 155 -360 155q-159 0 -306.5 -67.5t-216.5 -190.5q-102 -186 -102 -438q0 -303 156 -495q157 -195 399 -195q227 0 344 141q51 61 51 154v201z" />
    <glyph glyph-name="gbreve" unicode="&#x11f;" horiz-adv-x="955" 
d="M756 1450q-3 -211 -256 -211q-251 0 -254 211h58q21 -123 196 -123t197 123h59zM486 80q-320 0 -320 -194q0 -107 102 -166q88 -51 228 -51q200 0 295 98q51 51 51 121q0 192 -356 192zM475 967q-118 0 -194 -76q-76 -75 -76 -198q0 -258 272 -258q138 0 213 82
q64 69 64 184q0 112 -74 186q-77 80 -205 80zM693 998q110 128 225 128q38 0 62 -12l-37 -71q-67 9 -117.5 -14t-77.5 -60q137 -91 137 -270q0 -187 -158 -277q-99 -57 -227 -57q-83 0 -178 24q-74 -30 -74 -86q0 -101 227 -116l115 -9q387 -27 387 -276q0 -130 -117 -213
q-130 -94 -362 -94q-202 0 -334 74q-133 74 -133 204q0 198 297 244v6q-195 43 -195 158q0 100 123 137q-186 82 -186 270q0 166 139 268q113 82 268 82q124 0 216 -40z" />
    <glyph glyph-name="Gdotaccent" unicode="&#x120;" horiz-adv-x="1417" 
d="M786 1803q99 0 99 -96q0 -99 -99 -99q-96 0 -96 96q0 99 96 99zM1201 551q0 58 -15.5 91.5t-48.5 45.5h263q-64 -25 -64 -137v-525h-45l-63 119q-168 -174 -437 -174q-303 0 -497 194q-209 212 -209 568q0 364 223 587q93 93 249.5 144t307.5 51q225 0 395 -120
q42 -29 58 -29q11 0 18 10v-259q-33 95 -100 169q-137 155 -360 155q-159 0 -306.5 -67.5t-216.5 -190.5q-102 -186 -102 -438q0 -303 156 -495q157 -195 399 -195q227 0 344 141q51 61 51 154v201z" />
    <glyph glyph-name="gdotaccent" unicode="&#x121;" horiz-adv-x="955" 
d="M481 1410q101 0 101 -100q0 -101 -101 -101q-100 0 -100 98q0 103 100 103zM486 80q-320 0 -320 -194q0 -107 102 -166q88 -51 228 -51q200 0 295 98q51 51 51 121q0 192 -356 192zM475 967q-118 0 -194 -76q-76 -75 -76 -198q0 -258 272 -258q138 0 213 82q64 69 64 184
q0 112 -74 186q-77 80 -205 80zM693 998q110 128 225 128q38 0 62 -12l-37 -71q-67 9 -117.5 -14t-77.5 -60q137 -91 137 -270q0 -187 -158 -277q-99 -57 -227 -57q-83 0 -178 24q-74 -30 -74 -86q0 -101 227 -116l115 -9q387 -27 387 -276q0 -130 -117 -213
q-130 -94 -362 -94q-202 0 -334 74q-133 74 -133 204q0 198 297 244v6q-195 43 -195 158q0 100 123 137q-186 82 -186 270q0 166 139 268q113 82 268 82q124 0 216 -40z" />
    <glyph glyph-name="uni0122" unicode="&#x122;" horiz-adv-x="1417" 
d="M643 -497q94 89 113 194q-103 4 -103 103q0 25 13 49q29 54 90 54q26 0 49 -13q54 -32 54 -95q0 -170 -189 -316zM1201 551q0 58 -15.5 91.5t-48.5 45.5h263q-64 -25 -64 -137v-525h-45l-63 119q-168 -174 -437 -174q-303 0 -497 194q-209 212 -209 568q0 364 223 587
q93 93 249.5 144t307.5 51q225 0 395 -120q42 -29 58 -29q11 0 18 10v-259q-33 95 -100 169q-137 155 -360 155q-159 0 -306.5 -67.5t-216.5 -190.5q-102 -186 -102 -438q0 -303 156 -495q157 -195 399 -195q227 0 344 141q51 61 51 154v201z" />
    <glyph glyph-name="uni0123" unicode="&#x123;" horiz-adv-x="955" 
d="M593 1583q-94 -89 -113 -194q103 -4 103 -103q0 -25 -12 -49q-30 -54 -91 -54q-25 0 -49 13q-54 32 -54 95q0 170 190 316zM486 80q-320 0 -320 -194q0 -107 102 -166q88 -51 228 -51q200 0 295 98q51 51 51 121q0 192 -356 192zM475 967q-118 0 -194 -76
q-76 -75 -76 -198q0 -258 272 -258q138 0 213 82q64 69 64 184q0 112 -74 186q-77 80 -205 80zM693 998q110 128 225 128q38 0 62 -12l-37 -71q-67 9 -117.5 -14t-77.5 -60q137 -91 137 -270q0 -187 -158 -277q-99 -57 -227 -57q-83 0 -178 24q-74 -30 -74 -86
q0 -101 227 -116l115 -9q387 -27 387 -276q0 -130 -117 -213q-130 -94 -362 -94q-202 0 -334 74q-133 74 -133 204q0 198 297 244v6q-195 43 -195 158q0 100 123 137q-186 82 -186 270q0 166 139 268q113 82 268 82q124 0 216 -40z" />
    <glyph glyph-name="Hcircumflex" unicode="&#x124;" horiz-adv-x="1397" 
d="M653 1849h94l232 -213l-50 -43l-229 152l-231 -152l-47 43zM313 157q0 -59 15.5 -91.5t49.5 -45.5h-273q67 25 67 137v1166q0 61 -17 94.5t-55 46.5h284q-37 -13 -54 -46t-17 -95v-514h771v512q0 61 -21 94.5t-65 48.5h303q-41 -13 -58.5 -45.5t-17.5 -97.5v-1164
q0 -109 70 -137h-275q64 28 64 137v570h-771v-570z" />
    <glyph glyph-name="hcircumflex" unicode="&#x125;" horiz-adv-x="1095" 
d="M221 1810h88l203 -198l-37 -43l-211 135l-209 -135l-37 43zM143 1356q0 97 -52 114q98 8 187 25v-659q132 198 342 198q336 0 336 -368v-539q0 -84 39 -107h-216q40 28 40 107v510q0 309 -227 309q-222 0 -314 -245v-574q0 -84 39 -107h-217q43 27 43 107v1229z" />
    <glyph glyph-name="Hbar" unicode="&#x126;" horiz-adv-x="1397" 
d="M313 157q0 -59 15.5 -91.5t49.5 -45.5h-273q67 25 67 137v1033h-187v90h187v43q0 61 -17 94.5t-55 46.5h284q-37 -13 -54 -46t-17 -95v-43l771 -2v43q0 61 -21 94.5t-65 48.5h303q-41 -13 -58.5 -45.5t-17.5 -97.5v-43h187v-90h-187v-1031q0 -109 70 -137h-275
q64 28 64 137v570h-771v-570zM313 1190v-381h771v379z" />
    <glyph glyph-name="hbar" unicode="&#x127;" horiz-adv-x="1095" 
d="M143 1356q0 97 -52 114q98 8 187 25v-215h254v-90h-254v-354q132 198 342 198q336 0 336 -368v-539q0 -84 39 -107h-216q40 28 40 107v510q0 309 -227 309q-222 0 -314 -245v-574q0 -84 39 -107h-217q43 27 43 107v1063h-158v90h158v76z" />
    <glyph glyph-name="Itilde" unicode="&#x128;" horiz-adv-x="496" 
d="M-72 1661q61 141 184 141q75 0 178 -66q69 -45 127 -45q71 0 117 83l55 -37q-59 -140 -184 -140q-79 0 -182 66q-69 45 -123 45q-77 0 -119 -82zM321 157q0 -58 16.5 -91t52.5 -46h-276q62 23 62 137v1166q0 63 -16.5 95.5t-55.5 45.5h292q-75 -28 -75 -141v-1166z" />
    <glyph glyph-name="itilde" unicode="&#x129;" horiz-adv-x="419" 
d="M-81 1308q33 125 159 125q67 0 158 -57q66 -41 102 -41q59 0 99 76l51 -39q-47 -121 -156 -121q-70 0 -159 55q-67 41 -107 41q-65 0 -96 -71zM145 899q0 97 -50 115q96 9 185 27v-914q0 -84 39 -107h-218q44 27 44 107v772z" />
    <glyph glyph-name="Imacron" unicode="&#x12a;" horiz-adv-x="496" 
d="M-9 1769h519v-92h-519v92zM321 157q0 -58 16.5 -91t52.5 -46h-276q62 23 62 137v1166q0 63 -16.5 95.5t-55.5 45.5h292q-75 -28 -75 -141v-1166z" />
    <glyph glyph-name="imacron" unicode="&#x12b;" horiz-adv-x="419" 
d="M-49 1366h518v-90h-518v90zM145 899q0 97 -50 115q96 9 185 27v-914q0 -84 39 -107h-218q44 27 44 107v772z" />
    <glyph glyph-name="Ibreve" unicode="&#x12c;" horiz-adv-x="496" 
d="M523 1831q-3 -112 -90 -172q-71 -49 -182 -49q-116 0 -191 53q-81 60 -84 168h62q21 -123 213 -123q187 0 209 123h63zM321 157q0 -58 16.5 -91t52.5 -46h-276q62 23 62 137v1166q0 63 -16.5 95.5t-55.5 45.5h292q-75 -28 -75 -141v-1166z" />
    <glyph glyph-name="ibreve" unicode="&#x12d;" horiz-adv-x="419" 
d="M466 1450q-3 -211 -256 -211q-251 0 -254 211h58q21 -123 196 -123t197 123h59zM145 899q0 97 -50 115q96 9 185 27v-914q0 -84 39 -107h-218q44 27 44 107v772z" />
    <glyph glyph-name="Iogonek" unicode="&#x12e;" horiz-adv-x="496" 
d="M321 157q0 -58 16.5 -91t52.5 -46h-47l-60 -60q-127 -126 -127 -186q0 -74 79 -74q74 0 143 61l25 -51q-93 -85 -198 -85q-159 0 -159 133q0 84 140 206l64 56h-136q62 23 62 137v1166q0 63 -16.5 95.5t-55.5 45.5h292q-75 -28 -75 -141v-1166z" />
    <glyph glyph-name="iogonek" unicode="&#x12f;" horiz-adv-x="419" 
d="M212 1470q43 0 74 -31t31 -74q0 -102 -105 -102q-102 0 -102 102q0 105 102 105zM145 899q0 97 -50 115q96 9 185 27v-914q0 -84 39 -107h-13l-61 -60q-127 -124 -127 -186q0 -74 79 -74q74 0 143 61l25 -51q-93 -85 -198 -85q-159 0 -159 133q0 84 140 206l64 56h-111
q44 27 44 107v772z" />
    <glyph glyph-name="Idotaccent" unicode="&#x130;" horiz-adv-x="496" 
d="M245 1806q98 0 98 -96q0 -99 -96 -99q-99 0 -99 96q0 99 97 99zM321 157q0 -58 16.5 -91t52.5 -46h-276q62 23 62 137v1166q0 63 -16.5 95.5t-55.5 45.5h292q-75 -28 -75 -141v-1166z" />
    <glyph glyph-name="dotlessi" unicode="&#x131;" horiz-adv-x="419" 
d="M145 899q0 97 -50 115q96 9 185 27v-914q0 -84 39 -107h-218q44 27 44 107v772z" />
    <glyph glyph-name="IJ" unicode="&#x132;" horiz-adv-x="946" 
d="M659 1323q0 61 -17 94t-54 47h285q-36 -13 -52.5 -46.5t-16.5 -94.5v-1312q0 -411 -346 -411q-124 0 -215 65l33 100q34 -92 172 -92q137 0 186 127q25 65 25 248v1275zM321 157q0 -58 16.5 -91t52.5 -46h-276q62 23 62 137v1166q0 63 -16.5 95.5t-55.5 45.5h292
q-75 -28 -75 -141v-1166z" />
    <glyph glyph-name="ij" unicode="&#x133;" horiz-adv-x="801" 
d="M635 1470q43 0 74 -31t31 -74q0 -102 -105 -102q-102 0 -102 102q0 105 102 105zM568 900q0 96 -50 115q96 8 183 26v-1100q0 -348 -287 -348q-71 0 -125 29l41 61q29 -35 84 -35q154 0 154 274v978zM212 1470q44 0 74 -31q31 -31 31 -74q0 -102 -105 -102
q-102 0 -102 102q0 105 102 105zM145 899q0 97 -50 115q96 9 185 27v-914q0 -84 39 -107h-218q44 27 44 107v772z" />
    <glyph glyph-name="Jcircumflex" unicode="&#x134;" horiz-adv-x="450" 
d="M164 1849h94l234 -213l-49 -43l-232 152l-231 -152l-47 43zM163 1323q0 61 -17 94t-54 47h285q-36 -13 -52.5 -46.5t-16.5 -94.5v-1312q0 -411 -346 -411q-124 0 -215 65l33 100q34 -92 172 -92q137 0 186 127q25 65 25 248v1275z" />
    <glyph glyph-name="jcircumflex" unicode="&#x135;" horiz-adv-x="382" 
d="M153 1442h88l205 -198l-39 -43l-211 137l-209 -137l-37 43zM-89 -317q29 -35 84 -35q154 0 154 274v978q0 96 -49 114q-1 0 -1 1q96 8 183 26v-1100q0 -348 -287 -348q-71 0 -125 29z" />
    <glyph glyph-name="uni0136" unicode="&#x136;" horiz-adv-x="1327" 
d="M527 -397q94 89 113 194q-103 4 -103 103q0 25 12 49q30 54 91 54q25 0 49 -13q54 -32 54 -95q0 -170 -190 -316zM393 1464q-37 -13 -55 -47.5t-18 -95.5v-592l656 631q41 39 41 67q0 23 -25 37h266q-91 -33 -171 -108l-529 -502l601 -726q31 -38 68.5 -65t79.5 -43h-305
q20 12 20 31q0 26 -72 114l-491 603l-139 -131v-480q0 -56 17 -89.5t53 -47.5h-273q64 25 64 137v1162q0 62 -20 96.5t-63 48.5h295z" />
    <glyph glyph-name="uni0137" unicode="&#x137;" horiz-adv-x="1048" 
d="M412 -397q94 89 113 194q-103 4 -103 103q0 25 12 49q30 54 91 54q25 0 49 -13q54 -32 54 -95q0 -170 -190 -316zM143 1356q0 97 -52 114q98 8 187 25v-969l453 377q64 53 64 81q0 14 -17 24h242q-76 -28 -158 -95l-367 -299l394 -471q37 -44 72 -75t69 -48h-239
q8 8 8 20q0 23 -47 80l-351 423l-123 -103v-313q0 -84 39 -107h-217q43 27 43 107v1229z" />
    <glyph glyph-name="kgreenlandic" unicode="&#x138;" horiz-adv-x="1048" 
d="M145 899q0 97 -50 115q96 9 185 27v-513l451 375q64 53 64 81q0 14 -17 24h242q-76 -28 -158 -95l-367 -299l394 -471q74 -88 141 -123h-239q8 8 8 20q0 23 -47 80l-351 423l-121 -101v-315q0 -84 39 -107h-218q44 27 44 107v772z" />
    <glyph glyph-name="Lacute" unicode="&#x139;" horiz-adv-x="1108" 
d="M472 1874l100 -100l-334 -213l-47 53zM739 88q139 0 224 27t125 86l-12 -181h-963q66 23 66 137v1164q0 62 -19.5 95.5t-61.5 47.5h299q-40 -13 -57.5 -45.5t-17.5 -97.5v-1082q0 -90 33 -117q41 -34 139 -34h245z" />
    <glyph glyph-name="lacute" unicode="&#x13a;" horiz-adv-x="418" 
d="M298 1876l100 -98l-305 -203l-45 47zM144 1356q0 97 -53 114q97 8 188 25v-1369q0 -79 39 -106h-218q44 26 44 106v1230z" />
    <glyph glyph-name="uni013B" unicode="&#x13b;" horiz-adv-x="1108" 
d="M515 -449q94 89 113 194q-103 4 -103 103q0 25 13 49q29 54 90 54q26 0 49 -13q54 -32 54 -95q0 -170 -189 -316zM739 88q139 0 224 27t125 86l-12 -181h-963q66 23 66 137v1164q0 62 -19.5 95.5t-61.5 47.5h299q-40 -13 -57.5 -45.5t-17.5 -97.5v-1082q0 -90 33 -117
q41 -34 139 -34h245z" />
    <glyph glyph-name="uni013C" unicode="&#x13c;" horiz-adv-x="418" 
d="M94 -449q94 89 113 194q-103 4 -103 103q0 25 13 49q29 54 90 54q26 0 49 -13q54 -32 54 -95q0 -170 -189 -316zM144 1356q0 97 -53 114q97 8 188 25v-1369q0 -79 39 -106h-218q44 26 44 106v1230z" />
    <glyph glyph-name="Lcaron" unicode="&#x13d;" horiz-adv-x="1108" 
d="M541 1111q93 89 112 194q-103 4 -103 103q0 25 13 49q30 54 90 54q26 0 49 -13q55 -32 55 -95q0 -170 -190 -316zM739 88q139 0 224 27t125 86l-12 -181h-963q66 23 66 137v1164q0 62 -19.5 95.5t-61.5 47.5h299q-40 -13 -57.5 -45.5t-17.5 -97.5v-1082q0 -90 33 -117
q41 -34 139 -34h245z" />
    <glyph glyph-name="lcaron" unicode="&#x13e;" horiz-adv-x="418" 
d="M353 1109q94 89 113 194q-103 4 -103 103q0 25 13 49q29 54 90 54q26 0 49 -13q54 -32 54 -95q0 -170 -189 -316zM144 1356q0 97 -53 114q97 8 188 25v-1369q0 -79 39 -106h-218q44 26 44 106v1230z" />
    <glyph glyph-name="Ldot" unicode="&#x13f;" horiz-adv-x="1108" 
d="M648 912q24 0 49 -12q61 -31 61 -100q0 -34 -18 -62q-34 -49 -92 -49q-48 0 -82 35q-31 34 -31 76q0 54 43 87q31 25 70 25zM739 88q139 0 224 27t125 86l-12 -181h-963q66 23 66 137v1164q0 62 -19.5 95.5t-61.5 47.5h299q-40 -13 -57.5 -45.5t-17.5 -97.5v-1082
q0 -90 33 -117q41 -34 139 -34h245z" />
    <glyph glyph-name="ldot" unicode="&#x140;" horiz-adv-x="418" 
d="M483 912q24 0 49 -12q61 -31 61 -100q0 -34 -18 -62q-34 -49 -92 -49q-48 0 -82 35q-31 34 -31 76q0 54 43 87q31 25 70 25zM144 1356q0 97 -53 114q97 8 188 25v-1369q0 -79 39 -106h-218q44 26 44 106v1230z" />
    <glyph glyph-name="Lslash" unicode="&#x141;" horiz-adv-x="1108" 
d="M739 88q139 0 224 27t125 86l-12 -181h-963q66 23 66 137v520l-168 -135l-20 82l188 150v547q0 62 -19.5 95.5t-61.5 47.5h299q-40 -13 -57.5 -45.5t-17.5 -97.5v-467l256 205l23 -78l-279 -222v-520q0 -90 33 -117q41 -34 139 -34h245z" />
    <glyph glyph-name="lslash" unicode="&#x142;" horiz-adv-x="418" 
d="M144 1356q0 97 -53 114q97 8 188 25v-636l184 152l24 -82l-208 -161v-642q0 -79 39 -106h-218q44 26 44 106v564l-181 -146l-20 80l201 159v573z" />
    <glyph glyph-name="Nacute" unicode="&#x143;" horiz-adv-x="1391" 
d="M884 1874l98 -100l-331 -213l-47 53zM1171 1327q0 58 -16 91t-51 46h231q-64 -26 -64 -137v-1327h-88l-924 1298h-6v-1139q0 -59 16 -92.5t51 -46.5h-231q64 23 64 139v1160q0 63 -16 98t-51 47h224l855 -1204h6v1067z" />
    <glyph glyph-name="nacute" unicode="&#x144;" horiz-adv-x="1100" 
d="M722 1505l100 -98l-305 -201l-45 45zM100 20q44 27 44 107v772q0 97 -49 115q94 8 178 27v-215q126 208 348 208q336 0 336 -368v-539q0 -79 43 -107h-221q41 28 41 107v510q0 309 -228 309q-222 0 -311 -245v-574q0 -80 40 -107h-221z" />
    <glyph glyph-name="uni0145" unicode="&#x145;" horiz-adv-x="1391" 
d="M573 -397q94 89 113 194q-103 4 -103 103q0 25 12 49q30 54 91 54q25 0 49 -13q54 -32 54 -95q0 -170 -190 -316zM1171 1327q0 58 -16 91t-51 46h231q-64 -26 -64 -137v-1327h-88l-924 1298h-6v-1139q0 -59 16 -92.5t51 -46.5h-231q64 23 64 139v1160q0 63 -16 98t-51 47
h224l855 -1204h6v1067z" />
    <glyph glyph-name="uni0146" unicode="&#x146;" horiz-adv-x="1100" 
d="M435 -397q94 89 113 194q-103 4 -103 103q0 25 12 49q30 54 91 54q25 0 49 -13q54 -32 54 -95q0 -170 -190 -316zM100 20q44 27 44 107v772q0 97 -49 115q94 8 178 27v-215q126 208 348 208q336 0 336 -368v-539q0 -79 43 -107h-221q41 28 41 107v510q0 309 -228 309
q-222 0 -311 -245v-574q0 -80 40 -107h-221z" />
    <glyph glyph-name="Ncaron" unicode="&#x147;" horiz-adv-x="1391" 
d="M464 1841l232 -153l227 153l49 -43l-229 -215h-96l-232 215zM1171 1327q0 58 -16 91t-51 46h231q-64 -26 -64 -137v-1327h-88l-924 1298h-6v-1139q0 -59 16 -92.5t51 -46.5h-231q64 23 64 139v1160q0 63 -16 98t-51 47h224l855 -1204h6v1067z" />
    <glyph glyph-name="ncaron" unicode="&#x148;" horiz-adv-x="1100" 
d="M347 1472l209 -137l211 137l37 -43l-205 -200h-86l-205 200zM100 20q44 27 44 107v772q0 97 -49 115q94 8 178 27v-215q126 208 348 208q336 0 336 -368v-539q0 -79 43 -107h-221q41 28 41 107v510q0 309 -228 309q-222 0 -311 -245v-574q0 -80 40 -107h-221z" />
    <glyph glyph-name="napostrophe" unicode="&#x149;" horiz-adv-x="1534" 
d="M534 20q44 27 44 107v772q0 97 -49 115h-1q98 9 179 27v-215q126 208 348 208q336 0 336 -368v-539q0 -79 43 -107h-221q41 28 41 107v510q0 309 -228 309q-222 0 -311 -245v-574q0 -80 40 -107h-221zM194 1020l-38 215q-20 109 -23 176v96h168v-96q-3 -67 -23 -176
l-38 -215h-46z" />
    <glyph glyph-name="Eng" unicode="&#x14a;" horiz-adv-x="1391" 
d="M1171 17l-912 1281h-6v-1139q0 -59 16 -92.5t51 -46.5h-231q64 23 64 139v1160q0 63 -16 98t-51 47h224l855 -1204h6v1067q0 58 -16 91t-51 46h231q-64 -26 -64 -137v-1386q0 -348 -287 -348q-71 0 -125 29l41 61q29 -35 84 -35q81 0 134 71t53 203v95z" />
    <glyph glyph-name="eng" unicode="&#x14b;" horiz-adv-x="1100" 
d="M953 -59q-1 -348 -287 -348q-71 0 -125 29l41 61q29 -35 84 -35q154 0 154 274v715q0 309 -228 309q-222 0 -311 -245v-574q0 -80 40 -107h-221q44 27 44 107v772q0 97 -49 115q94 8 178 27v-215q126 208 348 208q338 0 336 -368z" />
    <glyph glyph-name="Omacron" unicode="&#x14c;" horiz-adv-x="1573" 
d="M529 1769h517v-92h-517v92zM787 1515q285 0 480 -195q221 -224 221 -571q0 -367 -223 -590q-193 -192 -478 -192q-284 0 -479 194q-223 223 -223 584q0 351 221 575q195 195 481 195zM787 1443q-250 0 -397 -205q-135 -187 -135 -489q0 -268 104 -449q144 -254 428 -254
q246 0 394 203q137 186 137 493q0 328 -154 519q-145 182 -377 182z" />
    <glyph glyph-name="omacron" unicode="&#x14d;" horiz-adv-x="1113" 
d="M300 1366h518v-90h-518v90zM556 1047q202 0 339 -137q148 -148 148 -387q0 -253 -148 -400q-138 -135 -339 -135q-203 0 -339 135q-147 147 -147 395q0 244 150 394q135 135 336 135zM556 976q-152 0 -244 -129q-90 -125 -90 -329q0 -215 98 -338q90 -115 236 -115
q181 0 268 160q67 126 67 291q0 217 -98 343q-92 117 -237 117z" />
    <glyph glyph-name="Obreve" unicode="&#x14e;" horiz-adv-x="1573" 
d="M1059 1829q-3 -112 -90 -172q-71 -49 -182 -49q-116 0 -191 53q-81 60 -84 168h62q21 -123 213 -123q187 0 209 123h63zM787 1515q285 0 480 -195q221 -224 221 -571q0 -367 -223 -590q-193 -192 -478 -192q-284 0 -479 194q-223 223 -223 584q0 351 221 575
q195 195 481 195zM787 1443q-250 0 -397 -205q-135 -187 -135 -489q0 -268 104 -449q144 -254 428 -254q246 0 394 203q137 186 137 493q0 328 -154 519q-145 182 -377 182z" />
    <glyph glyph-name="obreve" unicode="&#x14f;" horiz-adv-x="1113" 
d="M813 1448q-3 -211 -256 -211q-251 0 -254 211h58q21 -123 196 -123t197 123h59zM556 1047q202 0 339 -137q148 -148 148 -387q0 -253 -148 -400q-138 -135 -339 -135q-203 0 -339 135q-147 147 -147 395q0 244 150 394q135 135 336 135zM556 976q-152 0 -244 -129
q-90 -125 -90 -329q0 -215 98 -338q90 -115 236 -115q181 0 268 160q67 126 67 291q0 217 -98 343q-92 117 -237 117z" />
    <glyph glyph-name="Ohungarumlaut" unicode="&#x150;" horiz-adv-x="1573" 
d="M1024 1862l104 -62l-254 -235l-49 34zM725 1860l113 -56l-203 -239l-58 26zM787 1515q285 0 480 -195q221 -224 221 -571q0 -367 -223 -590q-193 -192 -478 -192q-284 0 -479 194q-223 223 -223 584q0 351 221 575q195 195 481 195zM787 1443q-250 0 -397 -205
q-135 -187 -135 -489q0 -268 104 -449q144 -254 428 -254q246 0 394 203q137 186 137 493q0 328 -154 519q-145 182 -377 182z" />
    <glyph glyph-name="ohungarumlaut" unicode="&#x151;" horiz-adv-x="1113" 
d="M818 1507l105 -61l-254 -234l-49 33zM517 1505l113 -55l-203 -238l-55 25zM556 1047q202 0 339 -137q148 -148 148 -387q0 -253 -148 -400q-138 -135 -339 -135q-203 0 -339 135q-147 147 -147 395q0 244 150 394q135 135 336 135zM556 976q-152 0 -244 -129
q-90 -125 -90 -329q0 -215 98 -338q90 -115 236 -115q181 0 268 160q67 126 67 291q0 217 -98 343q-92 117 -237 117z" />
    <glyph glyph-name="OE" unicode="&#x152;" horiz-adv-x="2035" 
d="M1608 86q147 0 232.5 25.5t128.5 86.5l-12 -178h-1151q-249 0 -443 135q-278 199 -278 586q0 427 321 617q176 104 400 104h1127l10 -156q-41 51 -123.5 72t-211.5 21h-253q-114 0 -152 -35q-31 -28 -31 -119v-442h301q70 0 110 16.5t63 53.5v-207q-43 65 -173 65h-301
v-492q0 -95 38 -124t145 -29h253zM855 88h18q72 0 117 22q43 25 43 133v1004q0 110 -68 137q-43 19 -116 19h-19q-246 0 -397 -146q-176 -170 -176 -534q0 -635 598 -635z" />
    <glyph glyph-name="oe" unicode="&#x153;" horiz-adv-x="1787" 
d="M1317 78q224 0 344 213l25 -96q-132 -207 -389 -207q-250 0 -383 206q-145 -206 -383 -206q-213 0 -346 163q-115 146 -115 367q0 158 66 283q126 240 395 240q227 0 373 -201q125 198 372 198q272 0 385 -227q56 -108 56 -240v-31h-764v-35q0 -166 86 -284
q104 -143 278 -143zM543 969q-160 0 -249 -148q-72 -122 -72 -304q0 -195 76 -313q88 -137 245 -137q136 0 219 117q82 118 82 329q0 195 -72 316q-83 140 -229 140zM1579 618q-3 168 -94 263q-87 90 -217 90q-127 0 -217 -109q-80 -98 -92 -244h620z" />
    <glyph glyph-name="Racute" unicode="&#x154;" horiz-adv-x="1313" 
d="M759 1874l99 -100l-332 -213l-49 53zM495 1399q-96 0 -139 -32.5t-43 -123.5v-465h184q473 0 473 311q0 310 -397 310h-78zM172 1321q0 67 -15.5 98t-55.5 45h511q210 0 334 -70q178 -101 178 -291q0 -207 -172 -309q-105 -58 -246 -67v-7q120 -43 232 -219
q48 -78 165 -303q62 -121 197 -121v-57h-293q-131 333 -270 531q-113 155 -279 155h-145v-549q0 -111 68 -137h-276q67 27 67 137v1164z" />
    <glyph glyph-name="racute" unicode="&#x155;" horiz-adv-x="653" 
d="M472 1503l98 -98l-305 -201l-43 45zM271 780q19 46 49.5 90t71 83.5t94.5 63.5t110 24h55l-51 -86h-55q-74 0 -164 -103q-66 -78 -100 -190v-535q0 -84 37 -107h-218q44 27 44 107v772q0 97 -49 115q94 8 176 27v-261z" />
    <glyph glyph-name="uni0156" unicode="&#x156;" horiz-adv-x="1313" 
d="M527 -397q94 89 113 194q-103 4 -103 103q0 25 12 49q30 54 91 54q25 0 49 -13q54 -32 54 -95q0 -170 -190 -316zM495 1399q-96 0 -139 -32.5t-43 -123.5v-465h184q473 0 473 311q0 310 -397 310h-78zM172 1321q0 67 -15.5 98t-55.5 45h511q210 0 334 -70
q178 -101 178 -291q0 -207 -172 -309q-105 -58 -246 -67v-7q120 -43 232 -219q48 -78 165 -303q62 -121 197 -121v-57h-293q-131 333 -270 531q-113 155 -279 155h-145v-549q0 -111 68 -137h-276q67 27 67 137v1164z" />
    <glyph glyph-name="uni0157" unicode="&#x157;" horiz-adv-x="653" 
d="M127 -449q94 89 113 194q-103 4 -103 103q0 25 13 49q29 54 90 54q26 0 49 -13q54 -32 54 -95q0 -170 -189 -316zM271 780q19 46 49.5 90t71 83.5t94.5 63.5t110 24h55l-51 -86h-55q-74 0 -164 -103q-66 -78 -100 -190v-535q0 -84 37 -107h-218q44 27 44 107v772
q0 97 -49 115q94 8 176 27v-261z" />
    <glyph glyph-name="Rcaron" unicode="&#x158;" horiz-adv-x="1313" 
d="M344 1841l231 -153l232 153l49 -43l-234 -215h-94l-231 215zM495 1399q-96 0 -139 -32.5t-43 -123.5v-465h184q473 0 473 311q0 310 -397 310h-78zM172 1321q0 67 -15.5 98t-55.5 45h511q210 0 334 -70q178 -101 178 -291q0 -207 -172 -309q-105 -58 -246 -67v-7
q120 -43 232 -219q48 -78 165 -303q62 -121 197 -121v-57h-293q-131 333 -270 531q-113 155 -279 155h-145v-549q0 -111 68 -137h-276q67 27 67 137v1164z" />
    <glyph glyph-name="rcaron" unicode="&#x159;" horiz-adv-x="653" 
d="M149 1472l211 -137l211 137l37 -43l-205 -200h-88l-203 200zM271 780q19 46 49.5 90t71 83.5t94.5 63.5t110 24h55l-51 -86h-55q-74 0 -164 -103q-66 -78 -100 -190v-535q0 -84 37 -107h-218q44 27 44 107v772q0 97 -49 115q94 8 176 27v-261z" />
    <glyph glyph-name="Sacute" unicode="&#x15a;" horiz-adv-x="1141" 
d="M728 1874l99 -100l-334 -213l-47 53zM1003 1401v-253q-28 92 -92 160q-50 55 -160.5 86t-212.5 31q-149 0 -236 -96q-70 -76 -70 -183q0 -183 267 -278l51 -18q324 -118 418 -224q88 -100 88 -239q0 -210 -170 -322q-124 -81 -295 -81q-103 0 -228 27t-200 74
q-46 31 -72 31q-12 0 -20 -10v286q32 -113 100 -188q61 -65 183 -102t237 -37q139 0 221 76q88 79 88 215q0 102 -74 182q-67 71 -280 158l-39 16q-223 87 -293 140q-129 98 -129 260q0 181 135 289q123 98 312 98q92 0 211.5 -23.5t194.5 -64.5q33 -19 49 -19q9 0 16 9z
" />
    <glyph glyph-name="sacute" unicode="&#x15b;" horiz-adv-x="867" 
d="M550 1507l100 -98l-305 -201l-45 45zM752 965v-169q-21 54 -59 92q-39 39 -127.5 62.5t-159.5 23.5q-100 0 -166 -66q-47 -50 -47 -119q0 -120 207 -185l53 -16q171 -55 242 -109q102 -77 102 -205q0 -152 -115 -229q-89 -61 -219 -61q-67 0 -166.5 19.5t-158.5 51.5
q-44 26 -68 26q-7 0 -12 -3v208q22 -75 71 -124q46 -48 145.5 -75.5t184.5 -27.5q213 0 213 189q0 83 -63 135q-43 34 -199 88l-61 21q-141 46 -189 86q-90 71 -90 186q0 112 84 193q92 86 240 86q74 0 168.5 -16.5t140.5 -44.5q29 -17 49 -17z" />
    <glyph glyph-name="Scircumflex" unicode="&#x15c;" horiz-adv-x="1141" 
d="M520 1849h96l231 -213l-49 -43l-229 152l-232 -152l-49 43zM1003 1401v-253q-28 92 -92 160q-50 55 -160.5 86t-212.5 31q-149 0 -236 -96q-70 -76 -70 -183q0 -183 267 -278l51 -18q324 -118 418 -224q88 -100 88 -239q0 -210 -170 -322q-124 -81 -295 -81
q-103 0 -228 27t-200 74q-46 31 -72 31q-12 0 -20 -10v286q32 -113 100 -188q61 -65 183 -102t237 -37q139 0 221 76q88 79 88 215q0 102 -74 182q-67 71 -280 158l-39 16q-223 87 -293 140q-129 98 -129 260q0 181 135 289q123 98 312 98q92 0 211.5 -23.5t194.5 -64.5
q33 -19 49 -19q9 0 16 9z" />
    <glyph glyph-name="scircumflex" unicode="&#x15d;" horiz-adv-x="867" 
d="M378 1441h88l204 -198l-38 -43l-211 137l-209 -137l-37 43zM752 965v-169q-21 54 -59 92q-39 39 -127.5 62.5t-159.5 23.5q-100 0 -166 -66q-47 -50 -47 -119q0 -120 207 -185l53 -16q171 -55 242 -109q102 -77 102 -205q0 -152 -115 -229q-89 -61 -219 -61
q-67 0 -166.5 19.5t-158.5 51.5q-44 26 -68 26q-7 0 -12 -3v208q22 -75 71 -124q46 -48 145.5 -75.5t184.5 -27.5q213 0 213 189q0 83 -63 135q-43 34 -199 88l-61 21q-141 46 -189 86q-90 71 -90 186q0 112 84 193q92 86 240 86q74 0 168.5 -16.5t140.5 -44.5
q29 -17 49 -17z" />
    <glyph glyph-name="Scedilla" unicode="&#x15e;" horiz-adv-x="1141" 
d="M1003 1401v-253q-28 92 -92 160q-50 55 -160.5 86t-212.5 31q-149 0 -236 -96q-70 -76 -70 -183q0 -183 267 -278l51 -18q324 -118 418 -224q88 -100 88 -239q0 -210 -170 -322q-121 -79 -287 -81l-36 -81q185 -2 185 -133q0 -158 -320 -161l-17 60q231 3 231 103
q0 79 -171 81v28l49 106q-98 8 -196.5 33.5t-160.5 64.5q-46 31 -72 31q-12 0 -20 -10v286q32 -113 100 -188q61 -65 183 -102t237 -37q139 0 221 76q88 79 88 215q0 102 -74 182q-67 71 -280 158l-39 16q-223 87 -293 140q-129 98 -129 260q0 181 135 289q123 98 312 98
q92 0 211.5 -23.5t194.5 -64.5q33 -19 49 -19q9 0 16 9z" />
    <glyph glyph-name="scedilla" unicode="&#x15f;" horiz-adv-x="867" 
d="M752 965v-169q-21 54 -59 92q-39 39 -127.5 62.5t-159.5 23.5q-100 0 -166 -66q-47 -50 -47 -119q0 -120 207 -185l53 -16q171 -55 242 -109q102 -77 102 -205q0 -152 -115 -229q-89 -61 -218 -61l-36 -81q185 -2 185 -133q0 -158 -320 -161l-17 60q231 3 231 103
q0 79 -171 81v28l50 108q-161 19 -248 66q-44 26 -68 26q-7 0 -12 -3v208q22 -75 71 -124q46 -48 145.5 -75.5t184.5 -27.5q213 0 213 189q0 83 -63 135q-43 34 -199 88l-61 21q-141 46 -189 86q-90 71 -90 186q0 112 84 193q92 86 240 86q74 0 168.5 -16.5t140.5 -44.5
q29 -17 49 -17z" />
    <glyph glyph-name="Scaron" unicode="&#x160;" horiz-adv-x="1141" 
d="M311 1841l229 -153l231 153l48 -43l-230 -215h-96l-232 215zM1003 1401v-253q-28 92 -92 160q-50 55 -160.5 86t-212.5 31q-149 0 -236 -96q-70 -76 -70 -183q0 -183 267 -278l51 -18q324 -118 418 -224q88 -100 88 -239q0 -210 -170 -322q-124 -81 -295 -81
q-103 0 -228 27t-200 74q-46 31 -72 31q-12 0 -20 -10v286q32 -113 100 -188q61 -65 183 -102t237 -37q139 0 221 76q88 79 88 215q0 102 -74 182q-67 71 -280 158l-39 16q-223 87 -293 140q-129 98 -129 260q0 181 135 289q123 98 312 98q92 0 211.5 -23.5t194.5 -64.5
q33 -19 49 -19q9 0 16 9z" />
    <glyph glyph-name="scaron" unicode="&#x161;" horiz-adv-x="867" 
d="M215 1472l209 -137l211 137l37 -43l-205 -200h-86l-205 200zM752 965v-169q-21 54 -59 92q-39 39 -127.5 62.5t-159.5 23.5q-100 0 -166 -66q-47 -50 -47 -119q0 -120 207 -185l53 -16q171 -55 242 -109q102 -77 102 -205q0 -152 -115 -229q-89 -61 -219 -61
q-67 0 -166.5 19.5t-158.5 51.5q-44 26 -68 26q-7 0 -12 -3v208q22 -75 71 -124q46 -48 145.5 -75.5t184.5 -27.5q213 0 213 189q0 83 -63 135q-43 34 -199 88l-61 21q-141 46 -189 86q-90 71 -90 186q0 112 84 193q92 86 240 86q74 0 168.5 -16.5t140.5 -44.5
q29 -17 49 -17z" />
    <glyph glyph-name="uni0162" unicode="&#x162;" horiz-adv-x="1278" 
d="M503 20q62 23 62 137v1239h-274q-186 0 -260 -85l12 153h1204l8 -157q-71 89 -261 89h-288v-1239q0 -110 68 -137h-96l-50 -117q185 -2 185 -133q0 -158 -320 -161l-17 60q231 3 231 103q0 79 -171 81v28l63 139h-96z" />
    <glyph glyph-name="uni0163" unicode="&#x163;" horiz-adv-x="680" 
d="M682 113q-104 -138 -244 -138h-1l-31 -72q185 -2 185 -133q0 -158 -320 -161l-17 60q231 3 231 103q0 79 -171 81v28l47 103q-150 39 -150 249v699h-174v76h174v240l135 39v-279h303v-76h-303v-660q0 -209 127 -209q91 0 164 95z" />
    <glyph glyph-name="Tcaron" unicode="&#x164;" horiz-adv-x="1278" 
d="M409 1841l232 -153l231 153l49 -43l-233 -215h-97l-229 215zM503 20q62 23 62 137v1239h-274q-186 0 -260 -85l12 153h1204l8 -157q-71 89 -261 89h-288v-1239q0 -110 68 -137h-271z" />
    <glyph glyph-name="tcaron" unicode="&#x165;" horiz-adv-x="680" 
d="M510 1111q93 89 112 194q-103 4 -103 103q0 25 13 49q30 54 90 54q26 0 49 -13q55 -32 55 -95q0 -170 -190 -316zM682 113q-104 -138 -244 -138q-227 0 -227 258v699h-174v76h174v240l135 39v-279h303v-76h-303v-660q0 -209 127 -209q91 0 164 95z" />
    <glyph glyph-name="Tbar" unicode="&#x166;" horiz-adv-x="1278" 
d="M503 20q62 23 62 137v551h-269v74h269v614h-274q-186 0 -260 -85l12 153h1204l8 -157q-71 89 -261 89h-288v-614h269v-74h-269v-551q0 -110 68 -137h-271z" />
    <glyph glyph-name="tbar" unicode="&#x167;" horiz-adv-x="700" 
d="M682 113q-104 -138 -244 -138q-227 0 -227 258v309h-150v90h150v300h-174v76h174v240l135 39v-279h303v-76h-303v-300h278v-90h-278v-270q0 -209 127 -209q91 0 164 95z" />
    <glyph glyph-name="Utilde" unicode="&#x168;" horiz-adv-x="1360" 
d="M379 1659q58 141 184 141q75 0 178 -66q69 -45 127 -45q76 0 115 83l57 -37q-58 -140 -182 -140q-81 0 -172 58q-87 53 -137 53q-74 0 -117 -82zM1151 1323q0 60 -16 93.5t-50 47.5h235q-69 -26 -69 -141v-723q0 -627 -557 -627q-576 0 -576 615v733q0 61 -19 95t-61 48
h297q-40 -14 -57 -46.5t-17 -96.5v-713q0 -533 447 -533q443 0 443 533v715z" />
    <glyph glyph-name="utilde" unicode="&#x169;" horiz-adv-x="1099" 
d="M271 1306q40 125 160 125q67 0 158 -57q66 -41 102 -41q65 0 98 76l51 -39q-46 -121 -155 -121q-71 0 -160 55q-66 41 -106 41q-66 0 -97 -71zM823 902q0 94 -51 113q92 8 184 26v-914q0 -79 43 -107h-164l-10 166q-123 -206 -346 -206q-338 0 -338 366v553
q0 104 -47 115q98 9 182 27v-664q0 -311 227 -311q120 0 204.5 78t115.5 194v564z" />
    <glyph glyph-name="Umacron" unicode="&#x16a;" horiz-adv-x="1360" 
d="M454 1769h516v-92h-516v92zM1151 1323q0 60 -16 93.5t-50 47.5h235q-69 -26 -69 -141v-723q0 -627 -557 -627q-576 0 -576 615v733q0 61 -19 95t-61 48h297q-40 -14 -57 -46.5t-17 -96.5v-713q0 -533 447 -533q443 0 443 533v715z" />
    <glyph glyph-name="umacron" unicode="&#x16b;" horiz-adv-x="1099" 
d="M302 1366h519v-90h-519v90zM823 902q0 94 -51 113q92 8 184 26v-914q0 -79 43 -107h-164l-10 166q-123 -206 -346 -206q-338 0 -338 366v553q0 104 -47 115q98 9 182 27v-664q0 -311 227 -311q120 0 204.5 78t115.5 194v564z" />
    <glyph glyph-name="Ubreve" unicode="&#x16c;" horiz-adv-x="1360" 
d="M980 1829q-3 -109 -88 -170q-69 -51 -182 -51q-115 0 -191 53q-80 60 -83 168h61q25 -123 213 -123q185 0 207 123h63zM1151 1323q0 60 -16 93.5t-50 47.5h235q-69 -26 -69 -141v-723q0 -627 -557 -627q-576 0 -576 615v733q0 61 -19 95t-61 48h297q-40 -14 -57 -46.5
t-17 -96.5v-713q0 -533 447 -533q443 0 443 533v715z" />
    <glyph glyph-name="ubreve" unicode="&#x16d;" horiz-adv-x="1099" 
d="M817 1448q-4 -211 -254 -211q-253 0 -256 211h59q21 -123 197 -123q173 0 194 123h60zM823 902q0 94 -51 113q92 8 184 26v-914q0 -79 43 -107h-164l-10 166q-123 -206 -346 -206q-338 0 -338 366v553q0 104 -47 115q98 9 182 27v-664q0 -311 227 -311q120 0 204.5 78
t115.5 194v564z" />
    <glyph glyph-name="Uring" unicode="&#x16e;" horiz-adv-x="1360" 
d="M712 1874q49 0 90 -29q74 -46 74 -131q0 -44 -25 -84q-46 -78 -139 -78q-48 0 -92 29q-74 49 -74 133q0 81 72 131q45 29 94 29zM712 1817q-103 0 -103 -103q0 -105 103 -105q41 0 72 31t31 74q0 103 -103 103zM1151 1323q0 60 -16 93.5t-50 47.5h235q-69 -26 -69 -141
v-723q0 -627 -557 -627q-576 0 -576 615v733q0 61 -19 95t-61 48h297q-40 -14 -57 -46.5t-17 -96.5v-713q0 -533 447 -533q443 0 443 533v715z" />
    <glyph glyph-name="uring" unicode="&#x16f;" horiz-adv-x="1099" 
d="M549 1497q67 0 116 -49q45 -43 45 -107q0 -44 -20 -76q-46 -82 -139 -82q-36 0 -68 14q-94 43 -94 144q0 74 59 121q48 35 101 35zM551 1444q-105 0 -105 -103q0 -44 33 -74q32 -29 72 -29t71 31t31 72q0 103 -102 103zM823 902q0 94 -51 113q92 8 184 26v-914
q0 -79 43 -107h-164l-10 166q-123 -206 -346 -206q-338 0 -338 366v553q0 104 -47 115q98 9 182 27v-664q0 -311 227 -311q120 0 204.5 78t115.5 194v564z" />
    <glyph glyph-name="Uhungarumlaut" unicode="&#x170;" horiz-adv-x="1360" 
d="M933 1862l105 -62l-254 -235l-49 34zM632 1860l115 -56l-203 -239l-57 26zM1151 1323q0 60 -16 93.5t-50 47.5h235q-69 -26 -69 -141v-723q0 -627 -557 -627q-576 0 -576 615v733q0 61 -19 95t-61 48h297q-40 -14 -57 -46.5t-17 -96.5v-713q0 -533 447 -533
q443 0 443 533v715z" />
    <glyph glyph-name="uhungarumlaut" unicode="&#x171;" horiz-adv-x="1099" 
d="M761 1507l107 -61l-254 -234l-49 33zM460 1505l115 -55l-203 -238l-57 25zM823 902q0 94 -51 113q92 8 184 26v-914q0 -79 43 -107h-164l-10 166q-123 -206 -346 -206q-338 0 -338 366v553q0 104 -47 115q98 9 182 27v-664q0 -311 227 -311q120 0 204.5 78t115.5 194v564
z" />
    <glyph glyph-name="Uogonek" unicode="&#x172;" horiz-adv-x="1360" 
d="M1151 1323q0 60 -16 93.5t-50 47.5h235q-69 -26 -69 -141v-723q0 -598 -507 -626l-14 -14q-127 -126 -127 -186q0 -74 79 -74q74 0 143 61l25 -51q-93 -85 -198 -85q-159 0 -159 133q0 84 140 206l12 10q-527 26 -527 614v733q0 61 -19 95t-61 48h297q-40 -14 -57 -46.5
t-17 -96.5v-713q0 -533 447 -533q443 0 443 533v715z" />
    <glyph glyph-name="uogonek" unicode="&#x173;" horiz-adv-x="1099" 
d="M823 902q0 94 -51 113q92 8 184 26v-914q0 -79 43 -107h-24l-44 -41q-127 -120 -127 -187q0 -74 79 -74q74 0 143 61l25 -51q-92 -85 -197 -85q-159 0 -159 133q0 87 139 206l45 38h-44l-10 166q-123 -206 -346 -206q-338 0 -338 366v553q0 104 -47 115q98 9 182 27v-664
q0 -311 227 -311q120 0 204.5 78t115.5 194v564z" />
    <glyph glyph-name="Wcircumflex" unicode="&#x174;" horiz-adv-x="1783" 
d="M862 1851h97l231 -213l-49 -43l-229 152l-232 -152l-49 43zM872 1196l-31 127q-26 108 -86 141h239q-30 -20 -30 -63q0 -14 13.5 -77t23.5 -96l282 -964h6l311 1051q17 57 17 86q0 42 -48 63h230q-65 -32 -101 -149l-404 -1327h-66l-313 1060h-6l-345 -1060h-65
l-412 1316q-41 130 -105 160h275q-35 -19 -35 -67q0 -39 20 -105l316 -1038h6z" />
    <glyph glyph-name="wcircumflex" unicode="&#x175;" horiz-adv-x="1458" 
d="M693 1445h86l205 -198l-39 -43l-211 137l-209 -137l-36 43zM802 903l254 -735l248 739q14 42 14 68q0 27 -27 43h179q-49 -27 -70 -88l-333 -947h-66l-254 717l-282 -717h-70l-320 918q-29 83 -87 117h234q-28 -18 -28 -49q0 -22 14 -62l257 -739l243 631l-37 102
q-20 56 -33 80.5t-33 36.5h208q-27 -18 -27 -49q0 -18 16 -66z" />
    <glyph glyph-name="Ycircumflex" unicode="&#x176;" horiz-adv-x="1279" 
d="M611 1849h94l231 -213l-49 -43l-227 152l-234 -152l-47 43zM503 20q62 24 62 137v428l-437 740q-59 101 -145 139h312q-34 -17 -34 -45q0 -42 37 -107l357 -626l391 662q20 34 20 62q0 35 -48 54h275q-92 -41 -163 -159l-424 -701v-447q0 -110 73 -137h-276z" />
    <glyph glyph-name="ycircumflex" unicode="&#x177;" horiz-adv-x="962" 
d="M453 1439h88l203 -198l-37 -43l-211 137l-211 -137l-37 43zM518 191l282 717q14 36 14 57q0 34 -31 53h190q-52 -29 -79 -94l-456 -1135q-72 -178 -213 -178q-34 0 -60 6l-11 101q0 -4 13.5 -9t26.5 -7l14 -3h50q68 0 116 125l80 215l-382 862q-40 91 -80 117h228
q-25 -17 -25 -45q0 -24 16 -61z" />
    <glyph glyph-name="Ydieresis" unicode="&#x178;" horiz-adv-x="1279" 
d="M452 1801q96 0 96 -97q0 -96 -96 -96q-97 0 -97 96q0 97 97 97zM881 1801q99 0 99 -97q0 -96 -97 -96q-96 0 -96 96q0 97 94 97zM503 20q62 24 62 137v428l-437 740q-59 101 -145 139h312q-34 -17 -34 -45q0 -42 37 -107l357 -626l391 662q20 34 20 62q0 35 -48 54h275
q-92 -41 -163 -159l-424 -701v-447q0 -110 73 -137h-276z" />
    <glyph glyph-name="Zacute" unicode="&#x179;" horiz-adv-x="1294" 
d="M838 1874l100 -100l-333 -213l-50 53zM120 1284l13 180h1029v-76l-936 -1292h591q243 0 327 59q24 16 44 40l-12 -175h-1106v101l926 1273h-489q-268 0 -352 -72q-19 -17 -35 -38z" />
    <glyph glyph-name="zacute" unicode="&#x17a;" horiz-adv-x="944" 
d="M672 1505l98 -98l-305 -201l-43 45zM363 945q-110 0 -168 -21t-83 -75l9 159h733v-59l-628 -863h403q110 0 167 21t81 78l-8 -165h-801v60l629 865h-334z" />
    <glyph glyph-name="Zdotaccent" unicode="&#x17b;" horiz-adv-x="1294" 
d="M654 1835q102 0 102 -100q0 -105 -102 -105q-103 0 -103 102q0 103 103 103zM120 1284l13 180h1029v-76l-936 -1292h591q243 0 327 59q24 16 44 40l-12 -175h-1106v101l926 1273h-489q-268 0 -352 -72q-19 -17 -35 -38z" />
    <glyph glyph-name="zdotaccent" unicode="&#x17c;" horiz-adv-x="944" 
d="M500 1456q101 0 101 -100q0 -101 -101 -101q-100 0 -100 98q0 103 100 103zM363 945q-110 0 -168 -21t-83 -75l9 159h733v-59l-628 -863h403q110 0 167 21t81 78l-8 -165h-801v60l629 865h-334z" />
    <glyph glyph-name="Zcaron" unicode="&#x17d;" horiz-adv-x="1294" 
d="M412 1841l229 -153l232 153l49 -43l-231 -215h-97l-231 215zM120 1284l13 180h1029v-76l-936 -1292h591q243 0 327 59q24 16 44 40l-12 -175h-1106v101l926 1273h-489q-268 0 -352 -72q-19 -17 -35 -38z" />
    <glyph glyph-name="zcaron" unicode="&#x17e;" horiz-adv-x="944" 
d="M291 1472l209 -137l211 137l37 -43l-205 -200h-86l-205 200zM363 945q-110 0 -168 -21t-83 -75l9 159h733v-59l-628 -863h403q110 0 167 21t81 78l-8 -165h-801v60l629 865h-334z" />
    <glyph glyph-name="longs" unicode="&#x17f;" horiz-adv-x="420" 
d="M146 1008v139q0 172 96 268q84 84 215 84q84 0 146 -26l-44 -68q-32 32 -96 32q-182 0 -182 -290v-139v-882q0 -81 39 -106h-220q46 28 46 106v806h-140v76h140z" />
    <glyph glyph-name="uni0180" unicode="&#x180;" horiz-adv-x="1083" 
d="M100 1356q0 97 -50 114q99 8 183 25v-215h256v-90h-256v-356q125 204 344 204q170 0 291 -121q145 -145 145 -395q0 -252 -147 -400q-125 -124 -293 -124q-213 0 -336 172l-67 -166h-70v1186h-158v90h158v76zM233 639v-266q0 -128 133 -223q91 -66 193 -66q155 0 241 147
q68 114 68 287q0 231 -119 350q-86 86 -200 86q-151 0 -253 -141q-63 -85 -63 -174z" />
    <glyph glyph-name="uni0181" unicode="&#x181;" horiz-adv-x="1312" 
d="M220 1389q-8 0 -30.5 1.5t-37.5 1.5t-36 -3t-33.5 -10.5t-22 -23.5t-9.5 -40q0 -75 80 -75q74 0 142 62l25 -51q-92 -85 -197 -85q-76 0 -117.5 47.5t-41.5 117.5q0 133 159 133zM491 1399q-95 0 -137.5 -33t-42.5 -123v-432h219q430 0 430 299q0 289 -399 289h-70z
M311 737v-488q0 -163 180 -163h66q481 0 481 321q0 330 -512 330h-215zM172 1323q0 66 -15.5 96.5t-55.5 44.5h499q199 0 334 -65q180 -89 180 -281q0 -271 -353 -336v-6q435 -74 435 -361q0 -395 -607 -395h-484q67 24 67 137v1166z" />
    <glyph glyph-name="uni0182" unicode="&#x182;" horiz-adv-x="1227" 
d="M311 242q0 -91 43 -123t139 -32h64q425 0 425 331q0 328 -472 328h-199v-504zM491 1399q-103 0 -141.5 -29t-38.5 -125v-421h258q573 0 573 -418q0 -140 -88 -238q-133 -148 -452 -148h-497q67 29 67 137v1166q0 66 -15.5 96.5t-55.5 44.5h913l10 -155q-80 90 -336 90
h-197z" />
    <glyph glyph-name="uni0183" unicode="&#x183;" horiz-adv-x="1083" 
d="M233 639v-266q0 -128 133 -223q91 -66 193 -66q155 0 241 147q68 114 68 287q0 231 -119 350q-86 86 -200 86q-151 0 -253 -141q-63 -85 -63 -174zM100 1356q0 85 -39 106h742l9 -159q-26 55 -83.5 75.5t-167.5 20.5h-203q-64 0 -93.5 -22t-29.5 -80l-2 -463
q125 204 344 204q170 0 291 -121q145 -145 145 -395q0 -252 -147 -400q-125 -124 -293 -124q-213 0 -336 172l-67 -166h-70v1352z" />
    <glyph glyph-name="uni0184" unicode="&#x184;" horiz-adv-x="1315" 
d="M383 1464q-70 -27 -70 -137v-502h258q573 0 573 -418q0 -140 -88 -238q-134 -149 -452 -149h-503q40 14 55.5 45t15.5 98v1164q0 110 -67 137h278zM313 243q0 -91 43 -123t139 -32h64q425 0 425 331q0 328 -472 328h-199v-504z" />
    <glyph glyph-name="uni0185" unicode="&#x185;" horiz-adv-x="930" 
d="M440 520l-181 1v-343q0 -92 125 -92h56q136 0 208.5 62.5t72.5 165.5q0 99 -71 152t-210 54zM101 20q28 16 28 80v832q0 54 -28 76h188q-30 -20 -30 -76v-343l218 -3q150 -2 241 -45q68 -32 105 -100t37 -141q0 -72 -37 -137t-105 -98q-93 -45 -241 -45h-376z" />
    <glyph glyph-name="uni0186" unicode="&#x186;" horiz-adv-x="1495" 
d="M1208 763q0 242 -100 420q-145 258 -443 258q-121 0 -248 -40.5t-192 -112.5q-67 -76 -100 -177v265q7 -10 18 -10q16 0 58 29q80 57 216 88.5t259 31.5q285 0 479 -195q114 -115 166.5 -240t52.5 -301q0 -363 -221 -585q-194 -195 -479 -195q-123 0 -259 31.5t-216 88.5
q-42 29 -58 29q-11 0 -18 -10v265q33 -101 100 -177q65 -72 192 -112.5t248 -40.5q298 0 443 258q102 181 102 432z" />
    <glyph glyph-name="uni0187" unicode="&#x187;" horiz-adv-x="1452" 
d="M251 751q0 -242 100 -420q145 -258 443 -258q121 0 248 40.5t192 112.5q67 76 100 177v-265q-7 10 -18 10q-16 0 -58 -29q-80 -57 -216 -88.5t-259 -31.5q-285 0 -479 195q-114 115 -166.5 240t-52.5 301q0 363 221 585q194 195 479 195q123 0 259 -31.5t216 -88.5
q1 -1 2 -1v86q0 323 199 323q75 0 129 -32l-51 -58q-15 33 -74 33q-129 0 -129 -270v-365q-33 101 -100 177q-65 72 -192 112.5t-248 40.5q-298 0 -443 -258q-102 -181 -102 -432z" />
    <glyph glyph-name="uni0188" unicode="&#x188;" horiz-adv-x="847" 
d="M222 513q0 -167 72 -296q89 -160 268 -160q159 0 233 112l27 -105q-109 -76 -267 -76q-204 0 -335 135q-150 155 -150 390q0 240 150 395q131 135 335 135q108 0 193 -35v63q0 323 199 323q75 0 129 -32l-51 -58q-15 33 -74 33q-129 0 -129 -270v-100l-27 -105
q-74 112 -233 112q-179 0 -268 -160q-72 -129 -72 -301z" />
    <glyph glyph-name="uni0189" unicode="&#x189;" horiz-adv-x="1440" 
d="M172 1323q0 66 -15.5 96.5t-55.5 44.5h486q318 0 504 -137q264 -194 264 -582q0 -487 -387 -659q-150 -66 -391 -66h-472q67 24 67 137v441l-168 -135l-20 82l188 150v628zM315 239q0 -86 42.5 -116.5t139.5 -30.5h74q258 0 383 88q235 162 235 575q0 644 -618 644h-74
q-96 0 -139 -32.5t-43 -123.5v-466l256 203l23 -78l-279 -222v-441z" />
    <glyph glyph-name="uni018A" unicode="&#x18a;" horiz-adv-x="1440" 
d="M220 1389q-8 0 -30.5 1.5t-37.5 1.5t-36 -3t-33.5 -10.5t-22 -23.5t-9.5 -40q0 -75 80 -75q74 0 142 62l25 -51q-92 -85 -197 -85q-76 0 -117.5 47.5t-41.5 117.5q0 133 159 133zM315 239q0 -86 42.5 -116.5t139.5 -30.5h74q258 0 383 88q235 162 235 575q0 644 -618 644
h-74q-96 0 -139 -32.5t-43 -123.5v-1004zM172 1323q0 66 -15.5 96.5t-55.5 44.5h486q318 0 504 -137q264 -194 264 -582q0 -487 -387 -659q-150 -66 -391 -66h-472q67 24 67 137v1166z" />
    <glyph glyph-name="uni018B" unicode="&#x18b;" horiz-adv-x="1227" 
d="M916 242v504h-199q-472 0 -472 -328q0 -331 425 -331h64q96 0 139 32t43 123zM736 1399h-197q-256 0 -336 -90l10 155h913q-40 -14 -55.5 -44.5t-15.5 -96.5v-1166q0 -56 16.5 -89t49.5 -48h-496q-319 0 -452 148q-88 98 -88 238q0 418 573 418h258v421q0 50 -9.5 80.5
t-33 47t-54.5 21.5t-83 5z" />
    <glyph glyph-name="uni018E" unicode="&#x18e;" horiz-adv-x="1178" 
d="M1008 1325v-1168q0 -59 16.5 -92t52.5 -45h-1034l-12 176q44 -60 126 -84t231 -24h301q51 0 82.5 5.5t55 22t33 46.5t9.5 79v490h-317q-130 0 -175 -70v210q42 -68 175 -68h317v442q0 50 -9.5 81t-34 47t-55 21t-81.5 5h-301q-257 0 -330 -93l10 158h1011
q-40 -14 -55.5 -44.5t-15.5 -94.5z" />
    <glyph glyph-name="uni018F" unicode="&#x18f;" horiz-adv-x="1502" 
d="M256 711q10 -318 136 -476q72 -90 150 -126.5t195 -36.5q145 0 241 63t171 196q91 162 101 380h-994zM85 783h1166q-4 229 -100 400q-145 258 -443 258q-121 0 -248 -40.5t-192 -112.5q-67 -76 -100 -177v265q7 -10 18 -10q16 0 58 29q80 57 216 88.5t259 31.5
q285 0 479 -195q114 -115 166.5 -240t52.5 -301q0 -363 -221 -585q-100 -100 -205.5 -147.5t-244.5 -47.5q-146 0 -254 40.5t-203 136.5q-103 105 -153.5 266.5t-50.5 322.5v18z" />
    <glyph glyph-name="uni0190" unicode="&#x190;" horiz-adv-x="1249" 
d="M693 -16q-305 0 -489 117t-184 314q0 287 435 361v6q-353 65 -353 336q0 102 47 195.5t133 135.5q133 66 362 66q221 0 395 -120q42 -29 58 -29q11 0 18 10v-259q-33 95 -100 169q-137 155 -360 155q-194 0 -296.5 -90.5t-102.5 -240.5q0 -299 430 -299h219v-74h-215
q-512 0 -512 -330q0 -160 142.5 -254.5t383.5 -94.5q219 0 360 155q67 74 100 169v-259q-7 10 -18 10q-16 0 -58 -29q-174 -120 -395 -120z" />
    <glyph glyph-name="uni0191" unicode="&#x191;" horiz-adv-x="1153" 
d="M311 729v-718q0 -411 -346 -411q-124 0 -215 65l33 100q34 -92 172 -92q137 0 186 127q31 81 31 248v1275q0 65 -15.5 96t-55.5 45h1013l10 -155q-80 90 -336 90h-297q-102 0 -141 -29.5t-39 -124.5v-446h319q71 0 112.5 17t62.5 54v-209q-44 68 -175 68h-319z" />
    <glyph glyph-name="florin" unicode="&#x192;" horiz-adv-x="557" 
d="M214 -59q-38 -348 -323 -348q-71 0 -122 29l47 61q26 -35 81 -35q153 0 182 274l107 1010h-190l8 76h190l15 139q18 172 124 268q93 84 224 84q84 0 144 -26l-52 -68q-29 32 -93 32q-182 0 -212 -290l-15 -139h223l-8 -76h-223z" />
    <glyph glyph-name="uni0193" unicode="&#x193;" horiz-adv-x="1462" 
d="M1374 1117q-33 95 -100 169q-137 155 -360 155q-159 0 -306.5 -67.5t-216.5 -190.5q-102 -186 -102 -438q0 -303 156 -495q157 -195 399 -195q227 0 344 141q51 61 51 154v201q0 58 -15.5 91.5t-48.5 45.5h263q-64 -25 -64 -137v-525h-45l-63 119q-168 -174 -437 -174
q-303 0 -497 194q-209 212 -209 568q0 364 223 587q93 93 249.5 144t307.5 51q225 0 395 -120q1 -1 2 -1v86q0 323 199 323q75 0 129 -32l-51 -58q-15 33 -74 33q-129 0 -129 -270v-359z" />
    <glyph glyph-name="uni0194" unicode="&#x194;" horiz-adv-x="1298" 
d="M689 436l442 918q17 36 19 57q3 34 -26 53h190q-55 -29 -88 -94l-494 -1017l83 -162q14 -28 41 -77t40.5 -75.5t27 -63.5t16.5 -68q12 -137 -61 -220q-68 -77 -204 -77q-113 0 -181 61q-80 71 -68 209q3 34 26 84.5t66 130t60 114.5l46 94l-550 1044q-48 92 -90 117h229
q-24 -17 -22 -45q2 -23 21 -61zM667 223l-111 -223q-19 -42 -27 -129q-9 -107 25.5 -152t117.5 -46q153 3 133 225q-3 44 -12.5 74.5t-28.5 66.5z" />
    <glyph glyph-name="uni0195" unicode="&#x195;" horiz-adv-x="1667" 
d="M1099 51q115 0 183.5 86.5t68.5 239.5v522q0 65 -17.5 97.5t-57.5 45.5h291q-42 -14 -61.5 -47.5t-19.5 -95.5v-553q0 -88 -33.5 -159.5t-88.5 -116t-124 -67.5t-143 -23q-75 0 -143 23.5t-122.5 67.5t-87 115.5t-32.5 159.5v502q0 42 -10.5 68t-35 39.5t-54.5 18
t-79 4.5l-212 1v-822q0 -58 16.5 -91t52.5 -46h-276q62 23 62 137v1166q0 63 -16.5 95.5t-55.5 45.5h292q-75 -28 -75 -141v-281h599q-39 -13 -56 -46t-17 -97v-522q0 -153 68.5 -239.5t183.5 -86.5z" />
    <glyph glyph-name="uni0196" unicode="&#x196;" horiz-adv-x="450" 
d="M306 1323v-1275q0 -183 25 -248q49 -127 186 -127q138 0 172 92l33 -100q-91 -65 -215 -65q-346 0 -346 411v1312q0 61 -16.5 94.5t-52.5 46.5h285q-37 -14 -54 -47t-17 -94z" />
    <glyph glyph-name="uni0198" unicode="&#x198;" horiz-adv-x="1327" 
d="M393 1464q-37 -13 -55 -47.5t-18 -95.5v-592l656 631q41 39 41 67q0 23 -25 37h266q-91 -33 -171 -108l-529 -502l601 -726q63 -76 148 -108h-305q20 12 20 31q0 26 -72 114l-491 603l-139 -131v-480q0 -109 70 -137h-273q64 25 64 137v1162q0 62 -20 96.5t-63 48.5h295z
" />
    <glyph glyph-name="uni0199" unicode="&#x199;" horiz-adv-x="1048" 
d="M278 526l453 377q64 53 64 81q0 14 -17 24h242q-76 -28 -158 -95l-367 -299l394 -471q74 -88 141 -123h-239q8 8 8 20q0 23 -47 80l-351 423l-123 -103v-313q0 -84 39 -107h-217q43 27 43 107l1 1020q0 173 95 268q84 84 215 84q84 0 146 -26l-44 -68q-32 32 -96 32
q-182 0 -182 -290v-621z" />
    <glyph glyph-name="uni019A" unicode="&#x19a;" horiz-adv-x="418" 
d="M144 1356q0 97 -53 114q97 8 188 25v-689h140v-90h-140v-590q0 -79 39 -106h-218q44 26 44 106v590h-153v90h153v550z" />
    <glyph glyph-name="uni019B" unicode="&#x19b;" horiz-adv-x="962" 
d="M518 847l-307 -721q-16 -37 -16 -61q0 -28 25 -45h-228l8 6q36 29 72 111l382 862l-56 151l-276 -216l-20 80l268 209q-46 116 -112 116h-50q-52 -9 -54 -18l11 100q26 6 60 6q134 0 205 -159l192 133l24 -82l-186 -125l434 -1080q27 -65 79 -94h-190q31 19 31 53
q0 21 -14 57z" />
    <glyph glyph-name="uni019C" unicode="&#x19c;" horiz-adv-x="1644" 
d="M1269 1464h303q-41 -13 -58.5 -45.5t-17.5 -97.5v-1164q0 -109 70 -137h-211v172q-115 -198 -313 -198q-242 0 -284 223q-111 -223 -334 -223q-307 0 -307 368l1 959q0 62 -19 95q-19 34 -61 48h297q-44 -16 -57 -46q-17 -39 -17 -97l-1 -926q0 -166 35 -225
q53 -90 158 -90q199 0 282 247v994q0 61 -19 95t-61 48h297q-40 -14 -57 -46.5t-17 -96.5l1 -928q0 -169 33 -225q51 -88 153 -88q207 0 290 245v996q0 114 -86 143z" />
    <glyph glyph-name="uni019D" unicode="&#x19d;" horiz-adv-x="1391" 
d="M252 1298v-1287q0 -214 -66.5 -312.5t-233.5 -98.5q-124 0 -215 65l33 100q34 -92 172 -92q137 0 186 127q25 65 25 248v1275q0 60 -16 94.5t-51 46.5h224l855 -1204h6v1067q0 58 -16 91t-51 46h231q-64 -26 -64 -137v-1327h-88l-924 1298h-7z" />
    <glyph glyph-name="uni019E" unicode="&#x19e;" horiz-adv-x="1100" 
d="M957 666v-911q0 -79 43 -107h-221q41 28 41 107v882q0 309 -228 309q-222 0 -311 -245v-574q0 -80 40 -107h-221q44 27 44 107v772q0 97 -49 115q94 8 178 27v-215q126 208 348 208q336 0 336 -368z" />
    <glyph glyph-name="uni019F" unicode="&#x19f;" horiz-adv-x="1573" 
d="M784 1515q312 0 507 -223q195 -220 195 -545q0 -255 -119 -453q-193 -325 -579 -325q-345 0 -545 268q-158 213 -158 508q0 292 160 504q202 266 539 266zM790 1441q-246 0 -390 -193q-131 -170 -144 -439h1059q-13 256 -132 425q-148 207 -393 207zM1316 727h-1061
q5 -245 100 -417q145 -264 433 -264q257 0 405 225q118 181 123 456z" />
    <glyph glyph-name="Ohorn" unicode="&#x1a0;" horiz-adv-x="1573" 
d="M787 1443q-250 0 -397 -205q-135 -187 -135 -489q0 -268 104 -449q144 -254 428 -254q246 0 394 203q137 186 137 493q0 328 -154 519q-145 182 -377 182zM1290 1296q198 -218 198 -547q0 -367 -223 -590q-193 -192 -478 -192q-284 0 -479 194q-223 223 -223 584
q0 351 221 575q195 195 481 195q284 0 478 -193q92 88 111 192q-103 4 -103 103q0 25 12 49q30 54 91 54q25 0 49 -13q54 -32 54 -95q0 -170 -189 -316z" />
    </font>
</defs>
</svg>
